<svg xmlns="http://www.w3.org/2000/svg" width="810" viewBox="0 0 810 810" height="810" version="1.0"><defs><clipPath id="a"><path d="M 164 174.636719 L 646 174.636719 L 646 571.386719 L 164 571.386719 Z M 164 174.636719"/></clipPath><clipPath id="b"><path d="M 159.148438 560.785156 L 318.148438 560.785156 L 318.148438 622.285156 L 159.148438 622.285156 Z M 159.148438 560.785156"/></clipPath><clipPath id="c"><path d="M 159.148438 582 L 167 582 L 167 616 L 159.148438 616 Z M 159.148438 582"/></clipPath><clipPath id="d"><path d="M 318.203125 560.785156 L 490.703125 560.785156 L 490.703125 622.285156 L 318.203125 622.285156 Z M 318.203125 560.785156"/></clipPath><clipPath id="e"><path d="M 483 591 L 490.703125 591 L 490.703125 619 L 483 619 Z M 483 591"/></clipPath><clipPath id="f"><path d="M 450.234375 560.785156 L 622.734375 560.785156 L 622.734375 622.285156 L 450.234375 622.285156 Z M 450.234375 560.785156"/></clipPath><clipPath id="g"><path d="M 615 591 L 622.734375 591 L 622.734375 619 L 615 619 Z M 615 591"/></clipPath></defs><path fill="#FFF" d="M-81 -81H891V891H-81z"/><path fill="#FFF" d="M-81 -81H891V891H-81z"/><path fill="#FFF" d="M-81 -81H891V891H-81z"/><path fill="#FF8A80" d="M 405.035156 60.785156 C 214.910156 60.785156 60.785156 214.910156 60.785156 405.035156 C 60.785156 595.160156 214.910156 749.285156 405.035156 749.285156 C 595.160156 749.285156 749.285156 595.160156 749.285156 405.035156 C 749.285156 214.910156 595.160156 60.785156 405.035156 60.785156"/><g clip-path="url(#a)"><path fill="#FFF" d="M 550.519531 174.5625 C 538.03125 174.5625 527.816406 184.765625 527.816406 197.238281 C 527.816406 199.53125 528.183594 201.722656 528.808594 203.835938 L 488.523438 240.546875 C 472.820312 230.921875 454.976562 226.066406 437.132812 226.066406 C 416.046875 226.039062 394.988281 232.773438 377.433594 246.210938 L 365.597656 236.609375 C 367.035156 233.632812 367.84375 230.347656 367.84375 226.851562 C 367.84375 214.378906 357.628906 204.152344 345.140625 204.152344 C 332.679688 204.152344 322.460938 214.378906 322.460938 226.851562 C 322.460938 230.164062 323.21875 233.320312 324.5 236.164062 L 245.519531 316.421875 C 242.359375 314.722656 238.753906 313.757812 234.9375 313.757812 C 222.449219 313.757812 212.234375 323.988281 212.234375 336.457031 C 212.234375 348.929688 222.449219 359.15625 234.9375 359.15625 C 247.425781 359.15625 257.644531 348.929688 257.644531 336.457031 C 257.644531 331.421875 255.945312 326.726562 253.121094 322.941406 L 330.613281 244.226562 C 334.558594 247.539062 339.628906 249.523438 345.140625 249.523438 C 350.523438 249.523438 355.484375 247.617188 359.40625 244.460938 L 369.671875 252.785156 C 368.941406 253.460938 368.234375 254.167969 367.503906 254.871094 C 346.8125 275.613281 337.300781 303.375 338.949219 330.5625 L 303.835938 330.5625 C 301.066406 330.5625 298.816406 332.804688 298.816406 335.570312 L 298.816406 420.367188 L 214.011719 420.367188 C 211.242188 420.367188 208.996094 422.609375 208.996094 425.375 L 208.996094 561.464844 L 169.046875 561.464844 C 162.386719 561.464844 162.386719 571.484375 169.046875 571.484375 L 618.265625 571.484375 C 624.953125 571.484375 624.953125 561.464844 618.265625 561.464844 L 578.34375 561.464844 L 578.34375 495.167969 L 610.480469 527.367188 C 618.5 535.375 631.589844 535.402344 639.585938 527.390625 C 647.578125 519.382812 647.578125 506.257812 639.558594 498.25 L 578.34375 436.910156 L 578.34375 271.414062 C 578.34375 268.671875 576.097656 266.429688 573.328125 266.429688 L 516.554688 266.429688 C 513.628906 262.410156 510.363281 258.578125 506.757812 254.949219 C 503.648438 251.84375 500.382812 248.976562 496.988281 246.367188 L 533.957031 212.65625 C 538.109375 217.117188 543.988281 219.910156 550.519531 219.910156 C 562.980469 219.910156 573.199219 209.683594 573.199219 197.238281 C 573.199219 184.765625 562.980469 174.539062 550.519531 174.539062 Z M 550.519531 184.554688 C 557.574219 184.554688 563.191406 190.164062 563.191406 197.238281 C 563.191406 204.308594 557.574219 209.917969 550.519531 209.917969 C 543.441406 209.917969 537.824219 204.308594 537.824219 197.238281 C 537.824219 190.164062 543.441406 184.554688 550.519531 184.554688 Z M 345.140625 214.167969 C 352.21875 214.167969 357.835938 219.777344 357.835938 226.851562 C 357.835938 233.921875 352.21875 239.53125 345.140625 239.53125 C 338.085938 239.53125 332.46875 233.921875 332.46875 226.851562 C 332.46875 219.777344 338.085938 214.167969 345.140625 214.167969 Z M 437.132812 235.980469 C 452.207031 236.007812 467.28125 239.894531 480.816406 247.59375 L 451.734375 274.074219 C 445.699219 270.003906 438.410156 267.605469 430.601562 267.605469 C 423.335938 267.605469 416.542969 269.664062 410.769531 273.238281 L 385.453125 252.707031 C 400.839844 241.566406 418.972656 235.980469 437.132812 235.980469 Z M 489.460938 253.226562 C 493.042969 255.863281 496.4375 258.785156 499.679688 262.019531 C 503.386719 265.726562 506.679688 269.691406 509.578125 273.839844 C 509.660156 273.96875 509.738281 274.125 509.839844 274.230469 C 530.402344 303.976562 530.585938 342.457031 512.007812 371.96875 C 511.984375 371.96875 511.984375 371.96875 511.984375 371.992188 C 511.355469 373.011719 510.675781 374.003906 509.996094 374.996094 C 509.894531 375.152344 509.789062 375.28125 509.683594 375.4375 C 509.058594 376.351562 508.429688 377.238281 507.75 378.125 C 507.566406 378.386719 507.359375 378.621094 507.175781 378.882812 C 506.550781 379.691406 505.921875 380.5 505.269531 381.28125 C 505.007812 381.59375 504.746094 381.855469 504.511719 382.144531 C 503.882812 382.898438 503.230469 383.65625 502.578125 384.359375 C 502.1875 384.804688 501.714844 385.273438 501.296875 385.71875 C 500.957031 386.109375 500.59375 386.472656 500.199219 386.867188 C 499.859375 387.125 499.546875 387.441406 499.261719 387.804688 C 498.554688 388.507812 497.824219 389.1875 497.089844 389.867188 C 496.671875 390.257812 496.203125 390.703125 495.757812 391.09375 C 495.367188 391.433594 494.949219 391.769531 494.558594 392.109375 C 493.355469 393.152344 492.128906 394.144531 490.875 395.109375 C 490.875 395.109375 490.847656 395.109375 490.847656 395.136719 C 487.738281 397.511719 484.445312 399.675781 481.023438 401.632812 C 454.792969 416.609375 422.761719 417.105469 396.035156 402.988281 C 391.332031 400.539062 386.890625 397.640625 382.710938 394.355469 C 382.476562 394.171875 382.265625 394.015625 382.03125 393.832031 C 381.507812 393.386719 380.984375 392.972656 380.464844 392.554688 C 379.863281 392.03125 379.261719 391.511719 378.660156 390.988281 C 378.320312 390.648438 377.953125 390.363281 377.589844 390.023438 C 376.597656 389.136719 375.628906 388.195312 374.6875 387.257812 C 373.695312 386.265625 372.753906 385.273438 371.839844 384.257812 C 371.449219 383.8125 371.058594 383.394531 370.691406 382.953125 C 370.195312 382.402344 369.726562 381.832031 369.230469 381.28125 C 368.730469 380.683594 368.261719 380.054688 367.765625 379.429688 C 367.476562 379.089844 367.191406 378.699219 366.902344 378.335938 C 366.328125 377.578125 365.726562 376.792969 365.179688 376.011719 C 365.101562 375.90625 365.074219 375.804688 364.96875 375.75 C 356.503906 363.75 351.097656 349.765625 349.347656 334.996094 C 349.320312 334.894531 349.320312 334.761719 349.292969 334.65625 C 346.34375 308.75 354.753906 281.824219 374.585938 261.941406 C 375.550781 261.003906 376.519531 260.089844 377.511719 259.175781 L 402.851562 279.734375 C 396.582031 286.492188 392.714844 295.546875 392.714844 305.460938 C 392.714844 326.308594 409.726562 343.292969 430.574219 343.292969 C 451.421875 343.292969 468.429688 326.308594 468.429688 305.460938 C 468.429688 296.042969 464.957031 287.433594 459.234375 280.804688 Z M 522.984375 276.421875 L 568.339844 276.421875 L 568.339844 426.890625 L 567.839844 426.394531 L 551.433594 409.957031 C 549.917969 408.441406 548.222656 407.214844 546.445312 406.277344 C 540.121094 402.964844 532.441406 403.171875 526.300781 406.824219 L 510.363281 390.859375 C 512.742188 387.910156 513.628906 387.046875 515.066406 384.988281 C 528.546875 367.507812 535.367188 346.371094 535.3125 325.082031 C 535.472656 308.28125 531.394531 291.476562 522.984375 276.421875 Z M 430.601562 277.597656 C 446.039062 277.597656 458.425781 290.015625 458.425781 305.4375 C 458.425781 320.882812 446.039062 333.273438 430.601562 333.273438 C 415.160156 333.273438 402.75 320.882812 402.75 305.4375 C 402.75 290.015625 415.160156 277.597656 430.601562 277.597656 Z M 362.933594 319.523438 C 360.164062 319.550781 357.941406 321.847656 357.996094 324.585938 C 358.019531 344.886719 365.753906 365.210938 381.195312 380.683594 C 396.660156 396.152344 416.960938 403.929688 437.234375 403.957031 C 457.484375 403.957031 477.785156 396.207031 493.226562 380.734375 C 496.359375 377.578125 494.113281 372.230469 489.671875 372.230469 C 489.175781 372.230469 488.679688 372.308594 488.183594 372.4375 C 488.050781 372.464844 487.945312 372.515625 487.816406 372.566406 C 487.058594 372.855469 486.378906 373.324219 485.855469 373.925781 C 472.375 387.285156 454.84375 393.960938 437.234375 393.960938 C 419.523438 393.9375 401.859375 387.203125 388.328125 373.636719 C 374.765625 360.070312 368.027344 342.355469 368.027344 324.585938 C 368.054688 321.769531 365.753906 319.472656 362.933594 319.523438 Z M 234.9375 323.75 C 242.019531 323.75 247.636719 329.386719 247.636719 336.457031 C 247.636719 343.554688 242.019531 349.164062 234.9375 349.164062 C 227.882812 349.164062 222.242188 343.554688 222.242188 336.457031 C 222.242188 329.386719 227.882812 323.75 234.9375 323.75 Z M 308.851562 340.554688 L 340.070312 340.554688 C 343.074219 358.921875 351.253906 376.585938 364.605469 391.171875 C 364.839844 391.433594 365.101562 391.71875 365.335938 391.980469 C 365.882812 392.554688 366.433594 393.101562 366.980469 393.675781 C 367.164062 393.882812 367.375 394.117188 367.582031 394.328125 L 367.609375 394.328125 C 374.035156 400.746094 381.117188 406.121094 388.667969 410.398438 L 388.667969 561.492188 L 308.851562 561.492188 Z M 500.878906 358.296875 C 493.980469 358.0625 493.980469 368.496094 500.878906 368.261719 C 507.75 368.496094 507.75 358.0625 500.878906 358.296875 Z M 503.203125 397.851562 L 519.246094 413.921875 C 519.039062 414.261719 518.855469 414.574219 518.671875 414.886719 C 515.222656 421.460938 515.589844 429.550781 519.71875 435.839844 C 520.109375 436.414062 520.5 436.960938 520.945312 437.507812 C 521.390625 438.054688 521.832031 438.550781 522.328125 439.046875 L 522.328125 439.074219 L 568.339844 485.152344 L 568.339844 561.464844 L 488.496094 561.464844 L 488.496094 408.859375 C 493.667969 405.703125 498.582031 402.050781 503.203125 397.851562 Z M 536.855469 413.84375 C 539.546875 413.84375 542.238281 414.914062 544.355469 417.027344 L 614.398438 487.210938 L 599.453125 502.160156 L 529.410156 432.003906 L 529.410156 431.976562 C 529.148438 431.742188 528.886719 431.457031 528.679688 431.195312 C 525.230469 426.96875 525.464844 420.941406 529.382812 417 L 529.410156 417 C 529.644531 416.738281 529.933594 416.503906 530.195312 416.269531 C 532.152344 414.652344 534.503906 413.84375 536.855469 413.84375 Z M 478.488281 414.183594 L 478.488281 561.492188 L 398.671875 561.492188 L 398.671875 415.332031 C 424.144531 426.183594 453.304688 425.820312 478.488281 414.183594 Z M 219 430.359375 L 298.84375 430.359375 L 298.84375 561.492188 L 219 561.492188 Z M 621.480469 494.28125 L 632.503906 505.34375 C 636.710938 509.546875 636.710938 516.09375 632.503906 520.320312 C 628.324219 524.523438 621.765625 524.523438 617.558594 520.296875 L 606.535156 509.234375 Z M 621.480469 494.28125"/></g><g clip-path="url(#b)"><path fill="#FFF" d="M 331.605469 554.230469 C 331.605469 575.304688 331.605469 596.386719 331.605469 617.46875 C 333.179688 615.890625 334.753906 614.316406 336.332031 612.738281 C 270.1875 612.738281 204.046875 612.738281 137.902344 612.738281 C 139.480469 614.316406 141.054688 615.890625 142.628906 617.46875 C 142.628906 596.386719 142.628906 575.304688 142.628906 554.230469 C 141.054688 555.804688 139.480469 557.378906 137.902344 558.957031 C 204.046875 558.957031 270.1875 558.957031 336.332031 558.957031 C 342.421875 558.957031 342.421875 549.5 336.332031 549.5 C 270.1875 549.5 204.046875 549.5 137.902344 549.5 C 135.328125 549.5 133.179688 551.652344 133.179688 554.230469 C 133.179688 575.304688 133.179688 596.386719 133.179688 617.46875 C 133.179688 620.046875 135.328125 622.195312 137.90625 622.195312 C 204.046875 622.195312 270.1875 622.195312 336.332031 622.195312 C 338.902344 622.195312 341.054688 620.046875 341.054688 617.46875 C 341.054688 596.386719 341.054688 575.304688 341.054688 554.230469 C 341.054688 548.128906 331.605469 548.128906 331.605469 554.230469 Z M 331.605469 554.230469"/></g><g clip-path="url(#c)"><path fill="#FFF" d="M 166.378906 612.382812 C 166.378906 603.449219 166.378906 594.519531 166.378906 585.585938 C 166.378906 581.011719 159.292969 581.011719 159.292969 585.585938 C 159.292969 594.519531 159.292969 603.449219 159.292969 612.382812 C 159.292969 616.957031 166.378906 616.957031 166.378906 612.382812 Z M 166.378906 612.382812"/></g><path fill="#FFF" d="M 185.277344 612.382812 C 185.277344 606.601562 185.277344 600.824219 185.277344 595.042969 C 185.277344 590.46875 178.191406 590.46875 178.191406 595.042969 C 178.191406 600.824219 178.191406 606.601562 178.191406 612.382812 C 178.191406 616.957031 185.277344 616.957031 185.277344 612.382812 Z M 185.277344 612.382812"/><path fill="#FFF" d="M 204.175781 612.382812 C 204.175781 606.601562 204.175781 600.824219 204.175781 595.042969 C 204.175781 590.46875 197.089844 590.46875 197.089844 595.042969 C 197.089844 600.824219 197.089844 606.601562 197.089844 612.382812 C 197.089844 616.957031 204.175781 616.957031 204.175781 612.382812 Z M 204.175781 612.382812"/><path fill="#FFF" d="M 223.070312 612.382812 C 223.070312 603.449219 223.070312 594.519531 223.070312 585.585938 C 223.070312 581.011719 215.984375 581.011719 215.984375 585.585938 C 215.984375 594.519531 215.984375 603.449219 215.984375 612.382812 C 215.984375 616.957031 223.070312 616.957031 223.070312 612.382812 Z M 223.070312 612.382812"/><path fill="#FFF" d="M 241.972656 612.382812 C 241.972656 606.601562 241.972656 600.824219 241.972656 595.042969 C 241.972656 590.46875 234.882812 590.46875 234.882812 595.042969 C 234.882812 600.824219 234.882812 606.601562 234.882812 612.382812 C 234.882812 616.957031 241.972656 616.957031 241.972656 612.382812 Z M 241.972656 612.382812"/><path fill="#FFF" d="M 260.867188 612.382812 C 260.867188 606.601562 260.867188 600.824219 260.867188 595.042969 C 260.867188 590.46875 253.78125 590.46875 253.78125 595.042969 C 253.78125 600.824219 253.78125 606.601562 253.78125 612.382812 C 253.78125 616.957031 260.867188 616.957031 260.867188 612.382812 Z M 260.867188 612.382812"/><path fill="#FFF" d="M 279.765625 612.382812 C 279.765625 603.449219 279.765625 594.519531 279.765625 585.585938 C 279.765625 581.011719 272.679688 581.011719 272.679688 585.585938 C 272.679688 594.519531 272.679688 603.449219 272.679688 612.382812 C 272.679688 616.957031 279.765625 616.957031 279.765625 612.382812 Z M 279.765625 612.382812"/><path fill="#FFF" d="M 298.664062 612.382812 C 298.664062 606.601562 298.664062 600.824219 298.664062 595.042969 C 298.664062 590.46875 291.578125 590.46875 291.578125 595.042969 C 291.578125 600.824219 291.578125 606.601562 291.578125 612.382812 C 291.578125 616.957031 298.664062 616.957031 298.664062 612.382812 Z M 298.664062 612.382812"/><path fill="#FFF" d="M 317.5625 615.535156 C 317.5625 608.703125 317.5625 601.875 317.5625 595.042969 C 317.5625 590.46875 310.476562 590.46875 310.476562 595.042969 C 310.476562 601.871094 310.476562 608.703125 310.476562 615.535156 C 310.472656 620.109375 317.5625 620.109375 317.5625 615.535156 Z M 317.5625 615.535156"/><g clip-path="url(#d)"><path fill="#FFF" d="M 504.261719 554.230469 C 504.261719 575.308594 504.261719 596.390625 504.261719 617.46875 C 505.835938 615.894531 507.410156 614.316406 508.988281 612.738281 C 442.84375 612.738281 376.703125 612.738281 310.558594 612.738281 C 312.136719 614.316406 313.710938 615.890625 315.285156 617.46875 C 315.285156 596.386719 315.285156 575.308594 315.285156 554.230469 C 313.710938 555.804688 312.136719 557.382812 310.558594 558.957031 C 376.703125 558.957031 442.84375 558.957031 508.988281 558.957031 C 515.078125 558.957031 515.078125 549.5 508.988281 549.5 C 442.84375 549.5 376.703125 549.5 310.558594 549.5 C 307.984375 549.5 305.835938 551.65625 305.835938 554.230469 C 305.835938 575.308594 305.835938 596.390625 305.835938 617.46875 C 305.835938 620.046875 307.984375 622.199219 310.5625 622.199219 C 376.703125 622.199219 442.84375 622.199219 508.988281 622.199219 C 511.558594 622.199219 513.710938 620.046875 513.710938 617.46875 C 513.710938 596.386719 513.710938 575.308594 513.710938 554.230469 C 513.710938 548.132812 504.261719 548.132812 504.261719 554.230469 Z M 504.261719 554.230469"/></g><path fill="#FFF" d="M 339.035156 612.382812 C 339.035156 603.449219 339.035156 594.519531 339.035156 585.585938 C 339.035156 581.011719 331.949219 581.011719 331.949219 585.585938 C 331.949219 594.519531 331.949219 603.449219 331.949219 612.382812 C 331.949219 616.957031 339.035156 616.957031 339.035156 612.382812 Z M 339.035156 612.382812"/><path fill="#FFF" d="M 357.933594 612.382812 C 357.933594 606.601562 357.933594 600.824219 357.933594 595.046875 C 357.933594 590.46875 350.847656 590.46875 350.847656 595.046875 C 350.847656 600.824219 350.847656 606.601562 350.847656 612.382812 C 350.847656 616.957031 357.933594 616.957031 357.933594 612.382812 Z M 357.933594 612.382812"/><path fill="#FFF" d="M 376.832031 612.382812 C 376.832031 606.601562 376.832031 600.824219 376.832031 595.046875 C 376.832031 590.46875 369.746094 590.46875 369.746094 595.046875 C 369.746094 600.824219 369.746094 606.601562 369.746094 612.382812 C 369.746094 616.957031 376.832031 616.957031 376.832031 612.382812 Z M 376.832031 612.382812"/><path fill="#FFF" d="M 395.730469 612.382812 C 395.730469 603.449219 395.730469 594.519531 395.730469 585.585938 C 395.730469 581.011719 388.640625 581.011719 388.640625 585.585938 C 388.640625 594.519531 388.640625 603.449219 388.640625 612.382812 C 388.640625 616.957031 395.730469 616.957031 395.730469 612.382812 Z M 395.730469 612.382812"/><path fill="#FFF" d="M 414.628906 612.382812 C 414.628906 606.601562 414.628906 600.824219 414.628906 595.046875 C 414.628906 590.46875 407.539062 590.46875 407.539062 595.046875 C 407.539062 600.824219 407.539062 606.601562 407.539062 612.382812 C 407.539062 616.957031 414.628906 616.957031 414.628906 612.382812 Z M 414.628906 612.382812"/><path fill="#FFF" d="M 433.527344 612.382812 C 433.527344 606.601562 433.527344 600.824219 433.527344 595.046875 C 433.527344 590.46875 426.4375 590.46875 426.4375 595.046875 C 426.4375 600.824219 426.4375 606.601562 426.4375 612.382812 C 426.4375 616.957031 433.527344 616.957031 433.527344 612.382812 Z M 433.527344 612.382812"/><path fill="#FFF" d="M 452.421875 612.382812 C 452.421875 603.449219 452.421875 594.519531 452.421875 585.585938 C 452.421875 581.011719 445.335938 581.011719 445.335938 585.585938 C 445.335938 594.519531 445.335938 603.449219 445.335938 612.382812 C 445.335938 616.957031 452.421875 616.957031 452.421875 612.382812 Z M 452.421875 612.382812"/><path fill="#FFF" d="M 471.320312 612.382812 C 471.320312 606.601562 471.320312 600.824219 471.320312 595.046875 C 471.320312 590.46875 464.234375 590.46875 464.234375 595.046875 C 464.234375 600.824219 464.234375 606.601562 464.234375 612.382812 C 464.234375 616.957031 471.320312 616.957031 471.320312 612.382812 Z M 471.320312 612.382812"/><g clip-path="url(#e)"><path fill="#FFF" d="M 490.21875 615.535156 C 490.21875 608.707031 490.21875 601.875 490.21875 595.046875 C 490.21875 590.46875 483.132812 590.46875 483.132812 595.046875 C 483.132812 601.875 483.132812 608.707031 483.132812 615.535156 C 483.132812 620.109375 490.21875 620.109375 490.21875 615.535156 Z M 490.21875 615.535156"/></g><g clip-path="url(#f)"><path fill="#FFF" d="M 636.292969 554.230469 C 636.292969 575.308594 636.292969 596.390625 636.292969 617.46875 C 637.867188 615.894531 639.445312 614.316406 641.019531 612.738281 C 574.878906 612.738281 508.734375 612.738281 442.59375 612.738281 C 444.167969 614.316406 445.742188 615.890625 447.316406 617.46875 C 447.316406 596.386719 447.316406 575.308594 447.316406 554.230469 C 445.742188 555.804688 444.167969 557.382812 442.59375 558.957031 C 508.734375 558.957031 574.875 558.957031 641.019531 558.957031 C 647.113281 558.957031 647.113281 549.5 641.019531 549.5 C 574.878906 549.5 508.734375 549.5 442.59375 549.5 C 440.015625 549.5 437.867188 551.65625 437.867188 554.230469 C 437.867188 575.308594 437.867188 596.390625 437.867188 617.46875 C 437.867188 620.046875 440.015625 622.199219 442.59375 622.199219 C 508.734375 622.199219 574.878906 622.199219 641.019531 622.199219 C 643.59375 622.199219 645.742188 620.046875 645.742188 617.46875 C 645.742188 596.386719 645.742188 575.308594 645.742188 554.230469 C 645.742188 548.132812 636.292969 548.132812 636.292969 554.230469 Z M 636.292969 554.230469"/></g><path fill="#FFF" d="M 471.070312 612.382812 C 471.070312 603.449219 471.070312 594.519531 471.070312 585.585938 C 471.070312 581.011719 463.980469 581.011719 463.980469 585.585938 C 463.980469 594.519531 463.980469 603.449219 463.980469 612.382812 C 463.980469 616.957031 471.070312 616.957031 471.070312 612.382812 Z M 471.070312 612.382812"/><path fill="#FFF" d="M 489.964844 612.382812 C 489.964844 606.601562 489.964844 600.824219 489.964844 595.046875 C 489.964844 590.46875 482.878906 590.46875 482.878906 595.046875 C 482.878906 600.824219 482.878906 606.601562 482.878906 612.382812 C 482.878906 616.957031 489.964844 616.957031 489.964844 612.382812 Z M 489.964844 612.382812"/><path fill="#FFF" d="M 508.863281 612.382812 C 508.863281 606.601562 508.863281 600.824219 508.863281 595.046875 C 508.863281 590.46875 501.777344 590.46875 501.777344 595.046875 C 501.777344 600.824219 501.777344 606.601562 501.777344 612.382812 C 501.777344 616.957031 508.863281 616.957031 508.863281 612.382812 Z M 508.863281 612.382812"/><path fill="#FFF" d="M 527.761719 612.382812 C 527.761719 603.449219 527.761719 594.519531 527.761719 585.585938 C 527.761719 581.011719 520.675781 581.011719 520.675781 585.585938 C 520.675781 594.519531 520.675781 603.449219 520.675781 612.382812 C 520.675781 616.957031 527.761719 616.957031 527.761719 612.382812 Z M 527.761719 612.382812"/><path fill="#FFF" d="M 546.660156 612.382812 C 546.660156 606.601562 546.660156 600.824219 546.660156 595.046875 C 546.660156 590.46875 539.570312 590.46875 539.570312 595.046875 C 539.570312 600.824219 539.570312 606.601562 539.570312 612.382812 C 539.570312 616.957031 546.660156 616.957031 546.660156 612.382812 Z M 546.660156 612.382812"/><path fill="#FFF" d="M 565.558594 612.382812 C 565.558594 606.601562 565.558594 600.824219 565.558594 595.046875 C 565.558594 590.46875 558.472656 590.46875 558.472656 595.046875 C 558.472656 600.824219 558.472656 606.601562 558.472656 612.382812 C 558.472656 616.957031 565.558594 616.957031 565.558594 612.382812 Z M 565.558594 612.382812"/><path fill="#FFF" d="M 584.457031 612.382812 C 584.457031 603.449219 584.457031 594.519531 584.457031 585.585938 C 584.457031 581.011719 577.367188 581.011719 577.367188 585.585938 C 577.367188 594.519531 577.367188 603.449219 577.367188 612.382812 C 577.367188 616.957031 584.457031 616.957031 584.457031 612.382812 Z M 584.457031 612.382812"/><path fill="#FFF" d="M 603.351562 612.382812 C 603.351562 606.601562 603.351562 600.824219 603.351562 595.046875 C 603.351562 590.46875 596.265625 590.46875 596.265625 595.046875 C 596.265625 600.824219 596.265625 606.601562 596.265625 612.382812 C 596.265625 616.957031 603.351562 616.957031 603.351562 612.382812 Z M 603.351562 612.382812"/><g clip-path="url(#g)"><path fill="#FFF" d="M 622.25 615.535156 C 622.25 608.707031 622.25 601.875 622.25 595.046875 C 622.25 590.46875 615.164062 590.46875 615.164062 595.046875 C 615.164062 601.875 615.164062 608.707031 615.164062 615.535156 C 615.164062 620.109375 622.25 620.109375 622.25 615.535156 Z M 622.25 615.535156"/></g></svg>