<svg xmlns="http://www.w3.org/2000/svg" width="810" viewBox="0 0 810 810" height="810" version="1.0"><defs><clipPath id="a"><path d="M 193 132.042969 L 617 132.042969 L 617 678.042969 L 193 678.042969 Z M 193 132.042969"/></clipPath></defs><path fill="#FFF" d="M-81 -81H891V891H-81z"/><path fill="#FFF" d="M-81 -81H891V891H-81z"/><path fill="#FFF" d="M-81 -81H891V891H-81z"/><path fill="#FF8A80" d="M 405.035156 60.785156 C 214.910156 60.785156 60.785156 214.910156 60.785156 405.035156 C 60.785156 595.160156 214.910156 749.285156 405.035156 749.285156 C 595.160156 749.285156 749.285156 595.160156 749.285156 405.035156 C 749.285156 214.910156 595.160156 60.785156 405.035156 60.785156"/><path fill="#FF6A6A" d="M 404.820312 148.421875 C 297.226562 148.421875 209.296875 235.785156 208.75 342.800781 C 208.75 383.203125 221.308594 422.515625 244.796875 455.820312 C 245.339844 456.367188 245.339844 456.914062 245.886719 456.914062 L 246.433594 457.460938 L 396.628906 657.296875 C 398.8125 660.027344 401.542969 661.664062 404.820312 661.664062 C 408.097656 661.664062 410.828125 660.027344 413.011719 657.296875 L 563.753906 456.367188 C 564.300781 456.367188 564.847656 455.820312 564.847656 455.277344 C 588.332031 421.96875 600.894531 383.203125 600.894531 342.800781 C 600.347656 235.785156 512.960938 148.421875 404.820312 148.421875 Z M 404.820312 148.421875"/><path fill="#FF6A6A" d="M 404.820312 213.945312 C 402.808594 213.945312 400.800781 213.992188 398.792969 214.089844 C 396.78125 214.191406 394.777344 214.339844 392.777344 214.535156 C 390.773438 214.730469 388.777344 214.976562 386.789062 215.273438 C 384.800781 215.566406 382.820312 215.910156 380.847656 216.304688 C 378.875 216.695312 376.914062 217.136719 374.960938 217.625 C 373.011719 218.113281 371.074219 218.648438 369.148438 219.234375 C 367.222656 219.816406 365.316406 220.449219 363.421875 221.125 C 361.527344 221.800781 359.652344 222.527344 357.792969 223.292969 C 355.9375 224.0625 354.097656 224.878906 352.28125 225.738281 C 350.460938 226.597656 348.667969 227.5 346.890625 228.449219 C 345.117188 229.398438 343.371094 230.386719 341.644531 231.421875 C 339.917969 232.457031 338.222656 233.53125 336.546875 234.648438 C 334.875 235.765625 333.234375 236.921875 331.617188 238.121094 C 330.003906 239.316406 328.417969 240.554688 326.863281 241.828125 C 325.308594 243.105469 323.785156 244.417969 322.296875 245.769531 C 320.804688 247.117188 319.347656 248.503906 317.925781 249.925781 C 316.503906 251.347656 315.117188 252.800781 313.769531 254.292969 C 312.417969 255.78125 311.105469 257.304688 309.828125 258.859375 C 308.550781 260.414062 307.316406 261.996094 306.117188 263.613281 C 304.917969 265.226562 303.761719 266.871094 302.644531 268.542969 C 301.527344 270.214844 300.453125 271.910156 299.417969 273.636719 C 298.382812 275.359375 297.394531 277.109375 296.445312 278.882812 C 295.496094 280.65625 294.59375 282.449219 293.734375 284.269531 C 292.871094 286.085938 292.058594 287.921875 291.289062 289.78125 C 290.519531 291.636719 289.796875 293.511719 289.117188 295.40625 C 288.441406 297.300781 287.808594 299.207031 287.226562 301.132812 C 286.640625 303.054688 286.105469 304.992188 285.617188 306.941406 C 285.128906 308.894531 284.6875 310.855469 284.296875 312.828125 C 283.902344 314.796875 283.558594 316.777344 283.265625 318.769531 C 282.96875 320.757812 282.722656 322.75 282.527344 324.753906 C 282.328125 326.753906 282.179688 328.757812 282.082031 330.765625 C 281.984375 332.773438 281.933594 334.78125 281.933594 336.792969 C 281.933594 338.804688 281.984375 340.8125 282.082031 342.820312 C 282.179688 344.828125 282.328125 346.835938 282.527344 348.835938 C 282.722656 350.835938 282.96875 352.832031 283.265625 354.820312 C 283.558594 356.808594 283.902344 358.789062 284.296875 360.761719 C 284.6875 362.730469 285.128906 364.691406 285.617188 366.644531 C 286.105469 368.59375 286.640625 370.53125 287.226562 372.453125 C 287.808594 374.378906 288.441406 376.289062 289.117188 378.179688 C 289.796875 380.074219 290.519531 381.949219 291.289062 383.804688 C 292.058594 385.664062 292.871094 387.5 293.734375 389.320312 C 294.59375 391.136719 295.496094 392.929688 296.445312 394.703125 C 297.394531 396.476562 298.382812 398.226562 299.417969 399.949219 C 300.453125 401.675781 301.527344 403.375 302.644531 405.046875 C 303.761719 406.71875 304.917969 408.359375 306.117188 409.976562 C 307.316406 411.589844 308.550781 413.175781 309.828125 414.730469 C 311.105469 416.28125 312.417969 417.804688 313.769531 419.292969 C 315.117188 420.785156 316.503906 422.238281 317.925781 423.660156 C 319.347656 425.082031 320.804688 426.46875 322.296875 427.820312 C 323.785156 429.167969 325.308594 430.480469 326.863281 431.757812 C 328.417969 433.035156 330.003906 434.269531 331.617188 435.46875 C 333.234375 436.664062 334.875 437.824219 336.546875 438.9375 C 338.222656 440.054688 339.917969 441.132812 341.644531 442.164062 C 343.371094 443.199219 345.117188 444.191406 346.890625 445.136719 C 348.667969 446.085938 350.460938 446.988281 352.28125 447.847656 C 354.097656 448.707031 355.9375 449.523438 357.792969 450.292969 C 359.652344 451.0625 361.527344 451.785156 363.421875 452.460938 C 365.316406 453.140625 367.222656 453.769531 369.148438 454.355469 C 371.074219 454.9375 373.011719 455.472656 374.960938 455.960938 C 376.914062 456.449219 378.875 456.890625 380.847656 457.28125 C 382.820312 457.675781 384.800781 458.019531 386.789062 458.3125 C 388.777344 458.609375 390.773438 458.855469 392.777344 459.050781 C 394.777344 459.25 396.78125 459.398438 398.792969 459.496094 C 400.800781 459.59375 402.808594 459.644531 404.820312 459.644531 C 406.832031 459.644531 408.84375 459.59375 410.851562 459.496094 C 412.859375 459.398438 414.863281 459.25 416.867188 459.050781 C 418.867188 458.855469 420.863281 458.609375 422.851562 458.3125 C 424.839844 458.019531 426.820312 457.675781 428.792969 457.28125 C 430.765625 456.890625 432.730469 456.449219 434.679688 455.960938 C 436.628906 455.472656 438.566406 454.9375 440.492188 454.355469 C 442.417969 453.769531 444.328125 453.140625 446.21875 452.460938 C 448.113281 451.785156 449.988281 451.0625 451.847656 450.292969 C 453.707031 449.523438 455.542969 448.707031 457.363281 447.847656 C 459.179688 446.988281 460.976562 446.085938 462.75 445.136719 C 464.523438 444.191406 466.273438 443.199219 467.996094 442.164062 C 469.722656 441.132812 471.421875 440.054688 473.09375 438.9375 C 474.765625 437.824219 476.410156 436.664062 478.023438 435.46875 C 479.640625 434.269531 481.222656 433.035156 482.777344 431.757812 C 484.332031 430.480469 485.855469 429.167969 487.347656 427.820312 C 488.835938 426.46875 490.292969 425.082031 491.714844 423.660156 C 493.136719 422.238281 494.523438 420.785156 495.875 419.292969 C 497.222656 417.804688 498.539062 416.28125 499.8125 414.730469 C 501.089844 413.175781 502.324219 411.589844 503.523438 409.976562 C 504.722656 408.359375 505.878906 406.71875 506.996094 405.046875 C 508.113281 403.375 509.191406 401.675781 510.222656 399.949219 C 511.257812 398.226562 512.25 396.476562 513.195312 394.703125 C 514.144531 392.929688 515.046875 391.136719 515.910156 389.320312 C 516.769531 387.5 517.582031 385.664062 518.351562 383.804688 C 519.121094 381.949219 519.847656 380.074219 520.523438 378.179688 C 521.203125 376.289062 521.832031 374.378906 522.414062 372.453125 C 523 370.53125 523.535156 368.59375 524.023438 366.644531 C 524.511719 364.691406 524.953125 362.730469 525.347656 360.761719 C 525.738281 358.789062 526.082031 356.808594 526.378906 354.820312 C 526.671875 352.832031 526.917969 350.835938 527.117188 348.835938 C 527.3125 346.835938 527.460938 344.828125 527.558594 342.820312 C 527.65625 340.8125 527.707031 338.804688 527.707031 336.792969 C 527.707031 334.78125 527.65625 332.773438 527.558594 330.765625 C 527.460938 328.757812 527.3125 326.753906 527.117188 324.753906 C 526.917969 322.75 526.671875 320.757812 526.378906 318.769531 C 526.082031 316.777344 525.738281 314.796875 525.347656 312.828125 C 524.953125 310.855469 524.511719 308.894531 524.023438 306.941406 C 523.535156 304.992188 523 303.054688 522.414062 301.132812 C 521.832031 299.207031 521.203125 297.300781 520.523438 295.40625 C 519.847656 293.511719 519.121094 291.636719 518.351562 289.78125 C 517.582031 287.921875 516.769531 286.085938 515.910156 284.269531 C 515.046875 282.449219 514.144531 280.65625 513.195312 278.882812 C 512.25 277.109375 511.257812 275.359375 510.222656 273.636719 C 509.191406 271.910156 508.113281 270.214844 506.996094 268.542969 C 505.878906 266.871094 504.722656 265.226562 503.523438 263.613281 C 502.324219 261.996094 501.089844 260.414062 499.8125 258.859375 C 498.539062 257.304688 497.222656 255.78125 495.875 254.292969 C 494.523438 252.800781 493.136719 251.347656 491.714844 249.925781 C 490.292969 248.503906 488.835938 247.117188 487.347656 245.769531 C 485.855469 244.417969 484.332031 243.105469 482.777344 241.828125 C 481.222656 240.554688 479.640625 239.316406 478.023438 238.121094 C 476.410156 236.921875 474.765625 235.765625 473.09375 234.648438 C 471.421875 233.53125 469.722656 232.457031 467.996094 231.421875 C 466.273438 230.386719 464.523438 229.398438 462.75 228.449219 C 460.976562 227.5 459.179688 226.597656 457.363281 225.738281 C 455.542969 224.878906 453.707031 224.0625 451.847656 223.292969 C 449.988281 222.527344 448.113281 221.800781 446.21875 221.125 C 444.328125 220.449219 442.417969 219.816406 440.492188 219.234375 C 438.566406 218.648438 436.628906 218.113281 434.679688 217.625 C 432.730469 217.136719 430.765625 216.695312 428.792969 216.304688 C 426.820312 215.910156 424.839844 215.566406 422.851562 215.273438 C 420.863281 214.976562 418.867188 214.730469 416.867188 214.535156 C 414.863281 214.339844 412.859375 214.191406 410.851562 214.089844 C 408.84375 213.992188 406.832031 213.945312 404.820312 213.945312 Z M 404.820312 213.945312"/><g clip-path="url(#a)"><path fill="#FFF" d="M 404.820312 678.042969 C 396.628906 678.042969 389.527344 674.222656 384.066406 668.214844 C 384.066406 668.214844 383.519531 667.667969 383.519531 667.667969 L 234.417969 468.378906 C 233.324219 467.289062 232.78125 466.195312 232.234375 465.101562 C 206.5625 428.519531 193.457031 386.480469 193.457031 342.800781 C 193.457031 226.5 288.488281 132.042969 404.820312 132.042969 C 521.699219 132.042969 616.730469 227.046875 616.730469 343.34375 C 616.730469 386.480469 603.625 427.976562 579.046875 464.011719 C 577.953125 465.648438 576.863281 467.289062 575.222656 468.925781 L 426.121094 667.125 C 426.121094 667.125 425.574219 667.667969 425.574219 667.667969 C 420.660156 674.222656 413.011719 678.042969 404.820312 678.042969 Z M 258.996094 447.085938 C 258.996094 447.085938 259.542969 447.632812 259.542969 447.632812 L 404.820312 641.460938 L 550.644531 447.085938 C 551.191406 446.539062 551.738281 445.992188 551.738281 445.449219 C 572.492188 415.417969 583.960938 379.925781 583.960938 343.34375 C 583.960938 245.066406 503.675781 164.804688 404.820312 164.804688 C 306.511719 164.804688 225.679688 244.519531 225.679688 343.34375 C 225.679688 379.925781 237.148438 415.417969 258.449219 445.992188 C 258.996094 446.539062 258.996094 446.539062 258.996094 447.085938 Z M 258.996094 447.085938"/></g><path fill="#FFF" d="M 377.511719 247.796875 L 432.128906 247.796875 L 432.128906 425.246094 L 377.511719 425.246094 Z M 377.511719 247.796875"/><path fill="#FFF" d="M 315.796875 309.492188 L 493.300781 309.492188 L 493.300781 364.09375 L 315.796875 364.09375 Z M 315.796875 309.492188"/></svg>