<svg xmlns="http://www.w3.org/2000/svg" width="810" viewBox="0 0 810 810" height="810" version="1.0"><defs><clipPath id="a"><path d="M 57.082031 57.082031 L 753.082031 57.082031 L 753.082031 753.082031 L 57.082031 753.082031 Z M 57.082031 57.082031"/></clipPath><clipPath id="b"><path d="M 259 486.769531 L 276 486.769531 L 276 503 L 259 503 Z M 259 486.769531"/></clipPath><clipPath id="c"><path d="M 253.308594 503 L 281 503 L 281 523.519531 L 253.308594 523.519531 Z M 253.308594 503"/></clipPath><clipPath id="d"><path d="M 276 495 L 287.808594 495 L 287.808594 507 L 276 507 Z M 276 495"/></clipPath></defs><path fill="#FFF" d="M-81 -81H891V891H-81z"/><path fill="#FFF" d="M-81 -81H891V891H-81z"/><path fill="#FFF" d="M-81 -81H891V891H-81z"/><g clip-path="url(#a)"><path fill="#FF8A80" d="M 753.019531 405.082031 C 753.019531 597.25 597.25 753.019531 405.082031 753.019531 C 212.914062 753.019531 57.144531 597.25 57.144531 405.082031 C 57.128906 212.914062 212.914062 57.144531 405.082031 57.144531 C 597.25 57.128906 753.019531 212.914062 753.019531 405.082031"/></g><path fill="#FFF" d="M 188.792969 573.863281 L 621.367188 573.863281 L 621.367188 325.199219 L 188.792969 325.199219 Z M 627.324219 585.742188 L 182.839844 585.742188 C 179.554688 585.742188 176.917969 583.070312 176.917969 579.816406 L 176.917969 319.246094 C 176.917969 315.996094 179.554688 313.324219 182.839844 313.324219 L 627.324219 313.324219 C 630.574219 313.324219 633.246094 315.996094 633.246094 319.246094 L 633.246094 579.816406 C 633.246094 583.070312 630.574219 585.742188 627.324219 585.742188"/><path fill="#FFF" d="M 223.5625 434.171875 L 316.425781 434.171875 L 316.425781 385.011719 L 223.5625 385.011719 Z M 322.378906 446.050781 L 217.609375 446.050781 C 214.324219 446.050781 211.65625 443.410156 211.65625 440.125 L 211.65625 379.058594 C 211.65625 375.804688 214.324219 373.136719 217.609375 373.136719 L 322.378906 373.136719 C 325.660156 373.136719 328.332031 375.804688 328.332031 379.058594 L 328.332031 440.125 C 328.332031 443.410156 325.660156 446.050781 322.378906 446.050781"/><path fill="#FFF" d="M 358.621094 434.171875 L 451.511719 434.171875 L 451.511719 385.011719 L 358.621094 385.011719 Z M 457.464844 446.050781 L 352.695312 446.050781 C 349.414062 446.050781 346.742188 443.410156 346.742188 440.125 L 346.742188 379.058594 C 346.742188 375.804688 349.414062 373.136719 352.695312 373.136719 L 457.464844 373.136719 C 460.75 373.136719 463.417969 375.804688 463.417969 379.058594 L 463.417969 440.125 C 463.417969 443.410156 460.75 446.050781 457.464844 446.050781"/><path fill="#FFF" d="M 493.707031 434.171875 L 586.601562 434.171875 L 586.601562 385.011719 L 493.707031 385.011719 Z M 592.554688 446.050781 L 487.785156 446.050781 C 484.5 446.050781 481.832031 443.410156 481.832031 440.125 L 481.832031 379.058594 C 481.832031 375.804688 484.5 373.136719 487.785156 373.136719 L 592.554688 373.136719 C 595.804688 373.136719 598.476562 375.804688 598.476562 379.058594 L 598.476562 440.125 C 598.476562 443.410156 595.804688 446.050781 592.554688 446.050781"/><path fill="#FFF" d="M 223.5625 529.703125 L 316.425781 529.703125 L 316.425781 480.574219 L 223.5625 480.574219 Z M 322.378906 541.613281 L 217.609375 541.613281 C 214.324219 541.613281 211.65625 538.941406 211.65625 535.65625 L 211.65625 474.621094 C 211.65625 471.335938 214.324219 468.667969 217.609375 468.667969 L 322.378906 468.667969 C 325.660156 468.667969 328.332031 471.335938 328.332031 474.621094 L 328.332031 535.65625 C 328.332031 538.941406 325.660156 541.613281 322.378906 541.613281"/><path fill="#FFF" d="M 358.621094 529.703125 L 451.511719 529.703125 L 451.511719 480.574219 L 358.621094 480.574219 Z M 457.464844 541.613281 L 352.695312 541.613281 C 349.414062 541.613281 346.742188 538.941406 346.742188 535.65625 L 346.742188 474.621094 C 346.742188 471.335938 349.414062 468.667969 352.695312 468.667969 L 457.464844 468.667969 C 460.75 468.667969 463.417969 471.335938 463.417969 474.621094 L 463.417969 535.65625 C 463.417969 538.941406 460.75 541.613281 457.464844 541.613281"/><path fill="#FFF" d="M 493.707031 529.703125 L 586.601562 529.703125 L 586.601562 480.574219 L 493.707031 480.574219 Z M 592.554688 541.613281 L 487.785156 541.613281 C 484.5 541.613281 481.832031 538.941406 481.832031 535.65625 L 481.832031 474.621094 C 481.832031 471.335938 484.5 468.667969 487.785156 468.667969 L 592.554688 468.667969 C 595.804688 468.667969 598.476562 471.335938 598.476562 474.621094 L 598.476562 535.65625 C 598.476562 538.941406 595.804688 541.613281 592.554688 541.613281"/><path fill="#FFF" d="M 589.636719 298.347656 L 238.199219 298.347656 C 230.285156 298.347656 223.871094 291.933594 223.871094 284.019531 C 223.871094 276.070312 230.285156 269.65625 238.199219 269.65625 L 589.636719 269.65625 C 597.554688 269.65625 604 276.070312 604 284.019531 C 604 291.933594 597.554688 298.347656 589.636719 298.347656 Z M 627.324219 224.421875 L 182.839844 224.421875 C 179.554688 224.421875 176.917969 227.09375 176.917969 230.34375 L 176.917969 337.628906 C 176.917969 340.945312 179.554688 343.582031 182.839844 343.582031 L 627.324219 343.582031 C 630.574219 343.582031 633.246094 340.945312 633.246094 337.628906 L 633.246094 230.34375 C 633.246094 227.09375 630.574219 224.421875 627.324219 224.421875"/><path fill="#FFF" d="M 366.507812 402.71875 C 373.59375 410.207031 377.277344 420.085938 383.261719 428.402344 C 386.300781 432.609375 393.328125 435.03125 397.253906 430.214844 C 404.5 421.285156 409.347656 410.789062 416.621094 401.796875 C 424.566406 391.976562 433.867188 383.355469 443.65625 375.46875 C 452.617188 368.226562 439.910156 355.703125 431.042969 362.855469 C 421.191406 370.804688 412.171875 379.488281 404.039062 389.183594 C 396.582031 398.054688 391.855469 408.765625 384.644531 417.601562 C 389.308594 418.214844 393.972656 418.796875 398.636719 419.414062 C 391.730469 409.808594 387.34375 398.820312 379.121094 390.105469 C 371.171875 381.757812 358.589844 394.371094 366.507812 402.71875"/><path fill="#FFF" d="M 501.59375 499.722656 C 508.683594 507.210938 512.335938 517.121094 518.320312 525.410156 C 521.359375 529.644531 528.386719 532.035156 532.3125 527.21875 C 539.585938 518.320312 544.433594 507.824219 551.707031 498.800781 C 559.625 489.011719 568.921875 480.359375 578.714844 472.472656 C 587.671875 465.261719 574.96875 452.707031 566.132812 459.859375 C 556.28125 467.808594 547.257812 476.523438 539.09375 486.21875 C 531.667969 495.058594 526.941406 505.769531 519.730469 514.636719 C 524.394531 515.21875 529.058594 515.832031 533.722656 516.417969 C 526.789062 506.8125 522.429688 495.824219 514.175781 487.140625 C 506.257812 478.761719 493.675781 491.40625 501.59375 499.722656"/><g clip-path="url(#b)"><path fill="#FFF" d="M 259.269531 494.617188 C 259.269531 498.933594 262.796875 502.457031 267.136719 502.457031 C 271.472656 502.457031 275.003906 498.933594 275.003906 494.617188 C 275.003906 490.292969 271.472656 486.769531 267.136719 486.769531 C 262.796875 486.769531 259.269531 490.292969 259.269531 494.617188 Z M 259.269531 494.617188"/></g><g clip-path="url(#c)"><path fill="#FFF" d="M 253.46875 517 L 253.46875 519.371094 C 253.46875 521.660156 255.335938 523.519531 257.628906 523.519531 L 276.644531 523.519531 C 278.9375 523.519531 280.804688 521.660156 280.804688 519.371094 L 280.804688 517 C 280.804688 509.484375 274.671875 503.367188 267.136719 503.367188 C 259.601562 503.367188 253.46875 509.484375 253.46875 517 Z M 253.46875 517"/></g><g clip-path="url(#d)"><path fill="#FFF" d="M 283.828125 504.375 L 283.828125 502.457031 L 285.746094 502.457031 C 286.730469 502.457031 287.53125 501.660156 287.53125 500.679688 C 287.53125 499.699219 286.730469 498.902344 285.746094 498.902344 L 283.828125 498.902344 L 283.828125 496.984375 C 283.828125 496.003906 283.027344 495.207031 282.042969 495.207031 C 281.058594 495.207031 280.261719 496.003906 280.261719 496.984375 L 280.261719 498.902344 L 278.339844 498.902344 C 277.355469 498.902344 276.558594 499.699219 276.558594 500.679688 C 276.558594 501.660156 277.355469 502.457031 278.339844 502.457031 L 280.261719 502.457031 L 280.261719 504.375 C 280.261719 505.355469 281.058594 506.152344 282.042969 506.152344 C 283.027344 506.152344 283.828125 505.355469 283.828125 504.375 Z M 283.828125 504.375"/></g></svg>