<svg xmlns="http://www.w3.org/2000/svg" width="810" viewBox="0 0 810 810" height="810" version="1.0"><defs><clipPath id="a"><path d="M 187.476562 374 L 474 374 L 474 631.25 L 187.476562 631.25 Z M 187.476562 374"/></clipPath></defs><path fill="#FFF" d="M-81 -81H891V891H-81z"/><path fill="#FFF" d="M-81 -81H891V891H-81z"/><path fill="#FFF" d="M-81 -81H891V891H-81z"/><path fill="#FF8A80" d="M 405.035156 60.785156 C 214.910156 60.785156 60.785156 214.910156 60.785156 405.035156 C 60.785156 595.160156 214.910156 749.285156 405.035156 749.285156 C 595.160156 749.285156 749.285156 595.160156 749.285156 405.035156 C 749.285156 214.910156 595.160156 60.785156 405.035156 60.785156"/><path fill="#FFF" d="M 605.71875 399.867188 C 604.765625 401.636719 603.175781 402.933594 601.25 403.511719 L 581.632812 409.382812 L 580.917969 393.863281 L 596.933594 389.066406 C 598.859375 388.492188 600.894531 388.699219 602.664062 389.65625 C 604.4375 390.613281 605.726562 392.199219 606.304688 394.132812 C 606.882812 396.058594 606.671875 398.09375 605.71875 399.867188 Z M 449.738281 448.875 L 445.421875 434.429688 L 566.046875 398.316406 L 566.757812 413.835938 Z M 400.9375 463.480469 L 384.347656 460.582031 L 396.621094 449.042969 L 430.992188 438.753906 L 435.308594 453.195312 Z M 620.734375 389.8125 C 619.007812 384.023438 615.125 379.257812 609.816406 376.390625 C 604.503906 373.523438 598.390625 372.898438 592.613281 374.632812 L 390.597656 435.117188 C 389.480469 435.449219 388.453125 436.042969 387.601562 436.839844 L 363.058594 459.921875 C 360.980469 461.878906 360.183594 464.839844 361 467.574219 C 361.816406 470.308594 364.113281 472.347656 366.917969 472.839844 L 400.097656 478.632812 C 400.523438 478.710938 400.957031 478.75 401.390625 478.75 C 402.125 478.75 402.847656 478.640625 403.550781 478.433594 L 567.46875 429.355469 L 568.175781 444.875 L 516.09375 460.46875 L 520.410156 474.910156 L 578.128906 457.628906 C 581.4375 456.636719 583.648438 453.515625 583.492188 450.066406 L 582.339844 424.902344 L 605.566406 417.949219 C 611.347656 416.214844 616.109375 412.339844 618.976562 407.023438 C 621.839844 401.707031 622.464844 395.597656 620.734375 389.8125"/><g clip-path="url(#a)"><path fill="#FFF" d="M 458.585938 616.132812 L 338.09375 616.132812 L 338.09375 510.628906 L 368.214844 510.628906 L 368.214844 548.308594 C 368.214844 552.46875 371.589844 555.84375 375.746094 555.84375 L 420.933594 555.84375 C 425.089844 555.84375 428.460938 552.46875 428.460938 548.308594 L 428.460938 510.628906 L 458.585938 510.628906 Z M 202.539062 510.628906 L 232.660156 510.628906 L 232.660156 548.308594 C 232.660156 552.46875 236.03125 555.84375 240.191406 555.84375 L 285.375 555.84375 C 289.535156 555.84375 292.90625 552.46875 292.90625 548.308594 L 292.90625 510.628906 L 323.03125 510.628906 L 323.03125 616.132812 L 202.539062 616.132812 Z M 247.722656 510.628906 L 277.847656 510.628906 L 277.847656 540.773438 L 247.722656 540.773438 Z M 202.539062 390.054688 L 232.660156 390.054688 L 232.660156 427.734375 C 232.660156 431.894531 236.03125 435.269531 240.191406 435.269531 L 285.375 435.269531 C 289.535156 435.269531 292.90625 431.894531 292.90625 427.734375 L 292.90625 390.054688 L 323.03125 390.054688 L 323.03125 495.558594 L 202.539062 495.558594 Z M 247.722656 390.054688 L 277.847656 390.054688 L 277.847656 420.199219 L 247.722656 420.199219 Z M 383.277344 510.628906 L 413.402344 510.628906 L 413.402344 540.773438 L 383.277344 540.773438 Z M 466.117188 495.558594 L 338.09375 495.558594 L 338.09375 382.519531 C 338.09375 378.355469 334.722656 374.980469 330.5625 374.980469 L 195.007812 374.980469 C 190.847656 374.980469 187.476562 378.355469 187.476562 382.519531 L 187.476562 623.667969 C 187.476562 627.832031 190.847656 631.203125 195.007812 631.203125 L 466.117188 631.203125 C 470.277344 631.203125 473.648438 627.832031 473.648438 623.667969 L 473.648438 503.09375 C 473.648438 498.929688 470.277344 495.558594 466.117188 495.558594"/></g><path fill="#FFF" d="M 428.460938 601.0625 L 443.523438 601.0625 L 443.523438 585.988281 L 428.460938 585.988281 L 428.460938 601.0625"/><path fill="#FFF" d="M 292.90625 601.0625 L 307.96875 601.0625 L 307.96875 585.988281 L 292.90625 585.988281 L 292.90625 601.0625"/><path fill="#FFF" d="M 292.90625 480.484375 L 307.96875 480.484375 L 307.96875 465.414062 L 292.90625 465.414062 L 292.90625 480.484375"/><path fill="#FFF" d="M 383.277344 224.261719 L 405.871094 224.261719 C 408.191406 224.261719 410.378906 223.191406 411.804688 221.363281 C 413.230469 219.535156 413.738281 217.152344 413.175781 214.898438 L 407.984375 194.121094 L 448.941406 194.121094 L 443.75 214.898438 C 443.1875 217.152344 443.695312 219.535156 445.121094 221.363281 C 446.546875 223.191406 448.734375 224.261719 451.054688 224.261719 L 473.648438 224.261719 L 473.648438 239.335938 L 383.277344 239.335938 Z M 307.96875 239.335938 C 307.96875 231.027344 314.726562 224.261719 323.03125 224.261719 L 368.214844 224.261719 L 368.214844 239.335938 L 330.5625 239.335938 C 326.402344 239.335938 323.03125 242.710938 323.03125 246.871094 L 323.03125 359.910156 L 338.09375 359.910156 L 338.09375 254.40625 L 518.832031 254.40625 L 518.832031 374.980469 L 533.894531 374.980469 L 533.894531 246.871094 C 533.894531 242.710938 530.523438 239.335938 526.363281 239.335938 L 488.710938 239.335938 L 488.710938 224.261719 L 533.894531 224.261719 C 542.199219 224.261719 548.957031 231.027344 548.957031 239.335938 L 548.957031 367.445312 L 564.019531 367.445312 L 564.019531 239.335938 C 564.019531 222.714844 550.503906 209.191406 533.894531 209.191406 L 460.699219 209.191406 L 465.894531 188.414062 C 466.457031 186.160156 465.949219 183.777344 464.519531 181.949219 C 463.09375 180.117188 460.90625 179.046875 458.585938 179.046875 L 398.339844 179.046875 C 396.019531 179.046875 393.832031 180.117188 392.40625 181.949219 C 390.976562 183.777344 390.46875 186.160156 391.03125 188.414062 L 396.226562 209.191406 L 323.03125 209.191406 C 306.421875 209.191406 292.90625 222.714844 292.90625 239.335938 L 292.90625 359.910156 L 307.96875 359.910156 L 307.96875 239.335938"/><path fill="#FFF" d="M 548.957031 548.308594 C 548.957031 556.617188 542.199219 563.382812 533.894531 563.382812 L 488.710938 563.382812 L 488.710938 578.453125 L 533.894531 578.453125 C 550.503906 578.453125 564.019531 564.929688 564.019531 548.308594 L 564.019531 480.484375 L 548.957031 480.484375 L 548.957031 548.308594"/><path fill="#FFF" d="M 533.894531 540.773438 L 533.894531 488.019531 L 518.832031 488.019531 L 518.832031 533.238281 L 488.710938 533.238281 L 488.710938 548.308594 L 526.363281 548.308594 C 530.523438 548.308594 533.894531 544.933594 533.894531 540.773438"/><path fill="#FFF" d="M 383.277344 299.621094 L 368.214844 299.621094 L 368.214844 284.550781 L 383.277344 284.550781 Z M 398.339844 277.015625 C 398.339844 272.851562 394.96875 269.480469 390.808594 269.480469 L 360.683594 269.480469 C 356.527344 269.480469 353.15625 272.851562 353.15625 277.015625 L 353.15625 307.160156 C 353.15625 311.320312 356.527344 314.695312 360.683594 314.695312 L 390.808594 314.695312 C 394.96875 314.695312 398.339844 311.320312 398.339844 307.160156 L 398.339844 277.015625"/><path fill="#FFF" d="M 383.277344 367.445312 L 368.214844 367.445312 L 368.214844 352.375 L 383.277344 352.375 Z M 390.808594 337.300781 L 360.683594 337.300781 C 356.527344 337.300781 353.15625 340.675781 353.15625 344.839844 L 353.15625 374.980469 C 353.15625 379.144531 356.527344 382.519531 360.683594 382.519531 L 390.808594 382.519531 C 394.96875 382.519531 398.339844 379.144531 398.339844 374.980469 L 398.339844 344.839844 C 398.339844 340.675781 394.96875 337.300781 390.808594 337.300781"/><path fill="#FFF" d="M 413.402344 269.480469 L 413.402344 284.550781 L 428.460938 284.550781 L 428.460938 269.480469 L 413.402344 269.480469"/><path fill="#FFF" d="M 503.769531 299.621094 L 413.402344 299.621094 L 413.402344 314.695312 L 503.769531 314.695312 L 503.769531 299.621094"/><path fill="#FFF" d="M 503.769531 269.480469 L 443.523438 269.480469 L 443.523438 284.550781 L 503.769531 284.550781 L 503.769531 269.480469"/><path fill="#FFF" d="M 413.402344 337.300781 L 413.402344 352.375 L 428.460938 352.375 L 428.460938 337.300781 L 413.402344 337.300781"/><path fill="#FFF" d="M 413.402344 382.519531 L 503.769531 382.519531 L 503.769531 367.445312 L 413.402344 367.445312 L 413.402344 382.519531"/><path fill="#FFF" d="M 503.769531 337.300781 L 443.523438 337.300781 L 443.523438 352.375 L 503.769531 352.375 L 503.769531 337.300781"/></svg>