<svg xmlns="http://www.w3.org/2000/svg" width="810" viewBox="0 0 810 810" height="810" version="1.0"><defs><clipPath id="a"><path d="M 336 517 L 363 517 L 363 570 L 336 570 Z M 336 517"/></clipPath><clipPath id="b"><path d="M 316.582031 538.226562 L 364.210938 508.53125 L 385.84375 543.230469 L 338.214844 572.925781 Z M 316.582031 538.226562"/></clipPath><clipPath id="c"><path d="M 316.582031 538.226562 L 364.210938 508.53125 L 385.84375 543.230469 L 338.214844 572.925781 Z M 316.582031 538.226562"/></clipPath><clipPath id="d"><path d="M 330 514 L 357 514 L 357 558 L 330 558 Z M 330 514"/></clipPath><clipPath id="e"><path d="M 316.582031 538.226562 L 364.210938 508.53125 L 385.84375 543.230469 L 338.214844 572.925781 Z M 316.582031 538.226562"/></clipPath><clipPath id="f"><path d="M 316.582031 538.226562 L 364.210938 508.53125 L 385.84375 543.230469 L 338.214844 572.925781 Z M 316.582031 538.226562"/></clipPath><clipPath id="g"><path d="M 348 518 L 371 518 L 371 566 L 348 566 Z M 348 518"/></clipPath><clipPath id="h"><path d="M 316.582031 538.226562 L 364.210938 508.53125 L 385.84375 543.230469 L 338.214844 572.925781 Z M 316.582031 538.226562"/></clipPath><clipPath id="i"><path d="M 316.582031 538.226562 L 364.210938 508.53125 L 385.84375 543.230469 L 338.214844 572.925781 Z M 316.582031 538.226562"/></clipPath><clipPath id="j"><path d="M 123 378 L 313 378 L 313 607 L 123 607 Z M 123 378"/></clipPath><clipPath id="k"><path d="M 120.320312 378.359375 L 304.484375 368.796875 L 316.667969 603.40625 L 132.503906 612.96875 Z M 120.320312 378.359375"/></clipPath><clipPath id="l"><path d="M 120.320312 378.359375 L 304.484375 368.796875 L 316.667969 603.40625 L 132.503906 612.96875 Z M 120.320312 378.359375"/></clipPath></defs><path fill="#FFF" d="M-81 -81H891V891H-81z"/><path fill="#FFF" d="M-81 -81H891V891H-81z"/><path fill="#FFF" d="M-81 -81H891V891H-81z"/><path fill="#FF8A80" d="M 366.5 197.140625 C 365.074219 197.140625 363.648438 197.210938 362.226562 197.351562 C 360.804688 197.492188 359.394531 197.703125 357.992188 197.980469 C 356.589844 198.261719 355.207031 198.605469 353.839844 199.023438 C 352.472656 199.4375 351.128906 199.917969 349.8125 200.464844 C 348.492188 201.011719 347.203125 201.625 345.941406 202.296875 C 344.683594 202.972656 343.457031 203.707031 342.269531 204.5 C 341.082031 205.296875 339.9375 206.144531 338.832031 207.054688 C 337.730469 207.960938 336.671875 208.917969 335.664062 209.929688 C 334.652344 210.941406 333.695312 212 332.789062 213.101562 C 331.882812 214.207031 331.03125 215.355469 330.238281 216.542969 C 329.445312 217.730469 328.710938 218.957031 328.039062 220.21875 C 327.367188 221.476562 326.753906 222.769531 326.207031 224.089844 C 325.664062 225.410156 325.183594 226.753906 324.765625 228.121094 C 324.351562 229.488281 324.007812 230.875 323.726562 232.277344 C 323.449219 233.675781 323.238281 235.089844 323.097656 236.511719 C 322.960938 237.933594 322.890625 239.359375 322.890625 240.789062 C 322.890625 242.21875 322.960938 243.644531 323.097656 245.066406 C 323.238281 246.488281 323.449219 247.902344 323.726562 249.304688 C 324.003906 250.703125 324.351562 252.089844 324.765625 253.457031 C 325.183594 254.824219 325.664062 256.167969 326.207031 257.488281 C 326.753906 258.808594 327.367188 260.101562 328.039062 261.363281 C 328.710938 262.621094 329.445312 263.847656 330.238281 265.035156 C 331.03125 266.222656 331.882812 267.371094 332.789062 268.476562 C 333.695312 269.582031 334.652344 270.636719 335.664062 271.648438 C 336.671875 272.660156 337.730469 273.617188 338.832031 274.527344 C 339.9375 275.433594 341.082031 276.285156 342.269531 277.078125 C 343.457031 277.871094 344.683594 278.605469 345.941406 279.28125 C 347.203125 279.953125 348.492188 280.566406 349.8125 281.113281 C 351.128906 281.660156 352.472656 282.140625 353.839844 282.554688 C 355.207031 282.972656 356.589844 283.320312 357.992188 283.597656 C 359.394531 283.878906 360.804688 284.085938 362.226562 284.226562 C 363.648438 284.367188 365.074219 284.4375 366.5 284.4375 C 367.929688 284.4375 369.355469 284.367188 370.777344 284.226562 C 372.199219 284.085938 373.609375 283.878906 375.011719 283.597656 C 376.410156 283.320312 377.796875 282.972656 379.164062 282.554688 C 380.53125 282.140625 381.871094 281.660156 383.191406 281.113281 C 384.511719 280.566406 385.800781 279.953125 387.0625 279.28125 C 388.320312 278.605469 389.542969 277.871094 390.734375 277.078125 C 391.921875 276.285156 393.066406 275.433594 394.171875 274.527344 C 395.273438 273.617188 396.332031 272.660156 397.339844 271.648438 C 398.351562 270.636719 399.308594 269.582031 400.214844 268.476562 C 401.121094 267.371094 401.972656 266.222656 402.765625 265.035156 C 403.558594 263.847656 404.292969 262.621094 404.964844 261.363281 C 405.636719 260.101562 406.246094 258.808594 406.792969 257.488281 C 407.339844 256.167969 407.820312 254.824219 408.234375 253.457031 C 408.652344 252.089844 408.996094 250.703125 409.277344 249.304688 C 409.554688 247.902344 409.765625 246.488281 409.902344 245.066406 C 410.042969 243.644531 410.113281 242.21875 410.113281 240.789062 C 410.113281 239.359375 410.042969 237.933594 409.902344 236.511719 C 409.765625 235.089844 409.554688 233.675781 409.277344 232.277344 C 408.996094 230.875 408.652344 229.488281 408.234375 228.121094 C 407.820312 226.753906 407.339844 225.410156 406.792969 224.089844 C 406.246094 222.769531 405.636719 221.476562 404.964844 220.21875 C 404.292969 218.957031 403.558594 217.730469 402.765625 216.542969 C 401.972656 215.355469 401.121094 214.207031 400.214844 213.101562 C 399.308594 212 398.351562 210.941406 397.339844 209.929688 C 396.332031 208.917969 395.273438 207.960938 394.171875 207.054688 C 393.066406 206.144531 391.921875 205.296875 390.734375 204.5 C 389.542969 203.707031 388.320312 202.972656 387.0625 202.296875 C 385.800781 201.625 384.511719 201.011719 383.191406 200.464844 C 381.871094 199.917969 380.53125 199.4375 379.164062 199.023438 C 377.796875 198.605469 376.410156 198.261719 375.011719 197.980469 C 373.609375 197.703125 372.199219 197.492188 370.777344 197.351562 C 369.355469 197.210938 367.929688 197.140625 366.5 197.140625 Z M 390.09375 294.140625 C 388.136719 294.140625 386.132812 294.429688 383.980469 295.011719 C 383.660156 295.03125 383.351562 295.074219 383.03125 295.164062 L 329.746094 309.332031 C 319.53125 312.050781 310.894531 318.777344 305.777344 328.03125 C 288.800781 358.734375 248.042969 427.96875 248.042969 427.96875 C 242.484375 438.289062 245.636719 450.988281 255.386719 457.484375 C 259.148438 459.996094 263.445312 461.292969 267.847656 461.292969 C 269.554688 461.292969 271.28125 461.105469 273 460.707031 C 279.039062 459.308594 284.304688 455.433594 287.425781 450.078125 L 326.226562 383.730469 L 336.28125 421.28125 L 309.636719 483.441406 C 307.175781 489.183594 307.03125 495.664062 309.222656 501.515625 L 337.945312 578.148438 C 340.699219 585.480469 346.453125 591.632812 353.964844 593.835938 C 361.34375 595.996094 368.90625 594.683594 375.023438 590.40625 C 384.027344 584.109375 387.4375 572.066406 383.335938 561.136719 L 358.039062 493.59375 L 378.734375 445.265625 L 423.023438 578.261719 C 426.332031 588.183594 435.578125 594.859375 446.03125 594.859375 C 450.0625 594.859375 454.097656 593.824219 457.695312 591.863281 C 467.816406 586.375 472.546875 573.484375 468.675781 561.875 L 445.3125 491.738281 L 467.332031 469.707031 L 471.273438 475.882812 C 476.234375 483.652344 484.265625 489.121094 493.3125 490.90625 L 526.46875 497.441406 L 526.46875 500.871094 C 526.46875 510.726562 529.824219 520 535.464844 527.449219 L 519.480469 575.4375 L 507.078125 575.4375 C 506.4375 575.429688 505.800781 575.484375 505.167969 575.601562 C 504.535156 575.71875 503.921875 575.898438 503.328125 576.136719 C 502.730469 576.378906 502.164062 576.671875 501.625 577.027344 C 501.089844 577.378906 500.59375 577.78125 500.132812 578.230469 C 499.675781 578.683594 499.269531 579.175781 498.910156 579.707031 C 498.550781 580.238281 498.246094 580.800781 497.996094 581.394531 C 497.75 581.988281 497.5625 582.597656 497.4375 583.230469 C 497.308594 583.859375 497.246094 584.496094 497.246094 585.140625 C 497.246094 585.78125 497.308594 586.417969 497.4375 587.046875 C 497.5625 587.679688 497.75 588.289062 497.996094 588.882812 C 498.246094 589.476562 498.550781 590.039062 498.910156 590.570312 C 499.269531 591.101562 499.675781 591.59375 500.132812 592.046875 C 500.59375 592.496094 501.089844 592.898438 501.625 593.25 C 502.164062 593.605469 502.730469 593.898438 503.328125 594.140625 C 503.921875 594.378906 504.535156 594.558594 505.167969 594.675781 C 505.800781 594.792969 506.4375 594.847656 507.078125 594.839844 L 526.46875 594.839844 C 527.488281 594.839844 528.480469 594.683594 529.449219 594.371094 C 530.417969 594.058594 531.3125 593.605469 532.140625 593.007812 C 532.964844 592.414062 533.679688 591.707031 534.285156 590.886719 C 534.886719 590.066406 535.347656 589.171875 535.671875 588.207031 L 551.597656 540.390625 C 553.128906 541.085938 554.664062 541.78125 556.292969 542.285156 C 565.628906 545.15625 576.125 546.8125 585.054688 546.8125 L 586.117188 546.8125 C 589.207031 546.8125 592.261719 546.535156 595.300781 546.148438 L 578.957031 575.4375 L 565.25 575.4375 C 564.605469 575.429688 563.96875 575.484375 563.339844 575.601562 C 562.707031 575.71875 562.09375 575.898438 561.496094 576.136719 C 560.902344 576.378906 560.332031 576.671875 559.796875 577.027344 C 559.257812 577.378906 558.761719 577.78125 558.304688 578.230469 C 557.847656 578.683594 557.4375 579.175781 557.078125 579.707031 C 556.71875 580.238281 556.414062 580.800781 556.167969 581.394531 C 555.917969 581.988281 555.730469 582.597656 555.605469 583.230469 C 555.480469 583.859375 555.417969 584.496094 555.417969 585.140625 C 555.417969 585.78125 555.480469 586.417969 555.605469 587.046875 C 555.730469 587.679688 555.917969 588.289062 556.167969 588.882812 C 556.414062 589.476562 556.71875 590.039062 557.078125 590.570312 C 557.4375 591.101562 557.847656 591.59375 558.304688 592.046875 C 558.761719 592.496094 559.257812 592.898438 559.796875 593.25 C 560.332031 593.605469 560.902344 593.898438 561.496094 594.140625 C 562.09375 594.378906 562.707031 594.558594 563.339844 594.675781 C 563.96875 594.792969 564.605469 594.847656 565.25 594.839844 L 584.640625 594.839844 C 585.5 594.839844 586.347656 594.726562 587.179688 594.5 C 588.011719 594.273438 588.800781 593.941406 589.542969 593.507812 C 590.289062 593.070312 590.960938 592.542969 591.566406 591.929688 C 592.167969 591.3125 592.683594 590.628906 593.101562 589.875 L 622.1875 537.777344 C 623.484375 537.203125 624.730469 536.699219 626.050781 536.109375 C 644.539062 527.816406 657.105469 523.179688 662.710938 534.421875 C 664.253906 537.515625 668.472656 542.824219 672.652344 547.757812 C 672.214844 550.394531 671.894531 553.117188 671.894531 556.039062 C 671.894531 553.613281 671.8125 555.878906 669.679688 558.367188 C 667.546875 560.859375 664.226562 563.953125 660.835938 566.78125 C 655.128906 571.539062 651.003906 574.277344 649.304688 575.4375 L 633.113281 575.4375 C 632.472656 575.429688 631.835938 575.484375 631.203125 575.601562 C 630.570312 575.71875 629.957031 575.898438 629.363281 576.136719 C 628.765625 576.378906 628.199219 576.671875 627.660156 577.027344 C 627.125 577.378906 626.625 577.78125 626.167969 578.230469 C 625.710938 578.683594 625.304688 579.175781 624.945312 579.707031 C 624.582031 580.238281 624.28125 580.800781 624.03125 581.394531 C 623.785156 581.988281 623.597656 582.597656 623.472656 583.230469 C 623.34375 583.859375 623.28125 584.496094 623.28125 585.140625 C 623.28125 585.78125 623.34375 586.417969 623.472656 587.046875 C 623.597656 587.679688 623.785156 588.289062 624.03125 588.882812 C 624.28125 589.476562 624.582031 590.039062 624.945312 590.570312 C 625.304688 591.101562 625.710938 591.59375 626.167969 592.046875 C 626.625 592.496094 627.125 592.898438 627.660156 593.25 C 628.199219 593.605469 628.765625 593.898438 629.363281 594.140625 C 629.957031 594.378906 630.570312 594.558594 631.203125 594.675781 C 631.835938 594.792969 632.472656 594.847656 633.113281 594.839844 L 652.503906 594.839844 C 654.460938 594.839844 656.253906 594.296875 657.882812 593.210938 C 657.882812 593.210938 665.496094 588.140625 673.257812 581.671875 C 677.136719 578.4375 681.089844 574.863281 684.410156 570.988281 C 687.730469 567.109375 691.285156 563.3125 691.285156 556.039062 C 691.285156 548.203125 693.796875 542.460938 697.550781 536.640625 C 699.679688 533.554688 702.070312 530.601562 704.726562 527.5625 C 712.046875 519.210938 720.332031 509.75 720.332031 493.445312 C 720.332031 492.480469 720.210938 491.605469 720.160156 490.675781 C 720.203125 489.824219 720.332031 489.019531 720.332031 488.140625 C 720.351562 486.550781 720.003906 485.046875 719.289062 483.628906 C 718.730469 480.917969 718.003906 478.351562 717.015625 476.015625 C 717.171875 475.878906 717.324219 475.742188 717.472656 475.597656 C 725.824219 467.253906 729.457031 455.242188 727.148438 443.65625 L 725.953125 437.628906 C 721.757812 416.542969 700.488281 403.09375 679.636719 408.304688 L 680.773438 408.074219 C 672.617188 409.121094 667.140625 407.664062 663.65625 406.164062 C 660.171875 404.660156 659.359375 403.679688 659.359375 403.679688 C 658.445312 402.742188 657.386719 402.019531 656.179688 401.507812 C 654.976562 401 653.71875 400.746094 652.410156 400.746094 C 651.445312 400.746094 650.5 400.886719 649.578125 401.167969 C 648.65625 401.449219 647.796875 401.859375 646.996094 402.398438 C 646.195312 402.9375 645.492188 403.582031 644.882812 404.332031 C 644.277344 405.078125 643.789062 405.902344 643.429688 406.792969 C 643.066406 407.6875 642.839844 408.617188 642.753906 409.578125 C 642.667969 410.539062 642.722656 411.492188 642.921875 412.433594 C 643.121094 413.378906 643.449219 414.273438 643.914062 415.121094 C 644.378906 415.964844 644.957031 416.722656 645.648438 417.398438 C 645.648438 417.398438 649.675781 421.273438 655.988281 423.988281 C 662.296875 426.707031 671.578125 428.8125 683.21875 427.324219 C 683.601562 427.277344 683.980469 427.207031 684.351562 427.117188 C 694.722656 424.527344 704.839844 430.941406 706.925781 441.417969 C 706.929688 441.425781 706.9375 441.433594 706.941406 441.4375 L 708.136719 447.464844 C 709.054688 452.113281 707.769531 456.792969 704.859375 460.441406 C 693.472656 451.65625 678.117188 448.695312 667.046875 448.695312 C 635.140625 448.695312 616.1875 458 602.363281 464.796875 C 586.394531 472.636719 579.113281 476.207031 563.960938 461.046875 L 557.085938 453.695312 L 565.25 429.9375 L 526.164062 439.640625 L 526.65625 439.980469 C 504.320312 439.242188 501.335938 440.066406 501.078125 440.246094 L 462.296875 449.945312 C 460.785156 450.324219 459.535156 451.40625 458.964844 452.863281 C 458.382812 454.316406 458.546875 455.949219 459.378906 457.257812 L 466.160156 467.886719 L 432.925781 454.585938 L 421.8125 421.242188 L 400.757812 342.640625 L 451.671875 342.640625 L 508.15625 374.03125 C 519.238281 380.191406 533.796875 377.867188 541.050781 367.457031 C 549.378906 355.496094 545.382812 339.230469 532.964844 332.332031 L 469.71875 297.1875 C 466.121094 295.179688 462.082031 294.140625 457.960938 294.140625 Z M 448.304688 371.605469 C 447.945312 371.628906 447.589844 371.667969 447.234375 371.726562 C 446.882812 371.789062 446.535156 371.867188 446.1875 371.96875 C 445.84375 372.066406 445.507812 372.183594 445.175781 372.320312 C 444.84375 372.457031 444.519531 372.613281 444.207031 372.785156 C 443.890625 372.957031 443.589844 373.144531 443.292969 373.351562 C 443 373.558594 442.71875 373.78125 442.453125 374.015625 C 442.183594 374.253906 441.929688 374.507812 441.6875 374.773438 C 441.445312 375.039062 441.21875 375.316406 441.011719 375.605469 C 440.800781 375.898438 440.605469 376.199219 440.429688 376.511719 C 440.253906 376.824219 440.09375 377.144531 439.953125 377.472656 C 439.8125 377.804688 439.691406 378.140625 439.585938 378.484375 C 439.484375 378.824219 439.398438 379.175781 439.332031 379.527344 C 439.269531 379.878906 439.222656 380.234375 439.195312 380.59375 C 439.171875 380.949219 439.164062 381.308594 439.179688 381.667969 C 439.191406 382.023438 439.226562 382.382812 439.28125 382.738281 C 439.332031 383.089844 439.40625 383.441406 439.496094 383.789062 L 449.191406 422.589844 C 449.347656 423.207031 449.558594 423.804688 449.832031 424.382812 C 450.101562 424.957031 450.425781 425.503906 450.804688 426.015625 C 451.183594 426.527344 451.609375 427 452.082031 427.429688 C 452.554688 427.859375 453.0625 428.238281 453.609375 428.566406 C 454.152344 428.894531 454.726562 429.164062 455.328125 429.382812 C 455.925781 429.597656 456.542969 429.753906 457.171875 429.847656 C 457.800781 429.941406 458.433594 429.972656 459.070312 429.941406 C 459.707031 429.910156 460.335938 429.820312 460.953125 429.664062 C 461.574219 429.511719 462.171875 429.296875 462.746094 429.023438 C 463.324219 428.753906 463.867188 428.425781 464.378906 428.046875 C 464.890625 427.667969 465.363281 427.242188 465.789062 426.769531 C 466.21875 426.296875 466.597656 425.789062 466.921875 425.242188 C 467.25 424.695312 467.523438 424.121094 467.738281 423.519531 C 467.953125 422.921875 468.105469 422.304688 468.199219 421.675781 C 468.292969 421.042969 468.324219 420.410156 468.292969 419.773438 C 468.261719 419.136719 468.167969 418.507812 468.015625 417.890625 L 458.320312 379.089844 C 458.199219 378.578125 458.039062 378.078125 457.835938 377.589844 C 457.636719 377.101562 457.398438 376.636719 457.121094 376.1875 C 456.84375 375.738281 456.53125 375.316406 456.183594 374.921875 C 455.835938 374.523438 455.460938 374.15625 455.054688 373.820312 C 454.648438 373.484375 454.21875 373.183594 453.765625 372.917969 C 453.308594 372.652344 452.835938 372.425781 452.34375 372.238281 C 451.851562 372.050781 451.347656 371.902344 450.832031 371.796875 C 450.316406 371.691406 449.796875 371.628906 449.269531 371.605469 C 448.945312 371.589844 448.625 371.589844 448.304688 371.605469 Z M 506.644531 391.023438 C 505.773438 391.070312 504.925781 391.230469 504.101562 391.5 C 503.273438 391.773438 502.5 392.152344 501.773438 392.632812 C 501.050781 393.113281 500.402344 393.683594 499.832031 394.339844 C 499.257812 394.996094 498.785156 395.714844 498.40625 396.5 L 488.710938 415.902344 C 488.425781 416.46875 488.199219 417.0625 488.03125 417.675781 C 487.859375 418.292969 487.753906 418.917969 487.707031 419.550781 C 487.664062 420.1875 487.679688 420.824219 487.757812 421.453125 C 487.835938 422.085938 487.976562 422.707031 488.179688 423.3125 C 488.378906 423.914062 488.636719 424.496094 488.953125 425.050781 C 489.269531 425.601562 489.636719 426.121094 490.054688 426.601562 C 490.46875 427.082031 490.929688 427.519531 491.433594 427.910156 C 491.9375 428.300781 492.472656 428.640625 493.042969 428.925781 C 493.613281 429.210938 494.207031 429.4375 494.820312 429.605469 C 495.433594 429.773438 496.058594 429.878906 496.695312 429.925781 C 497.328125 429.96875 497.964844 429.953125 498.597656 429.871094 C 499.226562 429.792969 499.847656 429.652344 500.449219 429.449219 C 501.054688 429.246094 501.632812 428.988281 502.1875 428.671875 C 502.738281 428.355469 503.257812 427.988281 503.738281 427.570312 C 504.21875 427.152344 504.65625 426.691406 505.042969 426.1875 C 505.433594 425.683594 505.773438 425.148438 506.054688 424.578125 L 515.75 405.175781 C 516.144531 404.417969 516.433594 403.625 516.613281 402.789062 C 516.796875 401.953125 516.867188 401.109375 516.828125 400.257812 C 516.789062 399.40625 516.636719 398.570312 516.378906 397.757812 C 516.117188 396.945312 515.757812 396.179688 515.296875 395.460938 C 514.832031 394.742188 514.285156 394.097656 513.652344 393.523438 C 513.019531 392.949219 512.324219 392.46875 511.566406 392.082031 C 510.804688 391.691406 510.007812 391.40625 509.171875 391.226562 C 508.339844 391.046875 507.496094 390.980469 506.644531 391.023438 Z M 506.644531 391.023438"/><g clip-path="url(#a)"><g clip-path="url(#b)"><g clip-path="url(#c)"><path fill="#FFF" d="M 362.476562 517.019531 C 361.941406 517.734375 361.804688 518.59375 360.933594 518.914062 C 360.667969 519.011719 360.464844 519.289062 360.28125 519.542969 C 359.261719 521.152344 357.691406 522.296875 356.609375 523.832031 C 355.394531 526.601562 353.222656 528.769531 351.949219 531.507812 C 351.34375 532.792969 350.421875 533.898438 349.855469 535.207031 C 349.53125 535.855469 349.136719 536.4375 348.621094 536.964844 C 347.558594 538 347.160156 539.648438 346.121094 540.671875 C 344.515625 541.660156 344.429688 545.785156 342.738281 547.570312 C 340.898438 550.34375 339.65625 553.523438 339.09375 556.824219 C 337.914062 560.863281 336.171875 562.859375 336.703125 567.214844 C 336.796875 567.703125 336.191406 569.640625 336.292969 569.085938 C 336.179688 567.769531 335.859375 566.511719 336.191406 565.1875 C 336.367188 562.488281 336.933594 559.449219 337.699219 556.828125 C 338.203125 555.132812 338.21875 553.207031 339.121094 551.667969 C 339.847656 550.363281 339.167969 549.089844 340.496094 548.160156 C 341.253906 547.632812 341.628906 546.730469 342.191406 546.011719 C 342.695312 544.597656 342.519531 542.933594 343.570312 541.6875 C 343.738281 541.453125 343.933594 541.1875 343.78125 540.839844 C 343.667969 540.566406 343.863281 540.363281 343.988281 540.152344 C 344.941406 538.34375 345.996094 536.65625 347.300781 535.089844 C 348.511719 533.710938 350.707031 532.335938 350.96875 530.433594 C 350.597656 529.902344 351.5625 528.585938 351.839844 528.261719 C 355.609375 524.007812 357.738281 520.1875 362.476562 517.019531"/></g></g></g><g clip-path="url(#d)"><g clip-path="url(#e)"><g clip-path="url(#f)"><path fill="#FFF" d="M 356.027344 514.300781 C 353.367188 516.632812 352.003906 519.613281 349.484375 521.972656 C 348.691406 522.5625 348.40625 523.632812 347.609375 524.179688 C 346.597656 524.667969 346.007812 525.582031 345.316406 526.394531 C 344.203125 527.289062 343.230469 528.554688 342.746094 529.878906 C 342.34375 531.382812 341.046875 532.429688 340.125 533.65625 C 339.414062 534.472656 338.355469 535.015625 338.4375 536.265625 C 338.441406 536.5 338.304688 536.691406 338.164062 536.867188 C 337.410156 538.074219 335.921875 538.695312 335.796875 540.261719 C 335.355469 541.144531 334.582031 541.921875 334.117188 542.832031 C 333.953125 543.058594 333.976562 543.296875 334.058594 543.546875 C 334.175781 544.132812 334.140625 544.933594 333.714844 545.363281 C 332.195312 546.308594 332.554688 548.246094 331.976562 549.707031 C 331.542969 551.015625 331.324219 552.351562 331.464844 553.738281 C 331.445312 553.980469 331.75 556.210938 331.4375 557.421875 C 331.28125 558.039062 330.972656 552.046875 330.882812 551.394531 C 331.164062 549.582031 330.667969 548.945312 330.984375 548.09375 C 331.285156 546.71875 331.074219 546.328125 331.65625 545.0625 C 332.433594 544.601562 332.390625 544.46875 332.578125 543.644531 C 332.804688 542.898438 333.011719 542.15625 333.550781 541.546875 C 334.210938 540.40625 334.105469 538.917969 334.992188 537.84375 C 335.109375 537.65625 335.214844 537.441406 335.488281 537.472656 C 336.234375 537.597656 337.5 534.222656 337.953125 533.5 C 338.265625 532.753906 338.625 533.671875 338.898438 533.015625 C 339.175781 532.367188 339.640625 531.847656 340.039062 531.285156 C 340.816406 530.527344 341.484375 527.207031 342.484375 527.3125 C 342.703125 527.363281 342.773438 527.1875 342.847656 527.046875 C 343.585938 525.9375 344.324219 524.695312 345.5 524.019531 C 346.75 523.414062 346.875 521.84375 348.121094 521.222656 C 349.292969 520.664062 349.742188 519.253906 350.742188 518.46875 C 352.429688 517.019531 353.847656 515.015625 356.027344 514.300781"/></g></g></g><g clip-path="url(#g)"><g clip-path="url(#h)"><g clip-path="url(#i)"><path fill="#FFF" d="M 348.984375 562.53125 C 348.597656 560.933594 349.070312 559.222656 349.117188 557.574219 C 348.765625 556.289062 349.507812 555.214844 349.734375 554.003906 C 349.753906 553.28125 349.996094 552.636719 350.417969 552.066406 C 351.605469 550.703125 351.101562 548.859375 351.757812 547.304688 C 352.238281 546.394531 352.304688 545.292969 352.910156 544.449219 C 353.8125 543.304688 354.398438 541.988281 354.921875 540.636719 C 355.378906 539.46875 355.144531 538.089844 356.066406 537.125 C 357.792969 534.335938 359.78125 531.679688 361.601562 528.925781 C 362.507812 527.558594 363.777344 526.460938 364.425781 524.929688 C 365.492188 523.328125 367.230469 522.257812 368.375 520.679688 C 368.484375 520.554688 370.5 518.648438 370.441406 518.863281 C 370.316406 519.308594 367.785156 522.003906 367.546875 522.359375 C 366.480469 523.453125 366.101562 524.953125 365.265625 526.191406 C 364.789062 526.84375 364.445312 527.570312 364.046875 528.273438 C 363.085938 529.976562 361.476562 531.378906 360.355469 533.304688 C 358.40625 536.640625 358.011719 536.226562 356.835938 539.011719 C 355.984375 541.105469 355.949219 543.605469 354.273438 545.273438 C 353.453125 546.117188 353 547.128906 352.929688 548.335938 C 352.804688 550.59375 351.851562 552.707031 351.238281 554.863281 C 350.734375 556.359375 349.765625 557.707031 349.6875 559.332031 C 349.613281 560.414062 349.332031 564.296875 349.5625 565.394531 C 349.636719 565.820312 349.101562 563.183594 348.984375 562.53125"/></g></g></g><g clip-path="url(#j)"><g clip-path="url(#k)"><g clip-path="url(#l)"><path fill="#FF8A80" d="M 272.015625 524.398438 C 274.605469 522.816406 277.5 524.496094 275.171875 526.730469 C 274.691406 527.191406 274.171875 527.644531 273.6875 527.679688 C 272.640625 527.753906 272.914062 527.171875 272.699219 526.28125 C 272.40625 525.082031 272.316406 525.5625 272.015625 524.398438 Z M 268.871094 527.714844 C 268.699219 526.125 269.179688 525.621094 270.613281 525.34375 C 271.023438 525.847656 270.875 524.796875 271.21875 526.371094 C 271.632812 528.269531 270.230469 528.273438 268.871094 527.714844 Z M 258.226562 527.628906 C 256.183594 528.65625 256.519531 528.085938 254.355469 527.769531 C 254.597656 526.351562 254.621094 527.441406 254.972656 526.15625 C 255.300781 524.957031 254.847656 525.390625 255.648438 524.394531 C 256.652344 524.535156 256.695312 524.660156 257.335938 525.410156 C 257.875 526.039062 258.195312 526.5 258.226562 527.628906 Z M 253.421875 523.136719 C 253.472656 524.457031 253.148438 525.558594 252.167969 526.363281 C 250.714844 525.917969 249.546875 525.285156 249.445312 523.34375 C 250.679688 522.441406 252 522.515625 253.421875 523.136719 Z M 251.828125 600.230469 C 251.164062 599.367188 251.667969 599.675781 251.789062 599.496094 C 252.140625 600 252.546875 598.921875 251.828125 600.230469 Z M 201.398438 584.957031 C 202.144531 584.0625 201.269531 584.664062 202.503906 584.417969 C 201.800781 586.265625 203.007812 585.910156 200.878906 586.101562 C 201.089844 585.527344 201.070312 585.347656 201.398438 584.957031 Z M 130.691406 458.246094 L 129.648438 458.578125 C 129.570312 458.605469 129.476562 458.640625 129.40625 458.671875 C 129.332031 458.703125 129.230469 458.765625 129.167969 458.796875 C 129.109375 458.824219 129.007812 458.878906 128.9375 458.933594 C 129.054688 460.300781 130.734375 463.050781 131.683594 463.847656 C 132.546875 464.574219 132.59375 464.210938 132.96875 465.28125 L 131.746094 466.535156 C 132.679688 467.546875 133.121094 466.898438 133.105469 468.507812 C 131.027344 468.542969 131.683594 466.457031 129.292969 467.078125 C 129.253906 468.703125 130.074219 468.789062 131.1875 469.429688 C 132.320312 470.082031 132.867188 470.664062 133.578125 471.800781 C 133.238281 475.125 132.898438 474.128906 135.941406 475.449219 C 137.421875 476.089844 139.078125 476.941406 138.941406 478.875 C 137.105469 478.773438 137.359375 476.972656 135.273438 477.757812 C 134.746094 479.714844 136.429688 479.648438 137.734375 480.40625 C 138.878906 481.066406 138.492188 482.128906 140.570312 482.910156 C 144.335938 484.324219 141.324219 484.628906 145.046875 486.425781 C 146.515625 487.136719 146.125 486.707031 146.242188 487.726562 C 145.03125 487.785156 141.699219 486.066406 140.878906 487.171875 C 140.011719 489.800781 144.195312 488.6875 145.820312 489.332031 C 146.949219 489.78125 146.941406 490.019531 148.503906 490.460938 C 149.101562 490.628906 149.492188 490.785156 149.914062 491.097656 C 150.617188 491.621094 150.558594 491.464844 150.742188 492.359375 L 148.292969 492.863281 C 148.761719 495.128906 151.734375 495.152344 153.941406 495.429688 C 156.039062 495.691406 156.429688 494.851562 157.648438 495.082031 C 159.242188 495.386719 158.953125 496.246094 159.667969 497.289062 C 160.597656 497.292969 162.285156 496.890625 162.785156 497.578125 C 163.128906 498.050781 163.011719 498.738281 163.871094 500.019531 C 163.578125 501.371094 163.222656 500.785156 163.8125 502.375 C 164.113281 503.183594 163.722656 506.894531 163.441406 507.726562 C 163.148438 508.601562 161.929688 510.957031 161.757812 512.671875 C 161.574219 514.503906 161.300781 517.070312 161.78125 518.757812 C 162.300781 520.574219 162.042969 520.441406 162.191406 522.214844 C 163.121094 523.214844 164.082031 523.101562 164.023438 525.226562 C 163.96875 527.175781 164.046875 525.457031 164.371094 526.90625 C 164.601562 527.921875 164.15625 527.777344 164.046875 528.90625 L 165.488281 530.019531 C 165.714844 532.019531 165.65625 533.515625 166.777344 535.261719 C 167.371094 536.183594 167.179688 535.117188 167.40625 536.757812 C 167.6875 538.761719 167.382812 542.457031 166.453125 544.164062 L 164.890625 546.695312 C 164.09375 548.359375 164.609375 548.21875 163.296875 549.523438 C 162.589844 550.226562 161.742188 550.929688 161.320312 551.714844 C 160.40625 553.414062 160.914062 553.140625 159.277344 554.109375 C 160.144531 556.441406 159.933594 554.199219 160.121094 558.3125 C 160.339844 563.097656 159.027344 567.980469 159.441406 575.917969 C 159.683594 580.621094 159.523438 584.78125 160.777344 589.339844 C 161.285156 591.195312 161.605469 591.058594 161.75 593.347656 C 161.90625 595.871094 163.5 598.140625 164.488281 600.316406 C 165.417969 602.367188 164.957031 601.699219 166.628906 602.980469 C 167.570312 603.699219 168.023438 604.644531 169.496094 604.746094 C 171.714844 604.898438 171.773438 604.207031 173.496094 605.421875 C 175.390625 606.753906 178.910156 607.015625 180.949219 605.371094 C 180.515625 600.109375 180.304688 600.082031 176.828125 598.285156 C 175.070312 597.375 174.371094 597.816406 173.121094 596.410156 C 172.109375 595.273438 171.34375 594.5625 170.539062 592.957031 L 168.550781 583.601562 C 168.558594 582.023438 168.015625 580.398438 168.011719 578.441406 C 168.011719 576.929688 168.292969 576.933594 168.398438 575.996094 C 168.523438 574.925781 168.25 574.378906 168.523438 573.246094 C 168.785156 572.175781 169 572.261719 169.003906 570.96875 C 169.007812 570.128906 168.789062 568.855469 168.90625 568.074219 C 169.046875 567.144531 169.414062 567.359375 169.507812 566.167969 C 169.679688 563.894531 169.324219 563.847656 170.226562 561.464844 C 171.046875 559.292969 170.542969 559.40625 172.65625 557.960938 C 173.390625 557.457031 173.90625 556.738281 174.246094 556.539062 C 176.15625 555.421875 175.203125 556.867188 177.769531 554.335938 C 178.402344 553.710938 180.070312 552.246094 180.875 551.75 C 182.644531 550.664062 182.515625 550.714844 183.914062 549.105469 C 184.480469 548.449219 185.132812 547.0625 185.992188 546.683594 C 187.027344 546.226562 187.40625 546.882812 187.261719 547.847656 C 186.972656 549.8125 184.574219 553.9375 184.695312 555.539062 C 184.949219 558.871094 187.179688 562.300781 187.480469 565.535156 C 187.582031 566.609375 188.589844 569.050781 189.113281 569.90625 C 189.960938 571.292969 190.351562 572.359375 191.207031 573.855469 L 194.070312 580.113281 C 194.554688 581.75 193.84375 581.179688 194.800781 582.742188 C 195.726562 584.25 195.910156 585.539062 196.71875 586.941406 C 197.535156 588.359375 198.167969 589.128906 198.90625 590.804688 C 199.832031 592.917969 199.472656 592.765625 201.265625 594.46875 C 203.664062 596.75 202.671875 598.546875 206.238281 602.15625 C 208.542969 604.488281 211.757812 604.851562 215.058594 604.5625 C 217.675781 604.335938 218.6875 604.738281 221.035156 604.707031 C 223.222656 604.152344 224.214844 601.203125 221.128906 597.605469 C 219.820312 596.085938 214.917969 595.699219 213.164062 594.773438 C 210.523438 593.375 210.96875 593.636719 209.460938 591.003906 C 207.605469 587.761719 205.519531 585.015625 204.757812 580.742188 C 204.367188 578.5625 201.992188 575.269531 201.421875 572.855469 L 201.015625 571.476562 C 200.664062 570.566406 200.746094 570.707031 200.621094 569.628906 C 200.140625 565.410156 197.398438 561.597656 197.695312 557.546875 C 197.84375 555.507812 199.285156 554.191406 199.992188 552.535156 C 200.484375 551.382812 200.523438 551.042969 201.296875 550.308594 C 201.988281 549.648438 202.316406 548.527344 202.457031 547.703125 C 202.953125 544.789062 204.054688 544.3125 204.519531 541.113281 C 204.714844 539.75 204.722656 540.761719 204.972656 539.757812 L 205.742188 533.378906 C 206.082031 532.074219 206.65625 532.316406 205.980469 530.144531 C 205.335938 528.078125 205.992188 528.476562 205.816406 527.066406 C 205.417969 523.894531 206.320312 525.1875 205.03125 523.019531 C 204.425781 522.003906 204.519531 522.769531 204.539062 521.496094 C 206.25 521.195312 206.015625 521.902344 206.820312 522.625 C 207.890625 523.585938 207.839844 522.550781 209.058594 524.25 C 209.847656 525.347656 209.699219 525.519531 210.527344 526.378906 C 211.765625 527.667969 210.800781 527.707031 211.894531 528.949219 C 213.003906 530.214844 212.394531 529.503906 213.347656 531.105469 C 213.789062 531.851562 214.742188 532.875 215.015625 533.34375 C 215.816406 534.714844 214.914062 534.75 216.269531 536.058594 C 218.796875 538.496094 218.246094 537.167969 217.359375 540.402344 L 216.976562 546.863281 C 216.78125 548.296875 223.160156 566.75 223.933594 568.402344 C 224.34375 569.28125 224.535156 570 224.976562 571.015625 C 225.707031 572.679688 226.949219 573.765625 227.445312 575.476562 C 228.003906 577.417969 227.792969 576.734375 228.453125 578.152344 C 228.769531 578.832031 228.632812 578.933594 228.910156 579.558594 C 229.308594 580.453125 229.175781 579.574219 229.5 580.679688 C 233.917969 595.589844 233.386719 588.054688 236.703125 594.75 C 237.527344 596.421875 238.222656 598.152344 239.289062 599.449219 C 240.839844 601.335938 239.6875 602.25 242.421875 603.21875 C 244.425781 603.929688 245.882812 603.804688 247.984375 604.621094 L 253.113281 606.40625 C 254.714844 606.617188 257.109375 604.933594 257.632812 603.890625 C 257.746094 602.554688 257.378906 601.046875 257.140625 599.78125 C 256.851562 598.246094 256.175781 597.871094 255.230469 597.1875 C 252.6875 595.351562 252.777344 595.253906 248.835938 594.867188 C 246.472656 594.632812 245.136719 592.695312 243.746094 591.0625 C 242.433594 589.519531 243.203125 589.648438 242.292969 587.957031 C 241.726562 586.898438 241.136719 586.589844 240.5 585.214844 C 239.566406 583.210938 239.175781 580.25 238.355469 578.160156 C 238.089844 577.480469 237.933594 577.457031 237.683594 576.675781 L 236.765625 573.046875 C 236.546875 572.164062 236.757812 571.71875 236.457031 570.839844 C 235.554688 568.179688 236.054688 571.109375 235.609375 567.191406 C 235.492188 566.132812 234.925781 564.617188 234.726562 563.34375 C 234.617188 562.636719 234.65625 562.003906 234.523438 561.339844 C 234.375 560.585938 234.113281 560.386719 233.976562 559.523438 C 233.246094 554.917969 234.574219 555.667969 236.988281 556.203125 C 241.59375 557.222656 239.972656 556.101562 242.617188 560.914062 C 246.851562 568.628906 243.710938 566.386719 247.863281 569.839844 L 255.042969 576.3125 C 255.273438 576.503906 255.71875 576.796875 255.894531 576.949219 L 258.832031 579.371094 C 259.6875 580.101562 259.550781 580.347656 260.644531 581.117188 L 264.183594 584.433594 C 265.289062 585.59375 265.242188 584.988281 266.488281 585.648438 C 269.65625 587.320312 271.09375 589.855469 274.726562 590.96875 C 276.722656 591.578125 282.777344 594.199219 284.136719 595.316406 C 285.1875 596.183594 284.828125 595.859375 286.234375 596.414062 C 287.101562 596.753906 287.523438 597.167969 288.671875 597.476562 C 290.066406 597.851562 292.855469 598.460938 294.125 597.601562 C 295.414062 596.734375 294.894531 597.011719 296.667969 596.523438 C 300.085938 595.582031 299.992188 593.453125 298.464844 590.421875 C 297.425781 588.363281 297.203125 588.710938 295.238281 587.734375 C 292.058594 586.15625 289.25 587.804688 285.527344 586.238281 C 284.125 585.644531 283.050781 584.957031 281.792969 584.441406 C 280.378906 583.863281 279.816406 582.527344 278.269531 582.015625 C 275.246094 581.019531 275.214844 580.238281 272.890625 578.570312 L 268.183594 574.660156 C 267.0625 573.675781 266.042969 572.773438 265.011719 571.886719 C 263.929688 570.960938 263.195312 570.09375 262.101562 569.144531 C 260.957031 568.15625 257.195312 564.058594 256.816406 562.777344 C 256.550781 561.886719 256.589844 560.925781 256.332031 560.097656 C 255.972656 558.945312 255.683594 559.320312 255.492188 557.84375 C 255.273438 556.164062 255.746094 548.929688 255.878906 546.714844 C 258.933594 546.308594 257.734375 548.648438 266.453125 547.160156 C 272.164062 538.367188 274.792969 540.820312 284.855469 541.082031 C 285.589844 541.097656 292.308594 541.820312 292.945312 542.199219 C 293.855469 542.734375 293.425781 543.195312 295.089844 543.195312 C 297.871094 543.195312 298.339844 543.019531 300.992188 543.632812 C 302.460938 543.976562 304.746094 545.054688 306.015625 544.03125 C 306.015625 542.535156 304.9375 542.71875 303.507812 542.449219 C 302.261719 542.214844 301.1875 541.824219 299.742188 541.59375 L 292.144531 540.238281 C 291.042969 540.039062 289.496094 540.035156 288.28125 539.839844 C 285.433594 539.386719 282.59375 539.285156 279.691406 539.269531 C 277.339844 539.257812 276.257812 539.433594 275.710938 538.601562 C 277.082031 536.839844 299.796875 537.011719 303.148438 537.191406 L 312.222656 537.671875 C 313.097656 534.695312 310.265625 535.898438 308.339844 535.472656 C 307.121094 535.199219 307.5 535.15625 306.039062 535.226562 L 286.953125 535.554688 C 285.328125 535.554688 278.390625 536.175781 277.660156 535.871094 C 275.230469 533.507812 293.671875 530.515625 294.335938 530.398438 C 295.515625 530.195312 296.585938 530.234375 297.71875 530.066406 C 299.761719 529.765625 298.984375 530.023438 300.769531 530.097656 C 303.046875 530.191406 303.773438 527.835938 298.511719 528.367188 L 284.890625 530.285156 C 283.539062 530.511719 278.648438 533.128906 278.714844 531.058594 L 278.875 528.007812 C 278.816406 526.511719 278.984375 525.34375 278.898438 523.839844 C 278.820312 522.425781 278.566406 521.414062 278.507812 519.996094 C 278.476562 519.300781 278.519531 518.578125 278.367188 517.902344 C 277.503906 514.082031 277.734375 516.964844 281.25 511.535156 C 282.320312 509.886719 284.890625 505.636719 285.183594 503.738281 C 285.328125 502.792969 284.746094 501.558594 284.230469 500.992188 C 282.738281 499.355469 279.574219 501.429688 278.308594 502.089844 C 274.835938 503.894531 276.851562 502.332031 273.433594 505.058594 C 269.257812 508.386719 269.058594 506.042969 264.792969 505.277344 C 263.410156 505.027344 262.675781 505.066406 261.359375 504.875 C 259.175781 504.558594 256.671875 504.851562 254.296875 504.808594 C 252.828125 502.804688 251.972656 499.796875 249.753906 498.308594 C 248.679688 497.585938 247.214844 496.886719 246.339844 496.113281 C 244.699219 494.65625 242.019531 493.550781 242.152344 497.136719 C 242.21875 498.886719 242.84375 501.421875 242.304688 503.042969 C 240.234375 503.140625 241.53125 501.445312 239.960938 500.027344 C 238.527344 498.730469 238.476562 498.777344 237.953125 496.625 C 237.65625 495.414062 236.535156 493.898438 235.765625 493.390625 C 233.910156 492.167969 233.773438 493.78125 233.421875 490.308594 C 230.890625 488.359375 232.707031 489.09375 231.570312 487.335938 C 230.570312 485.785156 230.007812 487.875 229.457031 484.644531 C 226.6875 484.46875 228.246094 483.445312 226.78125 482.65625 C 226.027344 482.25 226.101562 482.902344 225.277344 481.738281 C 223.835938 479.707031 224.394531 481.0625 222.816406 479.128906 C 222.238281 478.421875 222.253906 478.484375 221.371094 478.183594 C 219.636719 477.589844 219.882812 477.050781 219.023438 475.5 L 217.160156 475.476562 C 215.902344 472.609375 216.992188 473.507812 214.277344 473.761719 C 213.667969 472.925781 213.574219 473.019531 213.222656 471.746094 L 211.453125 471.894531 L 210.582031 470.769531 L 209.042969 471.222656 C 206.535156 468.769531 208.085938 470.175781 205.433594 469.164062 C 204.328125 468.746094 203.8125 469.078125 203.105469 468.605469 C 201.964844 467.847656 203.09375 467.59375 201.320312 467.402344 C 201.113281 467.738281 201.171875 467.59375 201.011719 468.28125 C 200.917969 468.691406 201.011719 468.644531 200.867188 469.125 C 198.457031 468.878906 199.15625 467.445312 197.480469 467.15625 L 197 468.519531 C 195.351562 468.671875 195.429688 468.289062 194.511719 467.390625 C 193.378906 467.582031 193.753906 467.808594 192.738281 467.890625 C 191.695312 467.980469 191.726562 467.558594 190.628906 467.597656 C 188.449219 467.675781 190.203125 468.957031 187.101562 468.308594 C 186.179688 469.109375 186.816406 469.355469 185.675781 469.457031 C 184.695312 469.542969 185.074219 469.082031 183.851562 468.914062 L 183.675781 470.695312 C 182.316406 470.761719 182.007812 470.351562 180.839844 470.207031 C 181.050781 470.828125 181.289062 471.171875 181.015625 471.800781 L 178.917969 471.472656 C 178.527344 472.160156 178.671875 472.429688 178.101562 473.113281 L 175.078125 472.796875 C 175.390625 474.5 175.707031 473.324219 175.636719 474.828125 C 174.460938 475.378906 174.632812 475.082031 173.289062 474.957031 C 174 477.09375 173.773438 477.300781 171.140625 476.976562 C 170.757812 477.558594 171.085938 477.601562 170.621094 478.445312 L 168.519531 477.910156 C 168.960938 479.820312 169.4375 478.167969 169.371094 479.921875 C 168.375 480.246094 168.050781 480.101562 167.703125 479.695312 C 167.238281 480 166.855469 479.296875 167.175781 481.074219 L 164.511719 481.40625 L 163.328125 479.929688 C 161.816406 480.296875 162.113281 480.628906 160.199219 480.632812 C 159.550781 479.21875 159.738281 478.664062 159.320312 477.230469 C 157.898438 477.457031 158.535156 477.644531 156.96875 477.875 C 156.574219 477.019531 155.597656 475.511719 155.496094 475.117188 C 154.867188 472.707031 156.332031 473.4375 155.910156 471.238281 C 154.675781 470.050781 154.230469 470.492188 152.910156 469.875 C 152.527344 467.027344 154.425781 469.035156 154.414062 466.214844 C 154.40625 463.253906 153.375 463.996094 151.40625 464.28125 C 150.722656 461.148438 152.648438 458.347656 152.742188 455.914062 L 151.5 455.441406 C 150.972656 450.90625 151.011719 452.085938 152.457031 448.859375 C 152.882812 447.910156 153.144531 446.898438 153.605469 446.191406 C 154.355469 445.046875 155.203125 445.125 154.398438 443.714844 C 152.324219 443.714844 153.054688 445.980469 151.375 446.757812 C 150.515625 445.566406 151.546875 445.117188 151.511719 442.867188 C 151.464844 440.15625 153.148438 438.375 154.035156 436.097656 C 155.101562 433.347656 155.511719 433.796875 155.425781 432.5625 C 152.953125 432.644531 154.160156 434.511719 152.242188 434.746094 C 151.425781 432.929688 154.808594 426.164062 154.703125 423.265625 C 153.628906 423.441406 153.386719 423.628906 153.179688 424.523438 C 152.753906 426.347656 153.773438 425.691406 152.410156 426.464844 C 151.535156 426.089844 151.871094 426.6875 151.617188 425.601562 C 151.464844 424.964844 151.613281 424.738281 151.792969 424.21875 C 152.59375 421.910156 151.792969 423.609375 151.886719 421.773438 C 151.996094 419.734375 153.042969 418.730469 152.777344 416.582031 C 151.140625 416.835938 152.179688 417.132812 150.777344 418 C 149.234375 416.1875 149.867188 415.910156 150.144531 413.660156 C 150.265625 412.648438 150.027344 412.316406 150.410156 411.296875 C 150.78125 410.300781 151.0625 410.402344 150.742188 409.125 C 148.660156 409.65625 149.871094 410.8125 148.179688 410.0625 C 148.136719 409.992188 147.988281 409.894531 148.054688 409.847656 L 147.804688 409.105469 C 147.722656 408.59375 147.816406 408.066406 147.785156 407.597656 C 147.695312 406.164062 147.417969 406.691406 146.910156 405.570312 C 147.300781 404.613281 148.164062 402.539062 147.9375 401.53125 L 145.480469 401.925781 C 144.628906 400.375 145.605469 400.726562 144.097656 399.160156 C 144.148438 398.550781 144.167969 397.074219 144.296875 396.523438 C 144.601562 395.230469 145.210938 395.785156 144.625 393.878906 C 143.105469 393.707031 141.976562 395.382812 141.25 393.289062 C 140.722656 391.78125 141.089844 389.703125 140.535156 388.398438 C 139.566406 388.273438 139.277344 388.554688 138.460938 388.789062 C 138.398438 386.652344 137.78125 386.359375 137.808594 385.277344 C 137.828125 384.597656 138.070312 383.777344 137.589844 382.839844 C 137.171875 382.015625 137.53125 382.539062 136.980469 382.105469 C 135.269531 382.550781 136.378906 382.890625 134.988281 383.96875 C 134.929688 383.894531 134.761719 383.789062 134.835938 383.734375 L 134.484375 382.722656 C 134.234375 381.945312 134.550781 382.332031 133.933594 381.871094 C 133.882812 381.832031 133.789062 381.808594 133.738281 381.773438 C 133.683594 381.734375 133.589844 381.710938 133.535156 381.667969 C 132.789062 381.09375 133.183594 380.796875 132.503906 379.988281 C 130.769531 377.933594 126 378.074219 126.59375 381.753906 C 126.914062 383.730469 127.324219 383.164062 127.96875 384.507812 C 127.4375 385.511719 127.425781 384.996094 126.898438 386.054688 C 127.410156 386.960938 127.578125 386.679688 127.851562 387.347656 C 128.542969 389.035156 127.335938 388.921875 129.265625 390.488281 C 130.332031 391.355469 129.996094 390.519531 130.355469 391.832031 C 129.640625 392.808594 130.070312 392.042969 128.921875 392.800781 C 128.976562 394.371094 130.015625 394.773438 130.367188 396.179688 L 128.53125 397.023438 C 127.820312 396.574219 127.171875 395.824219 126.472656 395.167969 C 125.476562 394.230469 125.566406 393.796875 123.832031 393.902344 C 123.789062 395.742188 124.980469 395.917969 126.097656 396.804688 L 128.847656 399.058594 C 128.734375 400.210938 128.378906 400.402344 128.5625 402.046875 C 128.734375 403.585938 129.332031 403.316406 129.652344 405.050781 L 125.839844 404.390625 C 126.097656 407.066406 128.316406 405.890625 128.847656 408.875 C 129.371094 411.84375 128.628906 413.175781 128.480469 415.675781 C 126.6875 415.515625 126.636719 412.535156 124.902344 413.574219 C 124.089844 414.5 126.175781 415.847656 126.832031 416.410156 L 127.167969 416.65625 C 127.214844 416.699219 127.289062 416.746094 127.335938 416.789062 L 128.839844 419.914062 C 127.980469 420.535156 128.296875 420.191406 127.320312 420.46875 C 127.660156 421.964844 128.308594 422.320312 128.046875 423.734375 C 128.027344 423.835938 127.953125 424.117188 127.925781 424.203125 C 127.527344 425.429688 126.976562 424.699219 126.03125 425.125 C 126.511719 426.792969 126.96875 425.605469 127.582031 427.957031 C 127.941406 429.34375 128.503906 429.464844 129.179688 430.621094 C 128.777344 431.523438 128.835938 431.214844 128.3125 431.859375 C 128.566406 433.390625 129.328125 433.84375 129.09375 434.914062 C 127.398438 435.269531 126.542969 432.136719 124.496094 431.859375 C 124.765625 432.867188 125.328125 434.144531 126 434.957031 C 126.667969 435.765625 127.484375 436.441406 128.195312 437.226562 C 128.105469 438.449219 127.757812 438.476562 127.429688 439.660156 C 126.96875 441.335938 126.992188 440.449219 126.316406 441.792969 C 127.035156 444.191406 128.066406 444.410156 129.054688 445.820312 C 128.839844 447.089844 128.921875 446.242188 128.359375 447.347656 C 128.96875 449.152344 129.445312 447.984375 129.335938 450.714844 C 126.0625 451.34375 126.378906 447.714844 124.054688 448.191406 C 124.046875 450.144531 126.292969 451.457031 127.371094 453.242188 C 127.875 454.078125 128.367188 455.253906 128.921875 455.921875 C 129.714844 456.882812 130.53125 456.867188 130.691406 458.25 Z M 130.691406 458.246094" fill-rule="evenodd"/></g></g></g></svg>