<svg xmlns="http://www.w3.org/2000/svg" width="810" viewBox="0 0 810 810" height="810" version="1.0"><defs><clipPath id="a"><path d="M 336 382 L 667.453125 382 L 667.453125 667.453125 L 336 667.453125 Z M 336 382"/></clipPath><clipPath id="b"><path d="M 142.453125 142.453125 L 533 142.453125 L 533 469 L 142.453125 469 Z M 142.453125 142.453125"/></clipPath></defs><path fill="#FFF" d="M-81 -81H891V891H-81z"/><path fill="#FFF" d="M-81 -81H891V891H-81z"/><path fill="#FFF" d="M-81 -81H891V891H-81z"/><path fill="#FF8A80" d="M 405.035156 60.785156 C 214.910156 60.785156 60.785156 214.910156 60.785156 405.035156 C 60.785156 595.160156 214.910156 749.285156 405.035156 749.285156 C 595.160156 749.285156 749.285156 595.160156 749.285156 405.035156 C 749.285156 214.910156 595.160156 60.785156 405.035156 60.785156"/><path fill="#FFF" d="M 642.863281 343.886719 C 649.421875 343.070312 655.570312 344.707031 660.898438 347.988281 C 655.570312 323.804688 646.550781 300.445312 635.078125 279.542969 C 633.4375 282.003906 630.980469 284.460938 628.109375 286.511719 L 621.960938 290.199219 C 630.980469 307.003906 637.945312 325.035156 642.863281 343.886719 Z M 642.863281 343.886719"/><path fill="#FFF" d="M 267.042969 624.625 L 250.652344 596.757812 C 246.960938 593.886719 243.683594 591.019531 240.40625 588.152344 C 234.667969 591.429688 228.519531 593.070312 222.371094 593.480469 C 237.945312 608.640625 255.570312 621.757812 274.832031 632.824219 L 272.78125 631.183594 C 270.734375 629.132812 268.683594 627.085938 267.042969 624.625 Z M 267.042969 624.625"/><g clip-path="url(#a)"><path fill="#FFF" d="M 666.222656 382.824219 C 662.945312 387.332031 658.027344 390.609375 652.289062 391.839844 L 650.652344 392.25 C 651.0625 396.347656 651.0625 400.445312 651.0625 404.953125 C 651.0625 540.609375 540.816406 650.855469 405.160156 650.855469 C 388.765625 650.855469 373.191406 649.214844 357.617188 646.347656 L 336.714844 658.234375 C 358.4375 663.96875 381.386719 667.25 405.160156 667.25 C 549.832031 667.25 667.453125 549.625 667.453125 404.953125 C 667.042969 397.578125 666.632812 390.199219 666.222656 382.824219 Z M 666.222656 382.824219"/></g><g clip-path="url(#b)"><path fill="#FFF" d="M 158.847656 404.953125 C 158.847656 269.296875 269.09375 159.050781 404.75 159.050781 C 446.960938 159.050781 486.304688 169.707031 521.140625 188.5625 L 528.109375 180.363281 C 529.339844 178.722656 530.980469 177.496094 532.617188 176.265625 C 494.503906 154.953125 451.0625 142.660156 404.75 142.660156 C 260.078125 142.660156 142.453125 260.28125 142.453125 404.953125 C 142.453125 427.085938 145.324219 448.398438 150.242188 468.480469 C 153.519531 463.152344 158.4375 458.644531 163.765625 454.953125 C 160.488281 438.96875 158.847656 422.167969 158.847656 404.953125 Z M 158.847656 404.953125"/></g><path fill="#FFF" d="M 594.914062 249.214844 L 601.46875 245.117188 C 603.929688 243.480469 606.796875 242.25 609.667969 241.839844 C 598.191406 227.496094 585.078125 213.96875 570.734375 202.085938 C 569.914062 205.363281 568.273438 209.050781 565.816406 211.921875 L 562.125 216.429688 C 574.011719 226.265625 585.078125 237.332031 594.914062 249.214844 Z M 594.914062 249.214844"/><path fill="#FFF" d="M 493.683594 259.460938 C 495.324219 260.691406 496.960938 261.511719 499.011719 261.511719 C 501.46875 261.511719 503.519531 260.691406 505.160156 258.644531 L 553.109375 201.265625 C 555.980469 197.988281 555.570312 192.660156 551.878906 189.789062 C 548.601562 186.921875 543.273438 187.332031 540.40625 191.019531 L 492.453125 248.398438 C 489.996094 251.675781 490.40625 256.59375 493.683594 259.460938 Z M 493.683594 259.460938"/><path fill="#FFF" d="M 544.09375 311.101562 C 545.734375 313.5625 548.191406 314.789062 551.0625 314.789062 C 552.699219 314.789062 553.929688 314.378906 555.570312 313.5625 L 619.503906 272.578125 C 623.191406 270.117188 624.421875 265.199219 621.960938 261.101562 C 619.503906 257.414062 614.585938 256.183594 610.488281 258.644531 L 546.550781 299.625 C 542.453125 302.085938 541.632812 307.414062 544.09375 311.101562 Z M 544.09375 311.101562"/><path fill="#FFF" d="M 644.914062 359.871094 L 572.78125 376.265625 C 568.273438 377.085938 565.40625 381.59375 566.632812 386.101562 C 567.453125 389.789062 570.734375 392.660156 574.421875 392.660156 C 574.832031 392.660156 575.652344 392.660156 576.0625 392.660156 L 647.78125 376.265625 C 652.289062 375.445312 655.160156 370.9375 653.929688 366.429688 C 653.519531 361.921875 649.011719 359.050781 644.914062 359.871094 Z M 644.914062 359.871094"/><path fill="#FFF" d="M 339.175781 372.988281 C 342.042969 369.707031 342.042969 364.378906 338.355469 361.511719 C 334.667969 358.644531 329.75 358.644531 326.878906 362.332031 L 265.40625 431.59375 C 262.535156 434.871094 262.535156 440.199219 266.222656 443.070312 C 269.503906 445.9375 274.832031 445.527344 277.699219 442.25 Z M 339.175781 372.988281"/><path fill="#FFF" d="M 368.273438 616.839844 C 368.683594 613.96875 367.453125 611.511719 365.40625 609.871094 L 333.847656 584.050781 L 329.75 577.085938 C 343.683594 566.839844 352.289062 552.085938 353.109375 536.921875 L 537.945312 500.855469 C 541.632812 500.855469 544.914062 499.625 548.191406 497.988281 C 576.878906 481.59375 553.109375 405.773438 514.996094 339.789062 C 481.386719 281.183594 440.816406 237.332031 414.175781 229.953125 C 406.796875 227.90625 400.242188 228.722656 394.914062 231.59375 C 390.40625 234.050781 387.125 238.152344 385.078125 243.480469 L 208.027344 448.398438 L 174.421875 468.070312 C 159.667969 476.675781 154.75 495.117188 162.945312 509.871094 L 192.453125 561.511719 C 196.550781 568.480469 203.109375 573.804688 210.898438 575.855469 C 213.355469 576.675781 216.222656 577.085938 218.683594 577.085938 C 224.011719 577.085938 228.929688 575.855469 233.847656 572.988281 L 250.652344 563.152344 L 281.796875 616.019531 C 282.207031 616.839844 283.027344 617.660156 283.847656 618.070312 L 316.632812 644.707031 C 318.273438 645.9375 319.914062 646.347656 321.960938 646.347656 C 323.191406 646.347656 324.832031 645.9375 326.0625 645.117188 L 365.40625 622.988281 C 366.632812 622.167969 368.273438 619.707031 368.273438 616.839844 Z M 321.550781 562.742188 L 311.304688 545.117188 L 336.304688 540.199219 C 334.257812 548.804688 329.339844 556.59375 321.550781 562.742188 Z M 402.699219 245.9375 C 403.519531 245.117188 404.75 245.117188 405.570312 245.117188 C 406.796875 245.117188 408.4375 245.527344 409.257812 245.527344 C 428.109375 250.445312 465.40625 287.332031 500.242188 347.578125 C 542.042969 420.117188 551.46875 476.675781 539.585938 483.644531 C 537.535156 484.871094 535.078125 484.460938 533.027344 483.644531 C 517.863281 479.542969 490.816406 454.953125 462.945312 414.378906 C 477.699219 402.085938 481.386719 379.953125 471.144531 361.511719 C 460.898438 343.070312 439.585938 334.871094 421.960938 342.25 C 397.371094 289.789062 392.863281 251.265625 402.699219 245.9375 Z M 453.519531 400.855469 C 449.832031 394.707031 445.734375 388.5625 442.042969 381.59375 C 437.125 373.398438 433.027344 365.199219 428.929688 357.414062 C 438.765625 353.722656 450.652344 358.644531 456.796875 369.707031 C 462.535156 380.363281 460.898438 393.480469 453.519531 400.855469 Z M 382.207031 271.347656 C 385.488281 303.316406 403.519531 348.398438 427.289062 390.199219 C 453.929688 435.28125 484.257812 472.167969 508.847656 489.378906 L 272.78125 536.101562 L 225.652344 452.496094 Z M 225.242188 558.644531 C 221.960938 560.691406 218.273438 561.101562 214.996094 559.871094 C 211.304688 559.050781 208.4375 556.59375 206.386719 553.316406 L 177.289062 501.675781 C 173.601562 494.707031 175.652344 486.101562 182.207031 482.003906 L 210.488281 465.199219 L 254.339844 541.429688 Z M 321.960938 628.722656 L 294.914062 606.59375 L 264.585938 554.953125 L 266.222656 554.132812 C 266.632812 554.132812 267.453125 554.132812 267.863281 554.132812 L 294.09375 548.398438 L 320.734375 593.886719 C 321.140625 594.707031 321.960938 595.527344 322.78125 595.9375 L 346.144531 614.789062 Z M 321.960938 628.722656"/></svg>