<svg xmlns="http://www.w3.org/2000/svg" width="810" viewBox="0 0 810 810" height="810" version="1.0"><defs><clipPath id="a"><path d="M 294 156.207031 L 478 156.207031 L 478 339 L 294 339 Z M 294 156.207031"/></clipPath><clipPath id="b"><path d="M 227.371094 349 L 544.621094 349 L 544.621094 583.707031 L 227.371094 583.707031 Z M 227.371094 349"/></clipPath><clipPath id="c"><path d="M 283 156.207031 L 467 156.207031 L 467 339 L 283 339 Z M 283 156.207031"/></clipPath><clipPath id="d"><path d="M 216.078125 349 L 533.328125 349 L 533.328125 583.707031 L 216.078125 583.707031 Z M 216.078125 349"/></clipPath><clipPath id="e"><path d="M 431.035156 447.1875 L 630.535156 447.1875 L 630.535156 646.6875 L 431.035156 646.6875 Z M 431.035156 447.1875"/></clipPath></defs><path fill="#FFF" d="M-81 -81H891V891H-81z"/><path fill="#FFF" d="M-81 -81H891V891H-81z"/><path fill="#FFF" d="M-81 -81H891V891H-81z"/><path fill="#FF8A80" d="M 405.035156 60.785156 C 214.910156 60.785156 60.785156 214.910156 60.785156 405.035156 C 60.785156 595.160156 214.910156 749.285156 405.035156 749.285156 C 595.160156 749.285156 749.285156 595.160156 749.285156 405.035156 C 749.285156 214.910156 595.160156 60.785156 405.035156 60.785156"/><g clip-path="url(#a)"><path fill="#FF6A6A" d="M 477.308594 247.519531 C 477.308594 197.191406 436.34375 156.242188 385.996094 156.242188 C 335.648438 156.242188 294.683594 197.191406 294.683594 247.519531 C 294.683594 297.707031 335.648438 338.65625 385.996094 338.65625 C 436.34375 338.65625 477.308594 297.707031 477.308594 247.519531 Z M 477.308594 247.519531"/></g><g clip-path="url(#b)"><path fill="#FF6A6A" d="M 227.371094 507.839844 L 227.371094 535.414062 C 227.371094 562.027344 249.027344 583.671875 275.648438 583.671875 L 496.34375 583.671875 C 522.964844 583.671875 544.621094 562.027344 544.621094 535.414062 L 544.621094 507.839844 C 544.621094 420.421875 473.449219 349.273438 385.996094 349.273438 C 298.546875 349.273438 227.371094 420.421875 227.371094 507.839844 Z M 227.371094 507.839844"/></g><g clip-path="url(#c)"><path fill="#FFF" d="M 466.015625 247.519531 C 466.015625 197.191406 425.046875 156.242188 374.703125 156.242188 C 324.355469 156.242188 283.390625 197.191406 283.390625 247.519531 C 283.390625 297.707031 324.355469 338.65625 374.703125 338.65625 C 425.046875 338.65625 466.015625 297.707031 466.015625 247.519531 Z M 466.015625 247.519531"/></g><g clip-path="url(#d)"><path fill="#FFF" d="M 216.078125 507.839844 L 216.078125 535.414062 C 216.078125 562.027344 237.734375 583.671875 264.355469 583.671875 L 485.050781 583.671875 C 511.671875 583.671875 533.328125 562.027344 533.328125 535.414062 L 533.328125 507.839844 C 533.328125 420.421875 462.152344 349.273438 374.703125 349.273438 C 287.25 349.273438 216.078125 420.421875 216.078125 507.839844 Z M 216.078125 507.839844"/></g><path fill="#FF8A80" d="M 524.964844 431.042969 C 463.453125 431.042969 413.589844 480.90625 413.589844 542.417969 C 413.589844 603.929688 463.453125 653.792969 524.964844 653.792969 C 586.476562 653.792969 636.339844 603.929688 636.339844 542.417969 C 636.339844 480.90625 586.476562 431.042969 524.964844 431.042969"/><g clip-path="url(#e)"><path fill="#FFF" d="M 530.785156 447.1875 C 475.785156 447.1875 431.035156 491.9375 431.035156 546.9375 C 431.035156 601.941406 475.785156 646.6875 530.785156 646.6875 C 585.789062 646.6875 630.535156 601.941406 630.535156 546.9375 C 630.535156 491.9375 585.789062 447.1875 530.785156 447.1875 Z M 530.785156 487.085938 C 547.742188 487.085938 560.710938 500.054688 560.710938 517.011719 L 560.710938 526.988281 C 566.695312 526.988281 570.6875 530.976562 570.6875 536.960938 L 570.6875 576.863281 C 570.6875 582.847656 566.695312 586.835938 560.710938 586.835938 L 500.859375 586.835938 C 494.875 586.835938 490.886719 582.847656 490.886719 576.863281 L 490.886719 536.960938 C 490.886719 530.976562 494.875 526.988281 500.859375 526.988281 L 500.859375 517.011719 C 500.859375 500.054688 513.828125 487.085938 530.785156 487.085938 Z M 530.785156 502.050781 C 522.804688 502.050781 515.824219 509.03125 515.824219 517.011719 L 515.824219 526.988281 L 545.75 526.988281 L 545.75 517.011719 C 545.75 509.03125 538.765625 502.050781 530.785156 502.050781 Z M 530.785156 546.9375 C 530.132812 546.9375 529.484375 547 528.839844 547.128906 C 528.199219 547.257812 527.574219 547.445312 526.96875 547.695312 C 526.363281 547.949219 525.789062 548.253906 525.246094 548.617188 C 524.699219 548.984375 524.195312 549.394531 523.734375 549.859375 C 523.269531 550.324219 522.855469 550.828125 522.492188 551.371094 C 522.128906 551.914062 521.820312 552.492188 521.570312 553.09375 C 521.320312 553.699219 521.128906 554.324219 521.003906 554.964844 C 520.875 555.609375 520.8125 556.257812 520.8125 556.914062 C 520.8125 557.566406 520.875 558.214844 521.003906 558.859375 C 521.128906 559.5 521.320312 560.125 521.570312 560.730469 C 521.820312 561.335938 522.128906 561.910156 522.492188 562.453125 C 522.855469 563 523.269531 563.503906 523.734375 563.964844 C 524.195312 564.429688 524.699219 564.84375 525.246094 565.207031 C 525.789062 565.570312 526.363281 565.878906 526.96875 566.128906 C 527.574219 566.378906 528.199219 566.566406 528.839844 566.695312 C 529.484375 566.824219 530.132812 566.886719 530.785156 566.886719 C 531.441406 566.886719 532.089844 566.824219 532.730469 566.695312 C 533.375 566.566406 534 566.378906 534.605469 566.128906 C 535.207031 565.878906 535.785156 565.570312 536.328125 565.207031 C 536.871094 564.84375 537.375 564.429688 537.839844 563.964844 C 538.304688 563.503906 538.714844 563 539.082031 562.453125 C 539.445312 561.910156 539.75 561.335938 540.003906 560.730469 C 540.253906 560.125 540.441406 559.5 540.570312 558.859375 C 540.699219 558.214844 540.761719 557.566406 540.761719 556.914062 C 540.761719 556.257812 540.699219 555.609375 540.570312 554.964844 C 540.441406 554.324219 540.253906 553.699219 540.003906 553.09375 C 539.75 552.492188 539.445312 551.914062 539.082031 551.371094 C 538.714844 550.828125 538.304688 550.324219 537.839844 549.859375 C 537.375 549.394531 536.871094 548.984375 536.328125 548.617188 C 535.785156 548.253906 535.207031 547.949219 534.605469 547.695312 C 534 547.445312 533.375 547.257812 532.730469 547.128906 C 532.089844 547 531.441406 546.9375 530.785156 546.9375 Z M 530.785156 546.9375"/></g></svg>