<svg width="512" height="512" version="1.1" xmlns="http://www.w3.org/2000/svg"><path fill="rgb(0,0,0)" stroke="rgb(0,0,0)" stroke-width="1" opacity="0" d="M 0 0 L 512 0 L 512 512 L 0 512 L 0 0 Z M 375 31 L 373 32 Q 368 35 367 41 L 368 46 L 399 77 L 232 245 L 230 245 L 154 169 L 150 167 Q 141 166 138 169 L 33 274 L 31 278 Q 30 285 32 289 L 54 310 L 59 312 Q 65 313 68 310 L 146 233 L 223 309 L 227 311 Q 235 312 239 309 L 435 113 L 467 144 L 470 145 L 477 143 L 481 138 L 481 38 L 479 35 L 475 31 L 375 31 Z M 430 149 L 359 220 L 359 472 L 361 476 L 369 481 L 422 481 L 424 480 L 431 471 L 431 150 L 430 149 Z M 338 241 L 266 313 L 266 470 L 268 475 Q 270 480 277 481 L 329 481 L 333 479 L 338 472 L 338 241 Z M 146 264 L 135 274 L 131 279 L 81 328 L 81 470 L 83 475 L 91 481 L 144 481 L 149 478 L 153 471 L 153 271 L 146 264 Z M 174 293 L 174 472 L 176 476 L 184 481 L 237 481 L 239 480 Q 244 477 246 470 L 246 332 L 245 330 L 237 333 L 225 333 L 210 327 L 176 293 L 174 293 Z "></path><path fill="rgb(0,0,0)" stroke="rgb(0,0,0)" stroke-width="1" opacity="0.9254901960784314" d="M 372.5 33 L 370 36.5 L 369.5 38 L 369 36.5 L 372.5 33 Z "></path><path fill="rgb(0,0,0)" stroke="rgb(0,0,0)" stroke-width="1" opacity="0.9254901960784314" d="M 476.5 33 L 477.5 35 L 476.5 33 Z "></path><path fill="rgb(0,0,0)" stroke="rgb(0,0,0)" stroke-width="1" opacity="0.9254901960784314" d="M 478.5 36 L 479.5 38 L 478.5 36 Z "></path><path fill="rgb(0,0,0)" stroke="rgb(0,0,0)" stroke-width="1" opacity="0.9254901960784314" d="M 368.5 39 L 369 42.5 L 368 42.5 L 368.5 39 Z "></path><path fill="rgb(0,0,0)" stroke="rgb(0,0,0)" stroke-width="1" opacity="0.9254901960784314" d="M 369.5 45 L 401 77.5 L 231.5 247 L 229.5 247 L 164.5 181 L 229.5 246 L 231.5 246 L 400 76.5 L 369.5 45 Z "></path><path fill="rgb(0,0,0)" stroke="rgb(0,0,0)" stroke-width="1" opacity="0.9254901960784314" d="M 434.5 111 L 467 142.5 L 435.5 112 L 358.5 188 L 434.5 111 Z "></path><path fill="rgb(0,0,0)" stroke="rgb(0,0,0)" stroke-width="1" opacity="0.9254901960784314" d="M 478.5 139 L 475.5 143 L 474 142.5 L 478.5 139 Z "></path><path fill="rgb(0,0,0)" stroke="rgb(0,0,0)" stroke-width="1" opacity="0.9254901960784314" d="M 469.5 143 L 473 143.5 L 469.5 144 L 469.5 143 Z "></path><path fill="rgb(0,0,0)" stroke="rgb(0,0,0)" stroke-width="1" opacity="0.9254901960784314" d="M 429.5 150 L 360.5 220 L 429.5 150 Z "></path><path fill="rgb(0,0,0)" stroke="rgb(0,0,0)" stroke-width="1" opacity="0.9254901960784314" d="M 151.5 169 L 154 170.5 L 152.5 170 L 151.5 169 Z "></path><path fill="rgb(0,0,0)" stroke="rgb(0,0,0)" stroke-width="1" opacity="0.9254901960784314" d="M 137.5 170 L 34.5 274 L 137.5 170 Z "></path><path fill="rgb(0,0,0)" stroke="rgb(0,0,0)" stroke-width="1" opacity="0.9254901960784314" d="M 145.5 231 L 223.5 308 L 227 309.5 L 225.5 310 L 145.5 232 L 93 283.5 L 145.5 231 Z "></path><path fill="rgb(0,0,0)" stroke="rgb(0,0,0)" stroke-width="1" opacity="0.9254901960784314" d="M 336.5 243 L 267.5 313 L 336.5 243 Z "></path><path fill="rgb(0,0,0)" stroke="rgb(0,0,0)" stroke-width="1" opacity="0.9254901960784314" d="M 145.5 265 L 152 270.5 L 146.5 266 L 139.5 272 L 145.5 265 Z "></path><path fill="rgb(0,0,0)" stroke="rgb(0,0,0)" stroke-width="1" opacity="0.9254901960784314" d="M 32.5 285 L 35 289.5 L 33 288.5 L 32.5 285 Z "></path><path fill="rgb(0,0,0)" stroke="rgb(0,0,0)" stroke-width="1" opacity="0.9254901960784314" d="M 175.5 294 L 207.5 327 L 175.5 294 Z "></path><path fill="rgb(0,0,0)" stroke="rgb(0,0,0)" stroke-width="1" opacity="0.9254901960784314" d="M 247.5 298 L 238.5 308 L 247.5 298 Z "></path><path fill="rgb(0,0,0)" stroke="rgb(0,0,0)" stroke-width="1" opacity="0.9254901960784314" d="M 45.5 300 L 53.5 309 L 45.5 300 Z "></path><path fill="rgb(0,0,0)" stroke="rgb(0,0,0)" stroke-width="1" opacity="0.9254901960784314" d="M 68.5 307 L 67.5 309 L 68.5 307 Z "></path><path fill="rgb(0,0,0)" stroke="rgb(0,0,0)" stroke-width="1" opacity="0.9254901960784314" d="M 57.5 310 L 60 310.5 L 57.5 311 L 57.5 310 Z "></path><path fill="rgb(0,0,0)" stroke="rgb(0,0,0)" stroke-width="1" opacity="0.9254901960784314" d="M 61.5 310 L 64 310.5 L 61.5 311 L 61.5 310 Z "></path><path fill="rgb(0,0,0)" stroke="rgb(0,0,0)" stroke-width="1" opacity="0.9254901960784314" d="M 267.5 314 L 268 465.5 L 267 465.5 L 267.5 314 Z "></path><path fill="rgb(0,0,0)" stroke="rgb(0,0,0)" stroke-width="1" opacity="0.9254901960784314" d="M 85.5 324 L 82.5 328 L 85.5 324 Z "></path><path fill="rgb(0,0,0)" stroke="rgb(0,0,0)" stroke-width="1" opacity="0.9254901960784314" d="M 209.5 327 L 210.5 329 L 209.5 327 Z "></path><path fill="rgb(0,0,0)" stroke="rgb(0,0,0)" stroke-width="1" opacity="0.9254901960784314" d="M 222.5 333 L 225 333.5 L 222.5 334 L 222.5 333 Z "></path><path fill="rgb(0,0,0)" stroke="rgb(0,0,0)" stroke-width="1" opacity="0.9254901960784314" d="M 267.5 467 L 268 469.5 L 267 469.5 L 267.5 467 Z "></path><path fill="rgb(0,0,0)" stroke="rgb(0,0,0)" stroke-width="1" opacity="0.9254901960784314" d="M 82.5 468 L 83 470.5 L 82 470.5 L 82.5 468 Z "></path><path fill="rgb(0,0,0)" stroke="rgb(0,0,0)" stroke-width="1" opacity="0.9254901960784314" d="M 428.5 472 L 429 473.5 L 423 478.5 L 428.5 472 Z "></path><path fill="rgb(0,0,0)" stroke="rgb(0,0,0)" stroke-width="1" opacity="0.9254901960784314" d="M 242.5 474 L 241.5 476 L 242.5 474 Z "></path><path fill="rgb(0,0,0)" stroke="rgb(0,0,0)" stroke-width="1" opacity="0.9254901960784314" d="M 269.5 474 L 273.5 479 L 269.5 474 Z "></path><path fill="rgb(0,0,0)" stroke="rgb(0,0,0)" stroke-width="1" opacity="0.9254901960784314" d="M 149.5 475 L 148.5 477 L 149.5 475 Z "></path><path fill="rgb(0,0,0)" stroke="rgb(0,0,0)" stroke-width="1" opacity="0.9254901960784314" d="M 177.5 475 L 179.5 478 L 177.5 475 Z "></path><path fill="rgb(0,0,0)" stroke="rgb(0,0,0)" stroke-width="1" opacity="0.9254901960784314" d="M 334.5 475 L 332.5 478 L 334.5 475 Z "></path><path fill="rgb(0,0,0)" stroke="rgb(0,0,0)" stroke-width="1" opacity="0.9254901960784314" d="M 362.5 475 L 364.5 478 L 362.5 475 Z "></path><path fill="rgb(0,0,0)" stroke="rgb(0,0,0)" stroke-width="1" opacity="0.9254901960784314" d="M 87.5 477 L 88.5 479 L 87.5 477 Z "></path><path fill="rgb(0,0,0)" stroke="rgb(0,0,0)" stroke-width="1" opacity="0.9254901960784314" d="M 239.5 477 L 238.5 479 L 235.5 480 L 235.5 479 L 239.5 477 Z "></path><path fill="rgb(0,0,0)" stroke="rgb(0,0,0)" stroke-width="1" opacity="0.6235294117647059" d="M 374.5 31 L 474.5 31 L 476 32.5 L 474.5 32 L 374.5 32 L 369.5 36 L 372.5 32 L 374.5 31 Z "></path><path fill="rgb(0,0,0)" stroke="rgb(0,0,0)" stroke-width="1" opacity="0.6235294117647059" d="M 477.5 33 L 481 37.5 L 481 137.5 L 476.5 143 L 479 139.5 L 480 137.5 L 480 37.5 L 477.5 33 Z "></path><path fill="rgb(0,0,0)" stroke="rgb(0,0,0)" stroke-width="1" opacity="0.6235294117647059" d="M 367.5 40 L 369 45.5 L 400 77.5 L 231.5 246 L 229.5 246 L 153.5 169 L 229.5 245 L 231.5 245 L 399 76.5 L 368 45.5 L 367.5 40 Z "></path><path fill="rgb(0,0,0)" stroke="rgb(0,0,0)" stroke-width="1" opacity="0.6235294117647059" d="M 434.5 112 L 466.5 143 L 472 144.5 L 469.5 145 L 466.5 144 L 434.5 113 L 238.5 309 Q 234.8 312.3 226.5 311 L 226.5 310 Q 234.8 311.3 238.5 308 L 434.5 112 Z "></path><path fill="rgb(0,0,0)" stroke="rgb(0,0,0)" stroke-width="1" opacity="0.6235294117647059" d="M 429.5 149 L 431 149.5 L 431 470.5 L 429.5 473 L 429 471.5 L 430 470.5 L 430 150.5 L 360 219.5 L 360 471.5 L 364.5 478 L 368.5 480 L 421.5 480 L 428.5 474 L 423.5 480 L 421.5 481 L 368.5 481 L 361 475.5 L 359 471.5 L 359 219.5 L 429.5 149 Z "></path><path fill="rgb(0,0,0)" stroke="rgb(0,0,0)" stroke-width="1" opacity="0.6235294117647059" d="M 141.5 167 Q 149 165.5 152 168.5 L 150.5 169 L 149.5 168 L 141.5 168 L 137.5 170 L 34 273.5 Q 30.5 277.5 32 286.5 L 53.5 309 L 57 310.5 L 55.5 311 L 32 288.5 Q 29.5 285 31 277.5 L 33 273.5 L 137.5 169 L 141.5 167 Z "></path><path fill="rgb(0,0,0)" stroke="rgb(0,0,0)" stroke-width="1" opacity="0.6235294117647059" d="M 145.5 232 L 223 308.5 L 146.5 233 L 99.5 279 L 145.5 232 Z "></path><path fill="rgb(0,0,0)" stroke="rgb(0,0,0)" stroke-width="1" opacity="0.6235294117647059" d="M 337.5 241 L 338 471.5 L 332.5 479 L 328.5 481 L 276.5 481 L 276.5 480 L 328.5 480 L 335 475.5 L 337 471.5 L 337 243.5 L 267 312.5 L 267 469.5 Q 268.5 476 273.5 479 L 275 479.5 L 273.5 480 Q 267.8 476.7 266 469.5 L 266 312.5 L 337.5 241 Z "></path><path fill="rgb(0,0,0)" stroke="rgb(0,0,0)" stroke-width="1" opacity="0.6235294117647059" d="M 145.5 264 L 153 270.5 L 153 470.5 L 150.5 475 L 151 473.5 L 152 470.5 L 152 270.5 L 145.5 265 L 86 323.5 L 134.5 274 L 145.5 264 Z "></path><path fill="rgb(0,0,0)" stroke="rgb(0,0,0)" stroke-width="1" opacity="0.6235294117647059" d="M 92.5 284 L 67.5 310 Q 64.8 312.8 58.5 312 L 58.5 311 Q 64.8 311.8 67.5 309 L 92.5 284 Z "></path><path fill="rgb(0,0,0)" stroke="rgb(0,0,0)" stroke-width="1" opacity="0.6235294117647059" d="M 174 293 L 175.5 293 L 209 326.5 L 175 294.5 L 175 471.5 L 179.5 478 L 183.5 480 L 236.5 480 L 243 474.5 L 245 469.5 L 245 331.5 L 243.5 332 L 236.5 334 L 225.5 334 L 225.5 333 Q 238 334.5 244.5 330 L 246 331.5 L 246 469.5 Q 244.2 476.7 238.5 480 L 236.5 481 L 183.5 481 L 176 475.5 L 174 471.5 L 174 293 Z "></path><path fill="rgb(0,0,0)" stroke="rgb(0,0,0)" stroke-width="1" opacity="0.6235294117647059" d="M 84.5 324 L 82 327.5 L 81.5 470 L 81 327.5 L 84.5 324 Z "></path><path fill="rgb(0,0,0)" stroke="rgb(0,0,0)" stroke-width="1" opacity="0.6235294117647059" d="M 210.5 327 L 220 331.5 L 217.5 332 L 211.5 329 L 210.5 327 Z "></path><path fill="rgb(0,0,0)" stroke="rgb(0,0,0)" stroke-width="1" opacity="0.6235294117647059" d="M 221.5 332 L 224 332.5 L 221.5 333 L 221.5 332 Z "></path><path fill="rgb(0,0,0)" stroke="rgb(0,0,0)" stroke-width="1" opacity="0.6235294117647059" d="M 82.5 471 L 88.5 479 L 90.5 480 L 143.5 480 L 149.5 476 L 148.5 478 L 143.5 481 L 90.5 481 L 83 474.5 L 82.5 471 Z "></path><path fill="rgb(0,0,0)" stroke="rgb(0,0,0)" stroke-width="1" opacity="1" d="M 375.5 32 L 473.5 32 L 478 35.5 L 480 38.5 L 480 136.5 L 475.5 142 L 467.5 143 L 434.5 111 L 248.5 298 L 237.5 308 Q 234.5 311 227.5 310 L 223.5 308 L 145.5 231 L 69.5 307 L 60.5 311 L 54.5 309 L 35 290.5 L 32 284.5 L 32 278.5 L 34 274.5 L 138.5 170 Q 141.5 167 148.5 168 Q 158.6 171.9 164 180.5 L 229.5 247 L 231.5 247 L 401 77.5 L 369 44.5 L 369 38.5 L 373.5 33 L 375.5 32 Z "></path><path fill="rgb(0,0,0)" stroke="rgb(0,0,0)" stroke-width="1" opacity="1" d="M 429.5 151 L 430 468.5 Q 428.2 475.7 422.5 479 L 420.5 480 L 369.5 480 L 362 474.5 L 360 469.5 L 360 220.5 L 429.5 151 Z "></path><path fill="rgb(0,0,0)" stroke="rgb(0,0,0)" stroke-width="1" opacity="1" d="M 336.5 244 L 337 470.5 L 331.5 478 L 327.5 480 L 277.5 480 Q 271.4 478.6 269 473.5 L 267 466.5 L 268 465.5 L 268 314.5 L 267 313.5 L 336.5 244 Z "></path><path fill="rgb(0,0,0)" stroke="rgb(0,0,0)" stroke-width="1" opacity="1" d="M 145.5 266 L 152 271.5 L 152 469.5 Q 150.8 475.3 146.5 478 L 142.5 480 L 92.5 480 L 85 475.5 L 82 467.5 L 82 328.5 L 145.5 266 Z "></path><path fill="rgb(0,0,0)" stroke="rgb(0,0,0)" stroke-width="1" opacity="1" d="M 175.5 295 L 210.5 329 L 222.5 334 L 238.5 334 L 245 332 L 245 467.5 L 241 477 L 234.5 480 L 184.5 480 L 177 474.5 L 175 470.5 L 175.5 295 Z "></path></svg>