<svg width="376" height="376" version="1.1" xmlns="http://www.w3.org/2000/svg"><path fill="rgb(0,0,0)" stroke="rgb(0,0,0)" stroke-width="1" opacity="0" d="M 0 0 L 376 0 L 376 376 L 0 376 L 0 0 Z M 112 22 L 110 23 L 105 29 L 105 45 L 51 45 L 37 52 Q 28 58 26 71 L 26 328 L 31 341 Q 38 351 54 354 L 323 354 L 331 352 L 338 348 Q 347 341 350 328 L 350 71 Q 348 61 343 56 Q 337 48 326 45 L 271 45 L 271 29 L 270 27 L 265 22 L 260 23 L 255 30 L 255 45 L 255 45 L 121 45 L 120 27 Q 118 22 112 22 Z "></path><path fill="rgb(0,0,0)" stroke="rgb(0,0,0)" stroke-width="1" opacity="0" d="M 55.5 60 L 105 60 L 105 77.5 L 108.5 82 L 114.5 83 L 120 78.5 L 121 75.5 L 121 60 L 254.5 60 L 255 60.5 L 255 75.5 L 259.5 82 L 265.5 83 L 270 79.5 L 271 77.5 L 271 60 L 320.5 60 Q 328.3 61.2 332 66.5 L 334 70.5 L 334 105 L 42.5 105 L 42 104.5 L 42 70.5 L 47.5 63 L 55.5 60 Z "></path><path fill="rgb(0,0,0)" stroke="rgb(0,0,0)" stroke-width="1" opacity="0" d="M 42 121 L 334 121 L 334 327.5 Q 332.6 333.6 327.5 336 L 323.5 338 L 52.5 338 L 43 330.5 L 42 327.5 L 42 121 Z M 69 158 L 64 163 L 64 221 L 65 223 L 70 226 L 126 226 L 130 224 L 132 220 L 132 164 L 131 162 L 127 158 L 69 158 Z M 159 158 L 154 164 L 154 221 L 155 223 L 161 226 L 216 226 L 219 225 L 222 221 L 222 164 L 221 162 L 218 158 L 159 158 Z M 250 158 L 248 159 L 244 164 L 244 220 L 246 224 L 251 226 L 307 226 L 309 225 L 312 221 L 312 163 L 308 158 L 250 158 Z M 70 248 L 68 249 L 64 253 L 64 312 L 70 316 L 127 316 L 129 315 L 132 310 L 132 255 L 131 252 L 127 248 L 70 248 Z M 160 248 L 158 249 L 154 254 L 154 311 L 155 313 L 160 316 L 217 316 L 219 315 L 222 311 L 222 254 L 221 252 L 217 248 L 160 248 Z M 250 248 L 248 249 L 244 255 L 244 310 L 245 313 L 250 316 L 307 316 L 309 315 L 312 312 L 312 253 L 307 248 L 250 248 Z "></path><path fill="rgb(0,0,0)" stroke="rgb(0,0,0)" stroke-width="1" opacity="0" d="M 79 173 L 116 173 L 116 210 L 79 210 L 79 173 Z "></path><path fill="rgb(0,0,0)" stroke="rgb(0,0,0)" stroke-width="1" opacity="0" d="M 169 173 L 207 173 L 207 210 L 169 210 L 169 173 Z "></path><path fill="rgb(0,0,0)" stroke="rgb(0,0,0)" stroke-width="1" opacity="0" d="M 260 173 L 297 173 L 297 210 L 260 210 L 260 173 Z "></path><path fill="rgb(0,0,0)" stroke="rgb(0,0,0)" stroke-width="1" opacity="0" d="M 79 263 L 116 263 L 116 301 L 79 301 L 79 263 Z "></path><path fill="rgb(0,0,0)" stroke="rgb(0,0,0)" stroke-width="1" opacity="0" d="M 170.5 263 L 205.5 263 L 207 264.5 L 207 299.5 L 205.5 301 L 170.5 301 L 169 299.5 L 169 264.5 L 170.5 263 Z "></path><path fill="rgb(0,0,0)" stroke="rgb(0,0,0)" stroke-width="1" opacity="0" d="M 260 263 L 297 263 L 297 301 L 260 301 L 260 263 Z "></path><path fill="rgb(0,0,0)" stroke="rgb(0,0,0)" stroke-width="1" opacity="0.5294117647058824" d="M 111.5 22 L 114 22.5 L 111.5 23 L 111.5 22 Z "></path><path fill="rgb(0,0,0)" stroke="rgb(0,0,0)" stroke-width="1" opacity="0.5294117647058824" d="M 262.5 22 L 265 22.5 L 262.5 23 L 262.5 22 Z "></path><path fill="rgb(0,0,0)" stroke="rgb(0,0,0)" stroke-width="1" opacity="0.5294117647058824" d="M 116.5 23 L 119.5 27 L 116.5 23 Z "></path><path fill="rgb(0,0,0)" stroke="rgb(0,0,0)" stroke-width="1" opacity="0.5294117647058824" d="M 259.5 23 L 256.5 27 L 259.5 23 Z "></path><path fill="rgb(0,0,0)" stroke="rgb(0,0,0)" stroke-width="1" opacity="0.5294117647058824" d="M 105.5 28 L 106 44.5 L 105 44.5 L 105.5 28 Z "></path><path fill="rgb(0,0,0)" stroke="rgb(0,0,0)" stroke-width="1" opacity="0.5294117647058824" d="M 270.5 28 L 271 44.5 L 270 44.5 L 270.5 28 Z "></path><path fill="rgb(0,0,0)" stroke="rgb(0,0,0)" stroke-width="1" opacity="0.5294117647058824" d="M 255.5 29 L 256 44.5 L 255 44.5 L 255.5 29 Z "></path><path fill="rgb(0,0,0)" stroke="rgb(0,0,0)" stroke-width="1" opacity="0.5294117647058824" d="M 120.5 30 L 121 44.5 L 120 44.5 L 120.5 30 Z "></path><path fill="rgb(0,0,0)" stroke="rgb(0,0,0)" stroke-width="1" opacity="0.5294117647058824" d="M 50.5 45 L 54 45.5 L 50.5 46 L 50.5 45 Z "></path><path fill="rgb(0,0,0)" stroke="rgb(0,0,0)" stroke-width="1" opacity="0.5294117647058824" d="M 322.5 45 L 326 45.5 L 322.5 46 L 322.5 45 Z "></path><path fill="rgb(0,0,0)" stroke="rgb(0,0,0)" stroke-width="1" opacity="0.5294117647058824" d="M 335.5 49 L 336.5 51 L 335.5 49 Z "></path><path fill="rgb(0,0,0)" stroke="rgb(0,0,0)" stroke-width="1" opacity="0.5294117647058824" d="M 36.5 52 L 34.5 55 L 36.5 52 Z "></path><path fill="rgb(0,0,0)" stroke="rgb(0,0,0)" stroke-width="1" opacity="0.5294117647058824" d="M 339.5 52 L 342.5 56 L 339.5 52 Z "></path><path fill="rgb(0,0,0)" stroke="rgb(0,0,0)" stroke-width="1" opacity="0.5294117647058824" d="M 52.5 60 L 55 60.5 L 52.5 61 L 52.5 60 Z "></path><path fill="rgb(0,0,0)" stroke="rgb(0,0,0)" stroke-width="1" opacity="0.5294117647058824" d="M 105.5 60 L 106 77.5 L 105 77.5 L 105.5 60 Z "></path><path fill="rgb(0,0,0)" stroke="rgb(0,0,0)" stroke-width="1" opacity="0.5294117647058824" d="M 120.5 60 L 121 75.5 L 120 75.5 L 120.5 60 Z "></path><path fill="rgb(0,0,0)" stroke="rgb(0,0,0)" stroke-width="1" opacity="0.5294117647058824" d="M 255.5 60 L 256 75.5 L 255 75.5 L 255.5 60 Z "></path><path fill="rgb(0,0,0)" stroke="rgb(0,0,0)" stroke-width="1" opacity="0.5294117647058824" d="M 270.5 60 L 271 77.5 L 270 77.5 L 270.5 60 Z "></path><path fill="rgb(0,0,0)" stroke="rgb(0,0,0)" stroke-width="1" opacity="0.5294117647058824" d="M 321.5 60 L 324 60.5 L 321.5 61 L 321.5 60 Z "></path><path fill="rgb(0,0,0)" stroke="rgb(0,0,0)" stroke-width="1" opacity="0.5294117647058824" d="M 26.5 70 L 27 327.5 L 26 327.5 L 26.5 70 Z "></path><path fill="rgb(0,0,0)" stroke="rgb(0,0,0)" stroke-width="1" opacity="0.5294117647058824" d="M 349.5 70 L 350 327.5 L 349 327.5 L 349.5 70 Z "></path><path fill="rgb(0,0,0)" stroke="rgb(0,0,0)" stroke-width="1" opacity="0.5294117647058824" d="M 41.5 72 L 42 105 L 333.5 105 L 334 104.5 L 334 72.5 L 335 72.5 L 335 104.5 L 333.5 106 L 42.5 106 L 41 104.5 L 41.5 72 Z "></path><path fill="rgb(0,0,0)" stroke="rgb(0,0,0)" stroke-width="1" opacity="0.5294117647058824" d="M 106.5 79 L 108.5 82 L 106.5 79 Z "></path><path fill="rgb(0,0,0)" stroke="rgb(0,0,0)" stroke-width="1" opacity="0.5294117647058824" d="M 269.5 79 L 267.5 82 L 269.5 79 Z "></path><path fill="rgb(0,0,0)" stroke="rgb(0,0,0)" stroke-width="1" opacity="0.5294117647058824" d="M 110.5 82 L 115 82.5 L 110.5 83 L 110.5 82 Z "></path><path fill="rgb(0,0,0)" stroke="rgb(0,0,0)" stroke-width="1" opacity="0.5294117647058824" d="M 261.5 82 L 266 82.5 L 261.5 83 L 261.5 82 Z "></path><path fill="rgb(0,0,0)" stroke="rgb(0,0,0)" stroke-width="1" opacity="0.5294117647058824" d="M 41 120 L 335 120 L 335 326.5 L 334 326.5 L 334 121 L 42 121 L 41.5 327 L 41 120 Z "></path><path fill="rgb(0,0,0)" stroke="rgb(0,0,0)" stroke-width="1" opacity="0.5294117647058824" d="M 216.5 158 L 219 159.5 L 217.5 159 L 216.5 158 Z "></path><path fill="rgb(0,0,0)" stroke="rgb(0,0,0)" stroke-width="1" opacity="0.5294117647058824" d="M 128.5 159 L 130.5 162 L 128.5 159 Z "></path><path fill="rgb(0,0,0)" stroke="rgb(0,0,0)" stroke-width="1" opacity="0.5294117647058824" d="M 247.5 159 L 245.5 162 L 247.5 159 Z "></path><path fill="rgb(0,0,0)" stroke="rgb(0,0,0)" stroke-width="1" opacity="0.5294117647058824" d="M 131.5 163 L 132 219.5 L 131 219.5 L 131.5 163 Z "></path><path fill="rgb(0,0,0)" stroke="rgb(0,0,0)" stroke-width="1" opacity="0.5294117647058824" d="M 244.5 163 L 245 219.5 L 244 219.5 L 244.5 163 Z "></path><path fill="rgb(0,0,0)" stroke="rgb(0,0,0)" stroke-width="1" opacity="0.5294117647058824" d="M 116.5 173 L 117 211 L 79 210.5 L 116 210 L 116.5 173 Z "></path><path fill="rgb(0,0,0)" stroke="rgb(0,0,0)" stroke-width="1" opacity="0.5294117647058824" d="M 259.5 173 L 260 210 L 297 210.5 L 259 211 L 259.5 173 Z "></path><path fill="rgb(0,0,0)" stroke="rgb(0,0,0)" stroke-width="1" opacity="0.5294117647058824" d="M 169.5 210 L 207 210.5 L 169.5 211 L 169.5 210 Z "></path><path fill="rgb(0,0,0)" stroke="rgb(0,0,0)" stroke-width="1" opacity="0.5294117647058824" d="M 65.5 222 L 67.5 225 L 65.5 222 Z "></path><path fill="rgb(0,0,0)" stroke="rgb(0,0,0)" stroke-width="1" opacity="0.5294117647058824" d="M 155.5 222 L 157.5 225 L 155.5 222 Z "></path><path fill="rgb(0,0,0)" stroke="rgb(0,0,0)" stroke-width="1" opacity="0.5294117647058824" d="M 220.5 222 L 218.5 225 L 220.5 222 Z "></path><path fill="rgb(0,0,0)" stroke="rgb(0,0,0)" stroke-width="1" opacity="0.5294117647058824" d="M 310.5 222 L 308.5 225 L 310.5 222 Z "></path><path fill="rgb(0,0,0)" stroke="rgb(0,0,0)" stroke-width="1" opacity="0.5294117647058824" d="M 69.5 225 L 126 225.5 L 69.5 226 L 69.5 225 Z "></path><path fill="rgb(0,0,0)" stroke="rgb(0,0,0)" stroke-width="1" opacity="0.5294117647058824" d="M 160.5 225 L 216 225.5 L 160.5 226 L 160.5 225 Z "></path><path fill="rgb(0,0,0)" stroke="rgb(0,0,0)" stroke-width="1" opacity="0.5294117647058824" d="M 250.5 225 L 307 225.5 L 250.5 226 L 250.5 225 Z "></path><path fill="rgb(0,0,0)" stroke="rgb(0,0,0)" stroke-width="1" opacity="0.5294117647058824" d="M 128.5 249 L 130.5 252 L 128.5 249 Z "></path><path fill="rgb(0,0,0)" stroke="rgb(0,0,0)" stroke-width="1" opacity="0.5294117647058824" d="M 157.5 249 L 155.5 252 L 157.5 249 Z "></path><path fill="rgb(0,0,0)" stroke="rgb(0,0,0)" stroke-width="1" opacity="0.5294117647058824" d="M 218.5 249 L 220.5 252 L 218.5 249 Z "></path><path fill="rgb(0,0,0)" stroke="rgb(0,0,0)" stroke-width="1" opacity="0.5294117647058824" d="M 247.5 249 L 245.5 252 L 247.5 249 Z "></path><path fill="rgb(0,0,0)" stroke="rgb(0,0,0)" stroke-width="1" opacity="0.5294117647058824" d="M 310.5 251 L 312 253.5 L 311 253.5 L 310.5 251 Z "></path><path fill="rgb(0,0,0)" stroke="rgb(0,0,0)" stroke-width="1" opacity="0.5294117647058824" d="M 131.5 254 L 132 309.5 L 131 309.5 L 131.5 254 Z "></path><path fill="rgb(0,0,0)" stroke="rgb(0,0,0)" stroke-width="1" opacity="0.5294117647058824" d="M 244.5 254 L 245 309.5 L 244 309.5 L 244.5 254 Z "></path><path fill="rgb(0,0,0)" stroke="rgb(0,0,0)" stroke-width="1" opacity="0.5294117647058824" d="M 116.5 263 L 117 300.5 L 116 300.5 L 116.5 263 Z "></path><path fill="rgb(0,0,0)" stroke="rgb(0,0,0)" stroke-width="1" opacity="0.5294117647058824" d="M 259.5 263 L 260 300.5 L 259 300.5 L 259.5 263 Z "></path><path fill="rgb(0,0,0)" stroke="rgb(0,0,0)" stroke-width="1" opacity="0.5294117647058824" d="M 64.5 310 L 66 312.5 L 64 311.5 L 64.5 310 Z "></path><path fill="rgb(0,0,0)" stroke="rgb(0,0,0)" stroke-width="1" opacity="0.5294117647058824" d="M 311.5 310 L 312 311.5 L 310 312.5 L 311.5 310 Z "></path><path fill="rgb(0,0,0)" stroke="rgb(0,0,0)" stroke-width="1" opacity="0.5294117647058824" d="M 130.5 312 L 128.5 315 L 130.5 312 Z "></path><path fill="rgb(0,0,0)" stroke="rgb(0,0,0)" stroke-width="1" opacity="0.5294117647058824" d="M 155.5 312 L 157.5 315 L 155.5 312 Z "></path><path fill="rgb(0,0,0)" stroke="rgb(0,0,0)" stroke-width="1" opacity="0.5294117647058824" d="M 220.5 312 L 218.5 315 L 220.5 312 Z "></path><path fill="rgb(0,0,0)" stroke="rgb(0,0,0)" stroke-width="1" opacity="0.5294117647058824" d="M 245.5 312 L 247.5 315 L 245.5 312 Z "></path><path fill="rgb(0,0,0)" stroke="rgb(0,0,0)" stroke-width="1" opacity="0.5294117647058824" d="M 44.5 332 L 47.5 336 L 44.5 332 Z "></path><path fill="rgb(0,0,0)" stroke="rgb(0,0,0)" stroke-width="1" opacity="0.5294117647058824" d="M 331.5 332 L 328.5 336 L 331.5 332 Z "></path><path fill="rgb(0,0,0)" stroke="rgb(0,0,0)" stroke-width="1" opacity="0.5294117647058824" d="M 54.5 338 L 322 338.5 L 54.5 339 L 54.5 338 Z "></path><path fill="rgb(0,0,0)" stroke="rgb(0,0,0)" stroke-width="1" opacity="0.5294117647058824" d="M 31.5 340 L 33.5 343 L 31.5 340 Z "></path><path fill="rgb(0,0,0)" stroke="rgb(0,0,0)" stroke-width="1" opacity="0.5294117647058824" d="M 343.5 341 L 342.5 343 L 343.5 341 Z "></path><path fill="rgb(0,0,0)" stroke="rgb(0,0,0)" stroke-width="1" opacity="0.5294117647058824" d="M 37.5 346 L 38.5 348 L 37.5 346 Z "></path><path fill="rgb(0,0,0)" stroke="rgb(0,0,0)" stroke-width="1" opacity="0.5294117647058824" d="M 338.5 346 L 337.5 348 L 338.5 346 Z "></path><path fill="rgb(0,0,0)" stroke="rgb(0,0,0)" stroke-width="1" opacity="0.5294117647058824" d="M 53.5 353 L 323 353.5 L 53.5 354 L 53.5 353 Z "></path><path fill="rgb(0,0,0)" stroke="rgb(0,0,0)" stroke-width="1" opacity="0.996078431372549" d="M 110.5 23 L 115.5 23 L 120 27.5 L 120 44.5 L 120.5 45 L 256 45 L 256 27.5 L 260.5 23 Q 268.1 21.9 270 26.5 L 270 45 L 321.5 45 L 334.5 49 L 344 57.5 L 349 68.5 L 349 330.5 Q 346.1 340.1 339.5 346 L 325.5 353 L 50.5 353 Q 40 350.5 34 343.5 L 27 330.5 L 27 68.5 Q 29.9 56.9 38.5 51 L 45.5 47 L 54.5 45 L 106 45 L 106 26.5 L 108.5 24 L 110.5 23 Z M 53 60 L 49 62 Q 43 65 41 73 L 41 105 L 43 106 L 334 106 L 335 105 L 335 73 L 333 68 L 324 60 L 270 60 L 270 79 L 267 82 L 259 81 L 256 78 L 256 61 L 256 60 L 120 60 L 120 78 L 119 80 L 116 82 Q 108 84 106 79 L 106 60 L 53 60 Z M 41 120 L 41 327 L 44 333 Q 48 337 55 339 L 322 339 L 329 336 L 335 327 L 335 120 L 41 120 Z "></path><path fill="rgb(0,0,0)" stroke="rgb(0,0,0)" stroke-width="1" opacity="0.996078431372549" d="M 69.5 158 L 125.5 158 L 131 162.5 L 131 220.5 L 128.5 224 L 126.5 225 L 68.5 225 L 64 219.5 L 64 163.5 L 67.5 159 L 69.5 158 Z M 79 173 L 79 211 L 117 211 L 117 173 L 79 173 Z "></path><path fill="rgb(0,0,0)" stroke="rgb(0,0,0)" stroke-width="1" opacity="0.996078431372549" d="M 160.5 158 L 215.5 158 L 220 160 L 222 165.5 L 222 218.5 L 217.5 225 L 158.5 225 L 155 221.5 L 154 218.5 L 154 165.5 L 157.5 159 L 160.5 158 Z M 169 173 L 169 211 L 207 211 L 207 173 L 169 173 Z "></path><path fill="rgb(0,0,0)" stroke="rgb(0,0,0)" stroke-width="1" opacity="0.996078431372549" d="M 250.5 158 L 306.5 158 L 311 161.5 L 312 163.5 L 312 219.5 L 307.5 225 L 249.5 225 L 246 222.5 L 245 220.5 L 245 162.5 L 250.5 158 Z M 259 173 L 259 211 L 297 211 L 297 173 L 259 173 Z "></path><path fill="rgb(0,0,0)" stroke="rgb(0,0,0)" stroke-width="1" opacity="0.996078431372549" d="M 71.5 248 L 124.5 248 L 131 252.5 L 131 311.5 L 127.5 315 L 124.5 316 L 71.5 316 L 66 314 L 64 309.5 L 64 254.5 L 66.5 250 L 71.5 248 Z M 79 263 L 79 301 L 117 301 L 117 263 L 79 263 Z "></path><path fill="rgb(0,0,0)" stroke="rgb(0,0,0)" stroke-width="1" opacity="0.996078431372549" d="M 161.5 248 L 214.5 248 L 221 252.5 L 222 255.5 L 222 308.5 L 217.5 315 L 214.5 316 L 161.5 316 L 155 311.5 L 154 308.5 L 154 255.5 L 158.5 249 L 161.5 248 Z M 169 263 L 169 301 L 207 301 L 207 263 L 169 263 Z "></path><path fill="rgb(0,0,0)" stroke="rgb(0,0,0)" stroke-width="1" opacity="0.996078431372549" d="M 251.5 248 L 304.5 248 L 310 250 L 312 254.5 L 312 309.5 L 310 314 L 304.5 316 L 251.5 316 L 245 311.5 L 245 252.5 L 248.5 249 L 251.5 248 Z M 259 263 L 259 301 L 297 301 L 297 263 L 259 263 Z "></path></svg>