<!DOCTYPE svg PUBLIC "-//W3C//DTD SVG 20010904//EN"
 "http://www.w3.org/TR/2001/REC-SVG-20010904/DTD/svg10.dtd">
<svg version="1.0" xmlns="http://www.w3.org/2000/svg" class="heart" width="200.000000pt" height="200.000000pt" viewBox="0 0 200.000000 200.000000">
<g fill="#000000" stroke="none">
<path d="M448 1890 c-112 -18 -235 -85 -314 -173 -126 -140 -168 -348 -109 -534 14 -43 29 -84 33 -91 7 -9 78 -12 322 -10 l314 3 54 120 c30 66 70 154 89 195 l36 75 13 -42 c7 -23 61 -200 120 -392 59 -193 110 -351 113 -351 4 0 49 88 100 195 l94 195 313 0 313 0 20 56 c32 84 40 131 41 225 0 243 -162 453 -400 519 -68 19 -214 17 -285 -4 -115 -34 -224 -108 -293 -200 l-22 -29 -22 29 c-121 160 -331 245 -530 214z"/>
<path d="M794 1173 l-62 -138 -321 -5 -322 -5 36 -60 c122 -202 399 -485 753 -769 l122 -98 143 115 c351 284 642 586 742 768 l26 49 -280 0 -280 0 -123 -252 -123 -251 -120 391 c-65 216 -122 392 -125 392 -3 0 -33 -62 -66 -137z"/>
</g>
</svg>