<svg width="980" height="928" version="1.1" xmlns="http://www.w3.org/2000/svg"><path fill="rgb(3,3,3)" stroke="rgb(3,3,3)" stroke-width="1" opacity="1" d="M 485.5 0 L 497.5 1 L 512.5 9 L 524.5 19 L 953.5 320 L 967.5 330 L 976 338.5 Q 982.3 347.2 980 364.5 L 975 376.5 L 969 385 L 954.5 394 L 940.5 396 L 929.5 393 L 903 375 L 903 899.5 Q 899.9 911.9 891.5 919 Q 882.5 928 864.5 928 L 848.5 923 L 838 913.5 L 833 904.5 L 831 895.5 L 831 323.5 L 829.5 322 L 491.5 84 L 488.5 84 L 156 319.5 L 156 895.5 Q 153.3 912.8 141.5 921 Q 132.8 928.3 116.5 928 L 107.5 926 L 99.5 922 L 92 915.5 L 84 899.5 L 83.5 370 L 53.5 392 Q 46.7 397.7 33.5 397 Q 17.1 394.4 9 383.5 L 1 369.5 Q -1.6 361.6 0 349.5 Q 2.9 336.9 12.5 331 L 462 13.5 L 464.5 10 Q 472.2 2.2 485.5 0 Z "></path><path fill="rgb(3,3,3)" stroke="rgb(3,3,3)" stroke-width="1" opacity="1" d="M 243.5 359 L 345.5 359 L 355.5 361 L 365 368.5 L 369 379.5 L 369 488.5 L 367 496.5 L 362.5 503 L 355.5 507 L 346.5 509 L 243.5 509 L 231.5 506 L 225 500.5 L 222 493.5 L 221 481.5 L 220 480.5 L 220 387.5 L 223 371.5 L 228.5 364 L 234.5 361 L 243.5 359 Z "></path><path fill="rgb(3,3,3)" stroke="rgb(3,3,3)" stroke-width="1" opacity="1" d="M 245.5 550 L 343.5 550 L 357.5 553 L 365 559.5 L 369 570.5 L 369 679.5 L 367 687.5 L 361.5 695 L 356.5 698 L 348.5 700 L 241.5 700 L 229.5 696 L 225 691.5 L 222 685.5 L 221 672.5 L 220 671.5 L 220 578.5 L 223 562.5 L 230.5 554 L 234.5 552 L 245.5 550 Z "></path><path fill="rgb(3,3,3)" stroke="rgb(3,3,3)" stroke-width="1" opacity="1" d="M 447.5 550 L 545.5 550 L 559.5 553 L 566 558.5 L 568 561.5 L 571 573.5 L 571 676.5 L 569 686.5 L 561.5 696 L 549.5 700 L 443.5 700 L 431.5 696 L 426 690.5 L 422 676.5 L 422 573.5 L 425 561.5 L 430.5 555 L 436.5 552 L 447.5 550 Z "></path><path fill="rgb(3,3,3)" stroke="rgb(3,3,3)" stroke-width="1" opacity="1" d="M 240.5 742 L 348.5 742 L 360.5 746 L 365 750.5 L 369 762.5 L 369 871.5 L 365 882.5 L 360.5 887 L 354.5 890 L 343.5 891 L 342.5 892 L 247.5 892 L 232.5 889 L 224 881.5 L 221 872.5 L 221 864.5 L 220 863.5 L 220 770.5 L 221 769.5 L 222 756.5 Q 224.3 749.8 229.5 746 L 240.5 742 Z "></path><path fill="rgb(3,3,3)" stroke="rgb(3,3,3)" stroke-width="1" opacity="1" d="M 442.5 742 L 550.5 742 L 560.5 745 L 565 748 L 569 755.5 L 571 764.5 L 571 868.5 L 568 880.5 L 562.5 887 L 556.5 890 L 544.5 891 L 543.5 892 L 449.5 892 L 448.5 891 L 436.5 890 L 427 883.5 L 425 880.5 L 422 868.5 L 422 764.5 L 424 755.5 L 428 748 L 432.5 745 L 442.5 742 Z "></path><path fill="rgb(3,3,3)" stroke="rgb(3,3,3)" stroke-width="1" opacity="1" d="M 644.5 742 L 752.5 742 L 767 748 L 771 755.5 L 773 765.5 L 773 867.5 L 771 877.5 L 765.5 886 L 754.5 891 L 746.5 891 L 745.5 892 L 650.5 892 L 649.5 891 L 638.5 890 Q 631.8 887.8 628 882.5 L 624 871.5 L 624 762.5 L 628 750.5 L 632.5 746 L 644.5 742 Z "></path><path fill="rgb(0,0,0)" stroke="rgb(0,0,0)" stroke-width="1" opacity="0" d="M 0 0 L 485 0.5 Q 470 3 462 12.5 L 458.5 17 L 26.5 321 L 12.5 331 L 4 339.5 L 0.5 349 L 0 0 Z "></path><path fill="rgb(0,0,0)" stroke="rgb(0,0,0)" stroke-width="1" opacity="0" d="M 493.5 0 L 980 0 L 980 347.5 L 979 347.5 Q 976.9 335.1 967.5 330 L 524.5 19 L 512.5 9 L 500.5 2 L 493.5 1 L 493.5 0 Z "></path><path fill="rgb(0,0,0)" stroke="rgb(0,0,0)" stroke-width="1" opacity="0" d="M 488.5 84 L 491.5 84 L 831 323.5 L 831 895.5 Q 833.8 912.8 845.5 921 Q 852.4 926.6 864 927.5 L 123.5 928 L 123.5 927 Q 141.4 925.4 149 913.5 L 154 904.5 L 156 895.5 L 156 319.5 L 158.5 317 L 488.5 84 Z M 244 359 L 235 361 L 229 364 L 223 372 L 220 388 L 220 481 L 221 482 L 222 494 L 225 501 L 232 506 L 244 509 L 347 509 L 356 507 L 363 503 L 367 497 L 369 489 L 369 380 L 365 369 L 356 361 L 346 359 L 244 359 Z M 246 550 L 235 552 L 231 554 L 223 563 L 220 579 L 220 672 L 221 673 L 222 686 L 225 692 L 230 696 L 242 700 L 349 700 L 357 698 L 362 695 L 367 688 L 369 680 L 369 571 L 365 560 L 358 553 L 344 550 L 246 550 Z M 448 550 L 437 552 L 431 555 L 425 562 L 422 574 L 422 677 L 426 691 L 432 696 L 444 700 L 550 700 L 562 696 L 569 687 L 571 677 L 571 574 L 568 562 L 566 559 L 560 553 L 546 550 L 448 550 Z M 241 742 L 230 746 Q 224 750 222 757 L 221 770 L 220 771 L 220 864 L 221 865 L 221 873 L 224 882 L 233 889 L 248 892 L 343 892 L 344 891 L 355 890 L 361 887 L 365 883 L 369 872 L 369 763 L 365 751 L 361 746 L 349 742 L 241 742 Z M 443 742 L 433 745 L 428 748 L 424 756 L 422 765 L 422 869 L 425 881 L 427 884 L 437 890 L 449 891 L 450 892 L 544 892 L 545 891 L 557 890 L 563 887 L 568 881 L 571 869 L 571 765 L 569 756 L 565 748 L 561 745 L 551 742 L 443 742 Z M 645 742 L 633 746 L 628 751 L 624 763 L 624 872 L 628 883 Q 632 888 639 890 L 650 891 L 651 892 L 746 892 L 747 891 L 755 891 L 766 886 L 771 878 L 773 868 L 773 766 L 771 756 L 767 748 L 753 742 L 645 742 Z "></path><path fill="rgb(0,0,0)" stroke="rgb(0,0,0)" stroke-width="1" opacity="0" d="M 979.5 365 L 980 928 L 871 927.5 Q 887.3 925.8 895 915.5 L 903 899.5 L 903 375 L 929.5 393 L 934.5 395 L 945.5 396 L 954.5 394 L 969 385 L 975 376.5 L 979.5 365 Z "></path><path fill="rgb(0,0,0)" stroke="rgb(0,0,0)" stroke-width="1" opacity="0" d="M 0.5 366 L 4 376.5 L 14.5 389 Q 23.1 397.4 40.5 397 L 53.5 392 L 83.5 370 L 84 899.5 Q 87.1 911.9 95.5 919 L 107.5 926 L 116 927.5 L 0 928 L 0.5 366 Z "></path></svg>