<?xml version="1.0" standalone="no"?>
<!DOCTYPE svg PUBLIC "-//W3C//DTD SVG 20010904//EN"
 "http://www.w3.org/TR/2001/REC-SVG-20010904/DTD/svg10.dtd">
<svg version="1.0" xmlns="http://www.w3.org/2000/svg"
 width="800.000000pt" height="667.000000pt" viewBox="0 0 800.000000 667.000000"
 preserveAspectRatio="xMidYMid meet">
<metadata>
Created by potrace 1.16, written by Peter Selinger 2001-2019
</metadata>
<g transform="translate(0.000000,667.000000) scale(0.100000,-0.100000)"
fill="#000000" stroke="none">
<path d="M6095 5454 c-5 -2 -46 -10 -90 -18 -170 -32 -167 -31 -216 -84 -26
-28 -57 -76 -70 -106 -24 -60 -34 -68 -44 -35 -11 33 -135 159 -179 181 -37
19 -51 20 -151 14 -198 -13 -268 -21 -272 -31 -2 -6 -25 -8 -53 -7 -50 4 -50
4 -121 -65 -74 -70 -142 -158 -177 -229 -25 -49 -66 -241 -83 -384 -11 -102
-7 -376 6 -412 5 -13 2 -15 -14 -11 -11 3 -60 -9 -108 -27 -48 -17 -130 -42
-182 -56 -56 -14 -105 -33 -118 -46 -30 -28 -98 -169 -115 -238 -16 -69 -16
-359 1 -485 28 -210 84 -354 177 -454 106 -115 237 -153 349 -101 28 13 56 22
63 21 14 -2 253 74 285 90 23 13 22 8 -15 -69 -41 -83 -158 -208 -186 -197
-17 7 -153 19 -206 18 -15 0 -32 -6 -37 -14 -14 -22 -28 -107 -33 -203 -3 -49
-8 -91 -11 -94 -3 -3 -5 4 -5 16 0 12 -4 22 -10 22 -12 0 -14 -127 -2 -134 9
-6 7 -59 -3 -75 -3 -6 -15 -11 -27 -11 -14 0 -18 -5 -14 -16 3 -9 6 -27 6 -40
0 -20 4 -24 19 -19 22 7 31 -11 24 -48 -3 -15 -14 -29 -27 -33 -20 -7 -20 -8
4 -15 18 -5 20 -7 6 -8 -18 -1 -18 -8 -12 -128 4 -71 8 -139 9 -153 2 -18 -3
-25 -18 -25 -11 0 -21 -8 -23 -17 -2 -12 2 -15 17 -11 23 6 25 -3 15 -55 -5
-22 -10 -29 -22 -25 -12 5 -14 1 -9 -18 4 -13 7 -28 7 -33 0 -4 7 -6 15 -2 9
3 15 0 15 -8 0 -8 -7 -13 -16 -12 -9 0 -19 -5 -21 -11 -3 -8 4 -13 16 -13 16
0 23 -8 28 -30 3 -16 11 -30 19 -30 7 0 20 -10 29 -22 11 -17 18 -20 23 -10 5
7 21 10 43 7 142 -19 166 -18 188 4 11 11 21 30 21 42 0 11 5 17 10 14 11 -7
12 -4 16 35 1 14 5 40 9 58 5 22 4 32 -4 32 -7 0 -9 5 -4 13 4 6 9 66 11 132
5 215 5 215 19 215 7 0 43 -19 80 -43 181 -116 341 -132 558 -56 144 49 232
52 231 7 -1 -13 4 -22 12 -21 7 2 12 -8 12 -23 0 -19 4 -25 15 -21 8 4 17 2
20 -3 4 -6 1 -10 -4 -10 -6 0 -11 -7 -11 -16 0 -10 7 -14 22 -12 18 2 22 -2
23 -22 0 -16 5 -24 14 -22 8 2 11 -3 8 -11 -3 -8 -9 -35 -12 -61 -7 -42 -6
-46 14 -46 22 0 25 -8 15 -33 -4 -12 -12 -13 -34 -7 -16 4 -31 6 -34 2 -6 -5
-9 10 -8 33 1 19 -80 75 -109 75 -16 0 -29 4 -29 9 0 12 -41 11 -57 -2 -7 -5
-21 -6 -32 -2 -11 3 -38 1 -59 -6 -36 -10 -39 -14 -40 -51 -1 -21 -7 -49 -13
-61 -8 -13 -8 -22 -2 -24 6 -2 8 -16 5 -30 -4 -22 -2 -25 12 -20 15 6 16 2 10
-30 -5 -26 -3 -39 8 -47 8 -6 20 -21 27 -33 10 -20 9 -23 -4 -23 -9 0 -15 -6
-13 -12 3 -7 13 -13 24 -13 11 0 18 -6 16 -14 -1 -7 6 -21 18 -31 11 -9 20
-23 20 -30 0 -7 7 -10 15 -6 8 3 18 0 22 -7 9 -13 38 -28 93 -48 35 -12 250
-19 250 -8 0 4 21 14 46 24 44 16 49 17 74 1 34 -19 40 -20 40 -3 0 8 -11 20
-25 27 -25 13 -25 14 -5 32 10 10 28 18 40 18 22 0 27 15 8 23 -10 4 -10 6 0
6 6 1 12 9 12 19 0 23 19 42 42 42 10 0 18 5 18 10 0 6 6 10 14 10 8 0 23 16
35 35 11 19 16 35 10 35 -6 0 -7 5 -4 10 3 5 2 10 -3 10 -4 0 -7 24 -5 54 3
47 0 55 -16 61 -11 3 -18 12 -15 19 2 6 -3 29 -11 50 -20 48 -10 59 40 45 22
-6 78 -9 125 -7 88 4 132 20 241 85 25 16 90 55 145 87 241 145 315 234 335
403 19 159 -10 287 -75 338 l-31 25 32 0 c40 0 82 16 109 41 11 10 47 26 79
34 87 23 161 69 246 154 85 85 125 157 161 288 31 113 31 362 0 519 -36 182
-76 278 -157 377 -120 148 -243 174 -450 97 -60 -22 -126 -50 -146 -60 -20
-11 -39 -20 -42 -20 -3 0 3 21 15 46 31 72 47 185 48 341 0 215 -31 345 -135
554 -121 245 -212 339 -373 389 -59 18 -224 28 -257 14z m-251 -1566 c23 -17
61 -39 86 -50 92 -40 252 -40 342 1 23 10 60 21 81 24 37 6 267 99 297 121 8
6 3 -4 -12 -22 -45 -54 -98 -156 -134 -257 -36 -102 -74 -270 -74 -332 0 -21
-3 -48 -6 -60 -5 -20 -9 -17 -30 25 -29 58 -111 144 -179 187 -107 68 -250
101 -372 84 -64 -9 -347 -111 -374 -135 -8 -8 -22 -14 -30 -14 -30 0 -140 -60
-184 -101 l-45 -42 0 54 c0 30 -14 128 -30 219 -17 91 -30 168 -30 172 0 4
-13 22 -29 40 l-28 33 42 2 c24 1 60 9 82 19 21 9 74 27 118 39 200 57 326
112 353 153 15 23 15 22 65 -53 27 -43 68 -90 91 -107z m-1214 -1539 c0 -11
12 -50 26 -86 24 -61 25 -67 10 -78 -20 -15 -21 -29 -1 -21 11 4 15 -2 14 -22
-1 -17 -3 -20 -6 -9 -2 9 -9 17 -14 17 -12 0 -11 -27 2 -52 8 -15 8 -22 -1
-28 -9 -6 -9 -20 2 -62 9 -36 11 -64 6 -79 -6 -15 -5 -25 1 -27 6 -2 11 -15
11 -28 0 -14 -3 -23 -8 -20 -4 2 -8 -35 -9 -82 -1 -65 -5 -89 -17 -98 -9 -6
-16 -26 -16 -45 0 -40 -14 -67 -25 -49 -4 6 -17 15 -29 20 -17 7 -17 9 -3 9 9
1 17 4 17 7 0 4 -8 13 -17 20 -17 13 -17 14 1 7 17 -5 18 -3 12 23 -4 16 -7
40 -6 54 0 14 2 73 4 132 2 88 5 111 21 128 18 19 18 20 -1 21 -11 0 -13 3 -6
6 6 2 12 13 12 23 0 10 -6 21 -12 23 -10 4 -10 8 1 15 17 12 25 122 10 122 -6
0 -8 8 -4 17 3 10 6 53 6 96 0 47 4 75 9 72 6 -4 10 -15 10 -26z m1331 -500
c11 -5 19 -19 19 -29 0 -11 6 -20 14 -20 9 0 13 -13 13 -41 0 -23 6 -45 13
-49 8 -5 10 -19 6 -41 -4 -19 -11 -61 -16 -94 -6 -33 -14 -69 -20 -80 -5 -11
-10 -31 -12 -45 -2 -16 -10 -26 -23 -28 -11 -2 -25 -9 -30 -17 -18 -22 -89
-55 -120 -55 -46 0 -104 19 -126 41 -11 11 -24 17 -30 14 -14 -9 -39 14 -39
36 0 11 -6 19 -14 19 -20 0 -27 27 -14 55 12 27 3 49 -11 26 -6 -8 -9 2 -9 29
l-1 42 36 -5 c46 -8 49 -12 34 -43 -8 -19 -9 -30 -1 -38 7 -7 10 -6 10 4 1 11
4 10 15 -3 7 -11 11 -25 9 -32 -3 -7 4 -15 15 -18 14 -3 19 -10 15 -21 -4 -10
0 -15 13 -15 10 0 43 -5 73 -9 31 -5 56 -6 58 -1 2 5 8 7 13 3 5 -3 9 -1 9 5
0 6 6 8 13 6 14 -5 41 14 50 35 4 12 6 11 6 -2 1 -10 5 -18 10 -18 5 0 8 11 6
25 -1 14 2 28 7 31 6 4 5 10 -3 15 -11 7 -10 9 3 9 12 0 17 8 17 28 0 15 4 51
9 79 9 54 2 73 -25 73 -9 0 -11 8 -7 24 4 16 1 25 -10 29 -9 4 -13 13 -10 22
3 8 1 15 -5 15 -7 0 -15 8 -18 17 -4 9 -20 29 -37 45 l-31 28 54 -20 c30 -12
62 -25 72 -31z"/>
<path d="M1528 5020 c-72 -22 -177 -131 -220 -230 -67 -154 -80 -356 -35 -543
61 -249 115 -322 320 -431 114 -60 122 -48 47 63 -78 116 -120 280 -120 476 0
137 22 234 82 355 54 110 139 199 216 224 93 31 60 53 -118 75 -47 6 -98 13
-115 15 -16 2 -42 1 -57 -4z"/>
<path d="M2564 5010 c-103 -15 -204 -78 -250 -155 -44 -76 -47 -100 -18 -168
37 -88 68 -270 67 -402 0 -98 -4 -120 -32 -195 l-31 -85 33 -31 c32 -29 238
-124 271 -124 12 0 6 14 -25 55 -56 75 -79 159 -79 292 0 137 18 345 36 417
35 144 147 276 262 310 34 11 62 25 62 31 0 18 -69 44 -148 55 -74 11 -76 11
-148 0z"/>
<path d="M3233 4198 c-6 -7 -18 -40 -28 -73 -44 -154 -147 -283 -260 -323 -97
-36 -90 -21 -90 -188 0 -138 2 -152 24 -194 53 -101 124 -163 225 -196 28 -9
70 -28 94 -41 23 -14 42 -20 42 -14 0 6 -13 35 -29 64 -38 68 -53 147 -52 271
1 176 65 358 171 485 42 51 60 64 130 92 44 18 79 38 77 44 -3 10 -206 74
-263 82 -18 3 -34 -1 -41 -9z"/>
<path d="M787 4126 c-59 -22 -146 -83 -207 -145 -165 -169 -208 -449 -103
-669 35 -73 177 -216 252 -254 30 -15 57 -26 59 -23 2 2 -10 22 -27 44 -68 85
-111 224 -111 356 0 168 72 346 188 463 81 82 157 123 245 131 l62 6 -23 21
c-30 28 -164 73 -237 79 -39 4 -73 0 -98 -9z"/>
<path d="M1963 3726 c-137 -34 -194 -67 -299 -171 -112 -111 -141 -159 -160
-267 -18 -106 -52 -174 -125 -252 -49 -53 -70 -67 -135 -92 -56 -21 -85 -39
-106 -64 -110 -134 -183 -231 -203 -271 -58 -112 -75 -294 -41 -414 55 -186
218 -395 303 -386 6 1 0 22 -17 54 -55 101 -75 189 -75 322 1 104 4 129 27
187 40 105 84 170 203 301 238 261 365 417 446 549 99 161 195 257 320 323
114 60 143 67 283 70 70 2 131 7 134 10 10 9 -13 21 -123 64 -170 67 -275 76
-432 37z"/>
<path d="M3369 2775 c-7 -7 -93 -15 -227 -21 -110 -5 -192 -22 -184 -38 7 -17
1 -129 -7 -118 -14 23 -23 -35 -15 -105 4 -38 10 -60 16 -57 10 7 28 -13 28
-31 0 -5 -5 -3 -10 5 -8 13 -10 12 -10 -3 0 -10 6 -20 14 -23 10 -4 16 -27 20
-67 19 -215 21 -231 36 -268 7 -16 10 -35 6 -44 -3 -8 -1 -15 4 -15 8 0 9 -13
11 -142 1 -32 4 -58 9 -58 4 0 10 -49 14 -109 7 -126 15 -171 28 -171 5 0 27
-9 48 -19 22 -11 42 -15 45 -11 3 5 12 7 19 4 7 -3 33 2 57 10 24 9 52 16 61
16 9 0 24 10 32 22 9 12 16 17 16 10 0 -6 5 -12 10 -12 14 0 12 22 -4 56 -8
16 -16 67 -18 114 -2 71 -1 85 13 88 10 2 19 -5 22 -18 3 -11 1 -20 -4 -20 -7
0 -7 -11 0 -49 1 -2 8 2 16 9 14 12 20 7 16 -14 -1 -5 2 -12 6 -15 15 -11 48
-84 45 -99 -2 -9 2 -13 11 -9 19 7 37 -11 29 -31 -4 -11 -1 -14 11 -9 10 4 20
0 25 -10 7 -12 18 -14 42 -9 19 3 38 1 46 -5 9 -8 36 -9 77 -5 61 7 65 9 81
43 18 39 14 88 -8 96 -8 3 -12 15 -9 30 4 18 -1 28 -16 36 -12 7 -21 22 -21
36 0 13 -6 26 -12 28 -10 4 -10 6 0 6 6 1 12 8 12 17 0 10 -5 14 -15 10 -11
-4 -17 3 -22 24 -3 17 -9 30 -13 30 -5 0 -6 9 -3 20 4 14 0 20 -11 20 -12 0
-16 9 -16 35 0 20 -8 42 -18 52 -11 10 -21 25 -25 35 -7 20 17 56 27 40 12
-20 28 -13 21 8 -6 18 3 25 28 21 4 0 7 6 7 14 0 15 6 18 50 19 22 1 25 5 24
34 -1 17 2 32 7 32 5 0 9 25 9 55 0 40 4 57 15 61 15 6 21 55 8 68 -13 13 -41
141 -31 147 5 3 2 12 -7 19 -8 7 -15 17 -15 23 0 5 -16 27 -35 48 -19 22 -35
45 -35 53 0 16 -27 29 -41 20 -5 -3 -9 -1 -9 4 0 34 -255 114 -281 87z m54
-103 c10 -1 15 -7 12 -12 -4 -6 7 -8 29 -6 28 4 46 -2 83 -27 26 -18 48 -39
49 -47 2 -35 5 -40 18 -40 19 0 26 -22 19 -64 -4 -24 -2 -36 6 -36 6 0 11 6
12 13 1 6 6 -5 13 -26 17 -54 9 -107 -15 -107 -23 0 -36 -27 -21 -42 13 -13
-2 -69 -23 -81 -8 -4 -15 -15 -15 -22 0 -14 -6 -17 -27 -14 -3 0 -10 -6 -15
-15 -5 -9 -16 -16 -23 -16 -8 0 -15 -4 -15 -9 0 -5 -8 -7 -18 -4 -23 6 -48
-47 -37 -74 14 -34 22 -93 13 -93 -5 0 -7 -4 -4 -9 3 -5 14 -7 25 -4 20 5 37
-22 21 -32 -15 -9 9 -47 26 -41 15 6 18 -3 14 -43 -1 -18 2 -22 15 -18 10 5
14 3 9 -4 -4 -6 0 -15 7 -20 8 -4 14 -14 15 -21 0 -7 2 -21 2 -30 1 -10 8 -18
16 -18 34 0 27 -77 -8 -82 -32 -5 -68 30 -55 53 7 13 6 19 -1 19 -19 0 -40 27
-46 59 -4 17 -10 31 -15 31 -5 0 -9 7 -9 15 0 8 -7 15 -15 15 -18 0 -20 26 -2
33 6 3 3 6 -8 7 -20 1 -65 50 -45 50 5 0 10 5 10 10 0 6 -6 10 -14 10 -19 0
-53 53 -38 58 7 2 12 8 12 14 0 6 -7 8 -14 5 -9 -4 -17 1 -21 12 -10 33 -62
74 -82 66 -10 -5 -24 -7 -30 -6 -15 2 -18 -122 -4 -181 5 -23 5 -40 -1 -46
-12 -12 -2 -82 11 -82 13 0 18 -79 6 -84 -6 -2 -5 -8 3 -17 31 -33 -3 -76 -52
-63 -29 7 -36 28 -36 109 0 33 -4 98 -9 145 -5 47 -16 220 -25 385 -9 165 -21
313 -26 328 -5 17 -5 39 1 56 8 23 16 28 47 30 20 1 62 5 92 9 49 6 134 8 183
4z"/>
<path d="M3223 2614 c-18 -8 -33 -19 -33 -25 0 -5 -5 -7 -12 -3 -7 4 -8 3 -4
-5 4 -6 2 -18 -4 -26 -8 -9 -10 -34 -7 -67 3 -29 7 -98 10 -152 5 -98 5 -99
41 -132 32 -29 39 -31 72 -24 21 5 45 5 53 0 10 -4 42 -1 79 8 49 12 73 24
106 57 24 22 48 39 55 37 10 -3 12 15 7 84 -3 49 -6 99 -7 112 -1 12 -8 22
-15 22 -8 0 -17 7 -20 15 -3 8 -14 17 -25 20 -10 4 -19 13 -19 21 0 8 -9 14
-19 14 -11 0 -22 8 -25 18 -4 13 -18 18 -48 20 -82 5 -123 9 -138 15 -8 3 -30
-1 -47 -9z m157 -150 c8 1 29 -13 47 -31 63 -61 32 -152 -55 -159 l-43 -3 2
57 c2 31 -1 67 -5 78 -9 29 10 79 27 67 6 -5 19 -9 27 -9z"/>
<path d="M1800 2606 l-85 -11 -22 -43 c-12 -24 -25 -69 -29 -100 -3 -32 -11
-63 -16 -69 -7 -9 -7 -13 1 -13 6 0 11 -12 10 -27 l0 -28 -10 24 c-14 35 -19
21 -9 -24 12 -52 13 -115 1 -96 -10 16 -4 -67 10 -118 4 -19 5 -39 0 -45 -15
-20 -20 -58 -11 -82 6 -14 6 -26 0 -29 -6 -4 -9 -26 -8 -50 0 -24 5 -42 10
-39 4 3 8 -2 8 -12 0 -14 -3 -14 -15 -4 -12 10 -19 10 -27 2 -8 -8 -9 -12 -1
-12 14 0 25 -29 16 -43 -9 -14 -11 -28 -15 -84 -2 -24 -7 -43 -11 -43 -5 0 -6
-4 -3 -9 4 -5 1 -11 -5 -13 -7 -2 -7 -12 1 -32 6 -18 7 -32 1 -35 -5 -3 -9
-31 -9 -62 1 -30 -5 -72 -11 -92 -10 -30 -10 -41 -1 -53 7 -8 14 -24 15 -37 4
-37 5 -38 18 -36 6 1 26 -3 42 -10 32 -14 146 -8 194 10 40 16 80 59 87 96 3
18 11 33 16 33 7 0 8 16 5 40 -3 26 -1 40 6 41 43 5 77 3 77 -3 0 -5 5 -8 11
-8 6 0 9 6 6 13 -3 8 -1 20 4 28 7 11 9 11 9 -2 0 -9 7 -16 16 -15 18 1 30
-16 38 -54 3 -14 17 -38 31 -54 14 -16 25 -33 25 -39 0 -5 6 -5 13 2 8 6 24 8
37 6 39 -8 193 13 207 28 11 10 12 27 5 70 -6 39 -6 58 2 61 7 3 5 9 -5 18
-16 13 -32 56 -37 106 -1 6 -9 12 -17 12 -10 0 -17 14 -21 40 -4 22 -17 51
-30 65 -13 14 -27 37 -30 51 -4 14 -19 38 -35 54 -16 15 -29 39 -29 52 0 46
-26 111 -47 119 -19 7 -20 5 -13 -19 4 -15 11 -35 15 -44 4 -10 4 -18 1 -18
-4 0 -11 12 -16 26 -6 14 -14 23 -19 19 -5 -3 -5 11 1 32 7 27 7 52 -3 93 -7
30 -14 61 -15 69 -2 8 -7 17 -12 20 -4 3 -12 14 -15 25 -6 14 -4 17 8 12 9 -3
13 -2 10 4 -3 6 -13 10 -20 10 -8 0 -18 12 -21 28 -4 15 -14 33 -23 39 -14 11
-14 14 -1 23 14 9 13 11 -10 14 -13 1 -52 85 -45 96 3 4 -2 11 -11 14 -10 4
-13 13 -9 26 4 13 1 22 -9 26 -9 3 -16 10 -16 15 0 14 -36 47 -57 51 -10 3
-56 0 -103 -6z m21 -140 c5 3 6 11 2 17 -4 8 -1 8 9 -1 9 -7 14 -21 11 -31 -3
-13 4 -24 26 -37 24 -14 31 -25 33 -58 2 -25 8 -40 15 -39 6 2 15 -7 19 -20 4
-12 13 -26 19 -32 17 -13 38 -82 30 -95 -3 -6 4 -14 17 -19 18 -6 25 -20 33
-62 9 -48 13 -54 33 -51 12 2 22 -1 22 -7 0 -5 5 -22 12 -38 12 -28 15 -38 17
-60 0 -6 9 -19 18 -28 9 -10 18 -34 20 -54 2 -20 8 -49 13 -65 6 -16 10 -43
10 -61 0 -22 9 -42 29 -63 20 -20 32 -45 36 -76 5 -30 12 -46 22 -46 11 0 11
-2 1 -14 -9 -10 -20 -11 -36 -5 -13 5 -28 7 -33 4 -5 -4 -16 10 -26 29 -9 20
-23 36 -30 36 -9 0 -12 11 -11 33 3 31 2 32 -37 33 -39 0 -134 -16 -205 -35
-19 -5 -53 -14 -76 -20 -36 -10 -41 -14 -41 -40 0 -22 4 -28 16 -23 14 5 14 3
2 -11 -7 -9 -21 -17 -31 -17 -15 0 -17 -7 -13 -44 5 -42 4 -44 -16 -39 -22 6
-27 23 -11 39 6 6 5 28 -4 61 -10 38 -11 53 -3 56 9 3 8 11 -1 31 -15 33 -16
73 -2 81 6 4 8 21 4 42 -5 25 -3 38 7 44 11 7 10 11 -6 23 -11 9 -26 16 -33
16 -18 0 4 40 23 40 20 0 30 21 14 31 -11 7 -10 9 4 9 9 0 17 5 17 11 0 5 6 7
13 3 9 -5 9 -4 0 6 -10 11 -10 17 0 28 9 12 9 16 0 19 -7 3 -13 11 -13 19 0 8
-5 14 -11 14 -13 0 -3 68 12 86 5 6 7 19 3 28 -4 11 -1 16 10 16 10 0 13 6 10
15 -4 8 0 23 7 32 10 12 10 15 2 9 -7 -4 -13 -3 -13 2 0 6 7 12 15 16 8 3 15
11 15 18 0 9 -3 9 -11 -2 -8 -11 -9 -5 -4 24 4 25 2 41 -5 46 -9 6 -9 13 -1
28 6 11 11 32 11 45 0 13 9 36 20 50 13 16 16 28 10 32 -5 3 -9 18 -9 33 2 24
2 24 6 4 2 -12 9 -20 14 -16z"/>
<path d="M1935 2065 c5 -16 4 -18 -6 -7 -18 17 -36 15 -59 -8 -11 -11 -15 -20
-10 -20 7 0 7 -6 0 -19 -5 -11 -10 -29 -10 -40 0 -11 -8 -28 -17 -37 -17 -17
-17 -18 0 -11 14 5 17 1 17 -23 0 -16 -4 -32 -10 -35 -5 -3 -10 -19 -10 -35 0
-22 -4 -28 -15 -24 -9 4 -15 0 -15 -10 0 -9 7 -16 15 -16 11 0 15 -11 15 -37
1 -26 9 -47 25 -66 l24 -27 33 20 c36 22 53 26 43 10 -3 -5 -2 -10 4 -10 5 0
13 5 16 11 4 6 13 8 21 5 8 -3 14 -2 14 2 0 9 71 47 83 44 11 -3 9 36 -3 59
-6 10 -17 19 -24 19 -16 0 -31 30 -45 90 -5 25 -9 33 -7 18 4 -33 0 -35 -14
-7 -8 15 -8 24 0 33 12 15 -1 59 -20 71 -6 4 -21 21 -32 39 -11 17 -17 22 -13
11z"/>
<path d="M4126 1816 c3 -8 -11 -17 -33 -24 -21 -6 -54 -27 -72 -46 -18 -19
-39 -32 -46 -30 -8 3 -12 -5 -12 -23 0 -15 -3 -51 -5 -79 -5 -48 -4 -51 28
-73 19 -13 34 -30 34 -37 0 -8 6 -11 17 -7 12 5 15 2 10 -10 -5 -13 -1 -17 18
-17 14 0 25 -5 25 -11 0 -7 7 -8 18 -4 9 4 37 9 62 11 25 2 51 5 59 6 8 1 28
16 44 35 16 18 33 31 37 28 11 -7 22 68 18 120 -2 26 -11 48 -25 61 -13 12
-23 26 -23 33 0 6 -6 11 -14 11 -8 0 -18 9 -21 20 -4 11 -10 18 -14 15 -5 -2
-31 4 -59 14 -34 13 -49 15 -46 7z m47 -127 c21 -5 37 -16 37 -24 0 -8 5 -15
10 -15 6 0 10 -9 10 -20 0 -11 -4 -20 -10 -20 -5 0 -10 -11 -10 -25 0 -25 -25
-45 -57 -45 -11 0 -32 13 -48 30 -22 23 -29 40 -30 75 0 27 2 40 8 32 6 -9 11
-8 20 6 14 20 19 20 70 6z"/>
<path d="M2700 1792 c0 -6 5 -12 12 -14 7 -3 -6 -15 -29 -27 -22 -13 -51 -41
-64 -62 -13 -21 -29 -37 -35 -35 -11 4 -12 -25 -5 -130 1 -14 12 -26 31 -34
17 -7 37 -22 45 -34 10 -13 15 -15 15 -7 0 8 3 11 8 7 4 -4 7 -13 7 -19 0 -7
11 -12 25 -12 14 0 28 -3 31 -8 3 -4 22 0 43 8 20 9 41 13 46 10 6 -4 10 -2
10 4 0 6 10 13 23 16 12 3 33 22 46 40 13 19 27 35 32 35 5 0 9 18 9 40 0 44
-20 130 -31 130 -3 0 -18 11 -33 25 -14 13 -26 21 -26 18 0 -3 -8 1 -17 9 -10
9 -38 20 -63 26 -25 5 -53 13 -62 17 -11 4 -18 3 -18 -3z m91 -132 c18 0 29
-5 29 -14 0 -8 7 -17 15 -20 21 -8 10 -74 -16 -98 -24 -24 -46 -23 -86 5 -26
17 -33 29 -33 55 0 17 -4 32 -10 32 -5 0 -10 8 -10 18 0 15 2 15 11 2 8 -13
12 -12 26 8 9 13 22 21 30 17 8 -3 28 -5 44 -5z"/>
<path d="M5166 1695 c4 -9 -8 -15 -38 -20 -24 -4 -58 -20 -77 -35 -18 -16 -39
-26 -45 -24 -8 3 -17 -23 -28 -72 l-16 -76 45 -41 c24 -22 42 -46 39 -54 -3
-8 4 -15 19 -19 14 -3 25 -10 25 -15 0 -5 11 -4 25 1 13 5 27 5 29 1 3 -5 20
-6 38 -4 18 3 40 5 48 6 8 0 23 9 35 19 11 10 29 21 42 24 16 4 23 16 29 47
13 76 10 121 -8 141 -10 11 -18 25 -18 32 0 6 -7 14 -15 18 -8 3 -15 12 -15
21 0 8 -5 15 -11 15 -6 0 -33 11 -59 24 -31 16 -47 20 -44 11z m9 -125 c3 -5
15 -10 27 -10 11 0 22 -8 25 -20 3 -11 9 -20 14 -20 14 0 10 -38 -5 -47 -8 -4
-16 -17 -18 -28 -2 -12 -10 -19 -21 -17 -9 2 -17 -1 -17 -7 0 -16 -37 -1 -61
25 -30 32 -36 124 -8 117 9 -3 20 0 23 6 9 14 33 14 41 1z"/>
</g>
</svg>
