<?xml version="1.0" standalone="no"?>
<!DOCTYPE svg PUBLIC "-//W3C//DTD SVG 20010904//EN"
 "http://www.w3.org/TR/2001/REC-SVG-20010904/DTD/svg10.dtd">
<svg version="1.0" xmlns="http://www.w3.org/2000/svg"
 width="200.000000pt" height="200.000000pt" viewBox="0 0 200.000000 200.000000"
 preserveAspectRatio="xMidYMid meet">
<metadata>
Created by potrace 1.10, written by Peter Selinger 2001-2011
</metadata>
<g transform="translate(0.000000,200.000000) scale(0.100000,-0.100000)"
fill="#000000" stroke="none">
<path d="M406 1875 c-205 -52 -382 -249 -393 -439 -3 -52 -2 -67 6 -56 6 8 11
26 11 40 0 43 46 159 85 216 140 203 406 276 635 176 66 -29 151 -96 194 -152
21 -28 46 -50 56 -50 10 0 36 25 59 55 23 30 45 55 49 55 4 0 21 13 37 28 72
67 210 111 333 107 243 -8 440 -174 483 -408 19 -105 36 -116 28 -19 -18 208
-189 397 -405 448 -89 21 -216 14 -299 -15 -82 -29 -188 -103 -238 -167 -23
-29 -44 -53 -47 -53 -3 0 -22 22 -43 49 -49 64 -151 137 -236 168 -84 31 -228
39 -315 17z"/>
<path d="M857 1508 c-9 -7 -54 -96 -99 -198 l-83 -185 -296 -3 -296 -2 -16 42
c-9 24 -24 75 -34 113 l-18 70 -3 -45 c-2 -29 6 -74 24 -128 l26 -82 315 2
315 3 92 204 c53 120 92 197 95 185 2 -10 54 -185 116 -389 62 -203 115 -379
116 -389 3 -11 44 62 104 183 l99 201 312 0 311 0 27 80 c22 68 37 184 21 168
-3 -3 -17 -47 -31 -99 -13 -51 -30 -99 -36 -106 -8 -10 -74 -13 -307 -13 -296
0 -298 0 -318 -22 -11 -13 -52 -89 -91 -170 -39 -82 -73 -148 -76 -148 -5 0
-20 45 -145 453 -43 143 -85 265 -93 273 -11 12 -17 12 -31 2z"/>
<path d="M795 1162 l-61 -137 -317 0 c-174 0 -317 -2 -317 -4 0 -2 17 -31 37
-65 116 -191 446 -522 776 -779 l87 -69 88 69 c232 181 535 466 661 623 64 79
151 207 151 221 0 2 -123 3 -273 1 l-274 -3 -125 -254 -125 -254 -116 383
c-65 210 -117 388 -117 394 0 33 -21 -1 -75 -126z m164 -277 c112 -367 124
-398 148 -393 10 2 63 96 139 251 l124 247 235 0 c129 0 235 -3 235 -7 0 -33
-115 -178 -250 -317 -172 -178 -559 -516 -589 -516 -24 0 -265 202 -461 388
-162 153 -285 289 -351 389 l-39 58 298 5 297 5 25 50 c14 28 38 78 54 113 15
35 29 62 31 60 2 -2 49 -152 104 -333z"/>
</g>
</svg>
