          <svg
            class="wave"
            xmlns="http://www.w3.org/2000/svg"
            viewBox="0 0 1440 320"
          >
            <path
              fill="#ff8a80"
              fill-opacity="1"
              d="M0,256L34.3,213.3C68.6,171,137,85,206,64C274.3,43,343,85,411,112C480,139,549,149,617,170.7C685.7,192,754,224,823,245.3C891.4,267,960,277,1029,266.7C1097.1,256,1166,224,1234,224C1302.9,224,1371,256,1406,272L1440,288L1440,0L1405.7,0C1371.4,0,1303,0,1234,0C1165.7,0,1097,0,1029,0C960,0,891,0,823,0C754.3,0,686,0,617,0C548.6,0,480,0,411,0C342.9,0,274,0,206,0C137.1,0,69,0,34,0L0,0Z"
            ></path>
          </svg>
